  0
SECTION
  2
HEADER
  9
$ACADVER
  1
AC1015
  9
$ACADMAINTVER
 70
     6
  9
$DWGCODEPAGE
  3
ANSI_936
  9
$INSBASE
 10
0.0
 20
0.0
 30
0.0
  9
$EXTMIN
 10
37.599988
 20
-114.8002
 30
0.0
  9
$EXTMAX
 10
267.199988
 20
-35.33
 30
0.0
  9
$LIMMIN
 10
0.0
 20
0.0
  9
$LIMMAX
 10
420.0
 20
297.0
  9
$ORTHOMODE
 70
     0
  9
$REGENMODE
 70
     1
  9
$FILLMODE
 70
     1
  9
$QTEXTMODE
 70
     0
  9
$MIRRTEXT
 70
     1
  9
$LTSCALE
 40
1.0
  9
$ATTMODE
 70
     1
  9
$TEXTSIZE
 40
3.5
  9
$TRACEWID
 40
1.0
  9
$TEXTSTYLE
  7
Standard
  9
$CLAYER
  8
0
  9
$CELTYPE
  6
ByLayer
  9
$CECOLOR
 62
   256
  9
$CELTSCALE
 40
1.0
  9
$DISPSILH
 70
     0
  9
$DIMSCALE
 40
1.0
  9
$DIMASZ
 40
3.556
  9
$DIMEXO
 40
1.0
  9
$DIMDLI
 40
3.75
  9
$DIMRND
 40
0.0
  9
$DIMDLE
 40
0.0
  9
$DIMEXE
 40
1.0
  9
$DIMTP
 40
0.0
  9
$DIMTM
 40
0.0
  9
$DIMTXT
 40
3.5
  9
$DIMCEN
 40
2.5
  9
$DIMTSZ
 40
0.0
  9
$DIMTOL
 70
     0
  9
$DIMLIM
 70
     0
  9
$DIMTIH
 70
     1
  9
$DIMTOH
 70
     1
  9
$DIMSE1
 70
     0
  9
$DIMSE2
 70
     0
  9
$DIMTAD
 70
     1
  9
$DIMZIN
 70
     1
  9
$DIMBLK
  1

  9
$DIMASO
 70
     1
  9
$DIMSHO
 70
     1
  9
$DIMPOST
  1

  9
$DIMAPOST
  1

  9
$DIMALT
 70
     0
  9
$DIMALTD
 70
     3
  9
$DIMALTF
 40
0.0393700787
  9
$DIMLFAC
 40
1.0
  9
$DIMTOFL
 70
     1
  9
$DIMTVP
 40
0.0
  9
$DIMTIX
 70
     0
  9
$DIMSOXD
 70
     0
  9
$DIMSAH
 70
     0
  9
$DIMBLK1
  1

  9
$DIMBLK2
  1

  9
$DIMSTYLE
  2
ISO-25
  9
$DIMCLRD
 70
     0
  9
$DIMCLRE
 70
     0
  9
$DIMCLRT
 70
     0
  9
$DIMTFAC
 40
1.0
  9
$DIMGAP
 40
1.524
  9
$DIMJUST
 70
     0
  9
$DIMSD1
 70
     0
  9
$DIMSD2
 70
     0
  9
$DIMTOLJ
 70
     0
  9
$DIMTZIN
 70
     1
  9
$DIMALTZ
 70
     0
  9
$DIMALTTZ
 70
     0
  9
$DIMUPT
 70
     0
  9
$DIMDEC
 70
     2
  9
$DIMTDEC
 70
     2
  9
$DIMALTU
 70
     2
  9
$DIMALTTD
 70
     3
  9
$DIMTXSTY
  7
Standard
  9
$DIMAUNIT
 70
     0
  9
$DIMADEC
 70
     2
  9
$DIMALTRND
 40
0.0
  9
$DIMAZIN
 70
     0
  9
$DIMDSEP
 70
    44
  9
$DIMATFIT
 70
     3
  9
$DIMFRAC
 70
     0
  9
$DIMLDRBLK
  1

  9
$DIMLUNIT
 70
     2
  9
$DIMLWD
 70
    -2
  9
$DIMLWE
 70
    -2
  9
$DIMTMOVE
 70
     0
  9
$LUNITS
 70
     2
  9
$LUPREC
 70
     2
  9
$SKETCHINC
 40
1.0
  9
$FILLETRAD
 40
10.0
  9
$AUNITS
 70
     0
  9
$AUPREC
 70
     2
  9
$MENU
  1
.
  9
$ELEVATION
 40
0.0
  9
$PELEVATION
 40
0.0
  9
$THICKNESS
 40
0.0
  9
$LIMCHECK
 70
     0
  9
$CHAMFERA
 40
0.0
  9
$CHAMFERB
 40
0.0
  9
$CHAMFERC
 40
0.0
  9
$CHAMFERD
 40
0.0
  9
$SKPOLY
 70
     0
  9
$TDCREATE
 40
2458598.431797489
  9
$TDUCREATE
 40
2458598.098464155
  9
$TDUPDATE
 40
2458598.431839178
  9
$TDUUPDATE
 40
2458598.098505845
  9
$TDINDWG
 40
0.0000000116
  9
$TDUSRTIMER
 40
0.0000000116
  9
$USRTIMER
 70
     1
  9
$ANGBASE
 50
0.0
  9
$ANGDIR
 70
     0
  9
$PDMODE
 70
     0
  9
$PDSIZE
 40
-1.0
  9
$PLINEWID
 40
0.0
  9
$SPLFRAME
 70
     0
  9
$SPLINETYPE
 70
     6
  9
$SPLINESEGS
 70
     8
  9
$HANDSEED
  5
663
  9
$SURFTAB1
 70
     6
  9
$SURFTAB2
 70
     6
  9
$SURFTYPE
 70
     6
  9
$SURFU
 70
     6
  9
$SURFV
 70
     6
  9
$UCSBASE
  2

  9
$UCSNAME
  2

  9
$UCSORG
 10
0.0
 20
0.0
 30
0.0
  9
$UCSXDIR
 10
1.0
 20
0.0
 30
0.0
  9
$UCSYDIR
 10
0.0
 20
1.0
 30
0.0
  9
$UCSORTHOREF
  2

  9
$UCSORTHOVIEW
 70
     0
  9
$UCSORGTOP
 10
0.0
 20
0.0
 30
0.0
  9
$UCSORGBOTTOM
 10
0.0
 20
0.0
 30
0.0
  9
$UCSORGLEFT
 10
0.0
 20
0.0
 30
0.0
  9
$UCSORGRIGHT
 10
0.0
 20
0.0
 30
0.0
  9
$UCSORGFRONT
 10
0.0
 20
0.0
 30
0.0
  9
$UCSORGBACK
 10
0.0
 20
0.0
 30
0.0
  9
$PUCSBASE
  2

  9
$PUCSNAME
  2

  9
$PUCSORG
 10
0.0
 20
0.0
 30
0.0
  9
$PUCSXDIR
 10
1.0
 20
0.0
 30
0.0
  9
$PUCSYDIR
 10
0.0
 20
1.0
 30
0.0
  9
$PUCSORTHOREF
  2

  9
$PUCSORTHOVIEW
 70
     0
  9
$PUCSORGTOP
 10
0.0
 20
0.0
 30
0.0
  9
$PUCSORGBOTTOM
 10
0.0
 20
0.0
 30
0.0
  9
$PUCSORGLEFT
 10
0.0
 20
0.0
 30
0.0
  9
$PUCSORGRIGHT
 10
0.0
 20
0.0
 30
0.0
  9
$PUCSORGFRONT
 10
0.0
 20
0.0
 30
0.0
  9
$PUCSORGBACK
 10
0.0
 20
0.0
 30
0.0
  9
$USERI1
 70
     0
  9
$USERI2
 70
     0
  9
$USERI3
 70
     0
  9
$USERI4
 70
     0
  9
$USERI5
 70
     0
  9
$USERR1
 40
0.0
  9
$USERR2
 40
0.0
  9
$USERR3
 40
0.0
  9
$USERR4
 40
0.0
  9
$USERR5
 40
0.0
  9
$WORLDVIEW
 70
     1
  9
$SHADEDGE
 70
     3
  9
$SHADEDIF
 70
    70
  9
$TILEMODE
 70
     1
  9
$MAXACTVP
 70
    64
  9
$PINSBASE
 10
0.0
 20
0.0
 30
0.0
  9
$PLIMCHECK
 70
     0
  9
$PEXTMIN
 10
1.0000000000E+20
 20
1.0000000000E+20
 30
1.0000000000E+20
  9
$PEXTMAX
 10
-1.0000000000E+20
 20
-1.0000000000E+20
 30
-1.0000000000E+20
  9
$PLIMMIN
 10
0.0
 20
0.0
  9
$PLIMMAX
 10
420.0
 20
297.0
  9
$UNITMODE
 70
     0
  9
$VISRETAIN
 70
     1
  9
$PLINEGEN
 70
     0
  9
$PSLTSCALE
 70
     1
  9
$TREEDEPTH
 70
  3020
  9
$CMLSTYLE
  2
Standard
  9
$CMLJUST
 70
     0
  9
$CMLSCALE
 40
20.0
  9
$PROXYGRAPHICS
 70
     1
  9
$MEASUREMENT
 70
     1
  9
$CELWEIGHT
370
    -1
  9
$ENDCAPS
280
     0
  9
$JOINSTYLE
280
     0
  9
$LWDISPLAY
290
     1
  9
$INSUNITS
 70
     4
  9
$HYPERLINKBASE
  1

  9
$STYLESHEET
  1

  9
$XEDIT
290
     1
  9
$CEPSNTYPE
380
     0
  9
$PSTYLEMODE
290
     1
  9
$FINGERPRINTGUID
  2
{1446E1C4-A8B9-464F-A21B-FDB1BA003DBE}
  9
$VERSIONGUID
  2
{FAEB1C32-E019-11D5-929B-00C0DF256EC4}
  9
$EXTNAMES
290
     1
  9
$PSVPSCALE
 40
0.0
  9
$OLESTARTUP
290
     0
  0
ENDSEC
  0
SECTION
  2
CLASSES
  0
CLASS
  1
ACDBDICTIONARYWDFLT
  2
AcDbDictionaryWithDefault
  3
ObjectDBX Classes
 90
        0
280
     0
281
     0
  0
CLASS
  1
VISUALSTYLE
  2
AcDbVisualStyle
  3
ObjectDBX Classes
 90
     4095
280
     0
281
     0
  0
CLASS
  1
MATERIAL
  2
AcDbMaterial
  3
ObjectDBX Classes
 90
     1153
280
     0
281
     0
  0
CLASS
  1
SCALE
  2
AcDbScale
  3
ObjectDBX Classes
 90
     1153
280
     0
281
     0
  0
CLASS
  1
TABLESTYLE
  2
AcDbTableStyle
  3
ObjectDBX Classes
 90
     4095
280
     0
281
     0
  0
CLASS
  1
MLEADERSTYLE
  2
AcDbMLeaderStyle
  3
ACDB_MLEADERSTYLE_CLASS
 90
     4095
280
     0
281
     0
  0
CLASS
  1
SUN
  2
AcDbSun
  3
SCENEOE
 90
     1153
280
     0
281
     0
  0
CLASS
  1
ACDBPLACEHOLDER
  2
AcDbPlaceHolder
  3
ObjectDBX Classes
 90
        0
280
     0
281
     0
  0
CLASS
  1
LAYOUT
  2
AcDbLayout
  3
ObjectDBX Classes
 90
        0
280
     0
281
     0
  0
ENDSEC
  0
SECTION
  2
TABLES
  0
TABLE
  2
VPORT
  5
8
330
0
100
AcDbSymbolTable
 70
     1
  0
VPORT
  5
29
330
8
100
AcDbSymbolTableRecord
100
AcDbViewportTableRecord
  2
*Active
 70
     0
 10
0.0
 20
0.0
 11
1.0
 21
1.0
 12
152.399988
 22
-75.0651
 13
0.0
 23
0.0
 14
10.0
 24
10.0
 15
10.0
 25
10.0
 16
0.0
 26
0.0
 36
1.0
 17
0.0
 27
0.0
 37
0.0
 40
81.059604
 41
2.8891332852
 42
50.0
 43
0.0
 44
0.0
 50
0.0
 51
0.0
 71
     0
 72
   100
 73
     1
 74
     3
 75
     0
 76
     0
 77
     0
 78
     0
281
     0
 65
     1
110
0.0
120
0.0
130
0.0
111
1.0
121
0.0
131
0.0
112
0.0
122
1.0
132
0.0
 79
     0
146
0.0
  0
ENDTAB
  0
TABLE
  2
LTYPE
  5
5
330
0
100
AcDbSymbolTable
 70
     6
  0
LTYPE
  5
14
330
5
100
AcDbSymbolTableRecord
100
AcDbLinetypeTableRecord
  2
ByBlock
 70
     0
  3

 72
    65
 73
     0
 40
0.0
  0
LTYPE
  5
15
330
5
100
AcDbSymbolTableRecord
100
AcDbLinetypeTableRecord
  2
ByLayer
 70
     0
  3

 72
    65
 73
     0
 40
0.0
  0
LTYPE
  5
16
330
5
100
AcDbSymbolTableRecord
100
AcDbLinetypeTableRecord
  2
Continuous
 70
     0
  3
Solid line
 72
    65
 73
     0
 40
0.0
  0
LTYPE
  5
6E
330
5
100
AcDbSymbolTableRecord
100
AcDbLinetypeTableRecord
  2
HIDDEN
 70
     0
  3
Hidden __ __ __ __ __ __ __ __ __ __ __ __ __ __
 72
    65
 73
     2
 40
1.905
 49
1.27
 74
     0
 49
-0.635
 74
     0
  0
LTYPE
  5
6F
330
5
100
AcDbSymbolTableRecord
100
AcDbLinetypeTableRecord
  2
PHANTOM
 70
     0
  3
Phantom ______  __  __  ______  __  __  ______
 72
    65
 73
     6
 40
12.7
 49
6.35
 74
     0
 49
-1.27
 74
     0
 49
1.27
 74
     0
 49
-1.27
 74
     0
 49
1.27
 74
     0
 49
-1.27
 74
     0
  0
LTYPE
  5
70
330
5
100
AcDbSymbolTableRecord
100
AcDbLinetypeTableRecord
  2
CENTER
 70
     0
  3
Center ____ _ ____ _ ____ _ ____ _ ____ _ ____
 72
    65
 73
     4
 40
10.16
 49
6.35
 74
     0
 49
-1.27
 74
     0
 49
1.27
 74
     0
 49
-1.27
 74
     0
  0
LTYPE
  5
71
330
5
100
AcDbSymbolTableRecord
100
AcDbLinetypeTableRecord
  2
CENTERX2
 70
     0
  3
Center (2x) ________  __  ________  __  _____
 72
    65
 73
     4
 40
20.32
 49
12.7
 74
     0
 49
-2.54
 74
     0
 49
2.54
 74
     0
 49
-2.54
 74
     0
  0
LTYPE
  5
72
330
5
100
AcDbSymbolTableRecord
100
AcDbLinetypeTableRecord
  2
DOT2
 70
     0
  3
Dot (.5x) ........................................
 72
    65
 73
     2
 40
0.635
 49
0.0
 74
     0
 49
-0.635
 74
     0
  0
ENDTAB
  0
TABLE
  2
LAYER
  5
2
330
0
100
AcDbSymbolTable
 70
     1
  0
LAYER
  5
10
330
2
100
AcDbSymbolTableRecord
100
AcDbLayerTableRecord
  2
0
 70
     0
 62
     7
  6
Continuous
370
    -3
390
F
  0
ENDTAB
  0
TABLE
  2
STYLE
  5
3
330
0
100
AcDbSymbolTable
 70
     1
  0
STYLE
  5
11
330
3
100
AcDbSymbolTableRecord
100
AcDbTextStyleTableRecord
  2
Standard
 70
     0
 40
0.0
 41
1.0
 50
0.0
 71
     0
 42
3.5
  3
txt
  4

  0
ENDTAB
  0
TABLE
  2
VIEW
  5
6
330
0
100
AcDbSymbolTable
 70
     0
  0
ENDTAB
  0
TABLE
  2
UCS
  5
7
330
0
100
AcDbSymbolTable
 70
     0
  0
ENDTAB
  0
TABLE
  2
APPID
  5
9
330
0
100
AcDbSymbolTable
 70
     1
  0
APPID
  5
12
330
9
100
AcDbSymbolTableRecord
100
AcDbRegAppTableRecord
  2
ACAD
 70
     0
  0
ENDTAB
  0
TABLE
  2
DIMSTYLE
  5
A
330
0
100
AcDbSymbolTable
 70
     1
100
AcDbDimStyleTable
  0
DIMSTYLE
105
27
330
A
100
AcDbSymbolTableRecord
100
AcDbDimStyleTableRecord
  2
ISO-25
 70
     0
 41
2.5
 42
0.625
 43
3.75
 44
1.25
 73
     0
 74
     0
 77
     1
 78
     8
140
2.5
141
2.5
143
0.0393700787
147
0.625
171
     3
172
     1
178
     0
271
     2
272
     2
274
     3
278
    44
283
     0
284
     8
340
11
  0
ENDTAB
  0
TABLE
  2
BLOCK_RECORD
  5
1
330
0
100
AcDbSymbolTable
 70
     1
  0
BLOCK_RECORD
  5
1F
330
1
100
AcDbSymbolTableRecord
100
AcDbBlockTableRecord
  2
*Model_Space
340
22
  0
BLOCK_RECORD
  5
1B
330
1
100
AcDbSymbolTableRecord
100
AcDbBlockTableRecord
  2
*Paper_Space
340
1E
  0
BLOCK_RECORD
  5
23
330
1
100
AcDbSymbolTableRecord
100
AcDbBlockTableRecord
  2
*Paper_Space0
340
26
  0
ENDTAB
  0
ENDSEC
  0
SECTION
  2
BLOCKS
  0
BLOCK
  5
20
330
1F
100
AcDbEntity
  8
0
100
AcDbBlockBegin
  2
*Model_Space
 70
     0
 10
0.0
 20
0.0
 30
0.0
  3
*Model_Space
  1

  0
ENDBLK
  5
21
330
1F
100
AcDbEntity
  8
0
100
AcDbBlockEnd
  0
BLOCK
  5
1C
330
1B
100
AcDbEntity
 67
     1
  8
0
100
AcDbBlockBegin
  2
*Paper_Space
 70
     0
 10
0.0
 20
0.0
 30
0.0
  3
*Paper_Space
  1

  0
ENDBLK
  5
1D
330
1B
100
AcDbEntity
 67
     1
  8
0
100
AcDbBlockEnd
  0
BLOCK
  5
24
330
23
100
AcDbEntity
  8
0
100
AcDbBlockBegin
  2
*Paper_Space0
 70
     0
 10
0.0
 20
0.0
 30
0.0
  3
*Paper_Space0
  1

  0
ENDBLK
  5
25
330
23
100
AcDbEntity
  8
0
100
AcDbBlockEnd
  0
ENDSEC
  0
SECTION
  2
ENTITIES
  0
SPLINE
  5
E0
330
1F
100
AcDbEntity
  8
0
  6
Continuous
 62
     7
370
    25
100
AcDbSpline
210
0.0
220
0.0
230
1.0
 70
     8
 71
     3
 72
     8
 73
     4
 74
     0
 42
0.000000001
 43
0.00000001
 40
0.0
 40
0.0
 40
0.0
 40
0.0
 40
1.0
 40
1.0
 40
1.0
 40
1.0
 10
149.18
 20
-36.48
 30
0.0
 10
149.196666684989
 20
-36.48
 30
0.0
 10
149.213358079665
 20
-36.48055658757099
 30
0.0
 10
149.23
 20
-36.481668522645
 30
0.0
  0
SPLINE
  5
E4
330
1F
100
AcDbEntity
  8
0
  6
Continuous
 62
     7
370
    25
100
AcDbSpline
210
0.0
220
0.0
230
1.0
 70
     8
 71
     3
 72
     8
 73
     4
 74
     0
 42
0.000000001
 43
0.00000001
 40
0.0
 40
0.0
 40
0.0
 40
0.0
 40
1.0
 40
1.0
 40
1.0
 40
1.0
 10
155.57
 20
-36.481668522645
 30
0.0
 10
155.586641920335
 20
-36.48055658757099
 30
0.0
 10
155.603333315011
 20
-36.48
 30
0.0
 10
155.62
 20
-36.48
 30
0.0
  0
CIRCLE
  5
15D
330
1F
100
AcDbEntity
  8
0
  6
Continuous
 62
     7
370
    25
100
AcDbCircle
 10
262.255
 20
-104.775
 30
0.0
 40
0.8500000000000227
  0
CIRCLE
  5
15E
330
1F
100
AcDbEntity
  8
0
  6
Continuous
 62
     7
370
    25
100
AcDbCircle
 10
262.255
 20
-66.675
 30
0.0
 40
0.8500000000000227
  0
CIRCLE
  5
15F
330
1F
100
AcDbEntity
  8
0
  6
Continuous
 62
     7
370
    25
100
AcDbCircle
 10
262.255
 20
-85.725
 30
0.0
 40
0.8500000000000227
  0
CIRCLE
  5
160
330
1F
100
AcDbEntity
  8
0
  6
Continuous
 62
     7
370
    25
100
AcDbCircle
 10
262.255
 20
-47.625
 30
0.0
 40
0.8500000000000227
  0
CIRCLE
  5
161
330
1F
100
AcDbEntity
  8
0
  6
Continuous
 62
     7
370
    25
100
AcDbCircle
 10
258.445
 20
-109.855
 30
0.0
 40
0.5
  0
CIRCLE
  5
162
330
1F
100
AcDbEntity
  8
0
  6
Continuous
 62
     7
370
    25
100
AcDbCircle
 10
255.905
 20
-109.855
 30
0.0
 40
0.5
  0
CIRCLE
  5
163
330
1F
100
AcDbEntity
  8
0
  6
Continuous
 62
     7
370
    25
100
AcDbCircle
 10
258.445
 20
-90.805
 30
0.0
 40
0.5
  0
CIRCLE
  5
164
330
1F
100
AcDbEntity
  8
0
  6
Continuous
 62
     7
370
    25
100
AcDbCircle
 10
255.905
 20
-90.805
 30
0.0
 40
0.5
  0
CIRCLE
  5
165
330
1F
100
AcDbEntity
  8
0
  6
Continuous
 62
     7
370
    25
100
AcDbCircle
 10
243.205
 20
-85.725
 30
0.0
 40
0.8499999999999943
  0
CIRCLE
  5
166
330
1F
100
AcDbEntity
  8
0
  6
Continuous
 62
     7
370
    25
100
AcDbCircle
 10
252.095
 20
-85.725
 30
0.0
 40
0.8499999999999375
  0
CIRCLE
  5
167
330
1F
100
AcDbEntity
  8
0
  6
Continuous
 62
     7
370
    25
100
AcDbCircle
 10
253.375
 20
-83.185
 30
0.0
 40
0.7249999999999659
  0
CIRCLE
  5
168
330
1F
100
AcDbEntity
  8
0
  6
Continuous
 62
     7
370
    25
100
AcDbCircle
 10
257.175
 20
-85.725
 30
0.0
 40
2.0
  0
CIRCLE
  5
169
330
1F
100
AcDbEntity
  8
0
  6
Continuous
 62
     7
370
    25
100
AcDbCircle
 10
254.675
 20
-81.725
 30
0.0
 40
0.7250000000000512
  0
CIRCLE
  5
16E
330
1F
100
AcDbEntity
  8
0
  6
Continuous
 62
     7
370
    25
100
AcDbCircle
 10
247.65
 20
-95.25
 30
0.0
 40
1.099999999999994
  0
CIRCLE
  5
16F
330
1F
100
AcDbEntity
  8
0
  6
Continuous
 62
     7
370
    25
100
AcDbCircle
 10
253.375
 20
-102.235
 30
0.0
 40
0.7249999999999659
  0
CIRCLE
  5
170
330
1F
100
AcDbEntity
  8
0
  6
Continuous
 62
     7
370
    25
100
AcDbCircle
 10
257.175
 20
-104.775
 30
0.0
 40
2.000000000000057
  0
CIRCLE
  5
171
330
1F
100
AcDbEntity
  8
0
  6
Continuous
 62
     7
370
    25
100
AcDbCircle
 10
254.675
 20
-100.775
 30
0.0
 40
0.7250000000000227
  0
CIRCLE
  5
176
330
1F
100
AcDbEntity
  8
0
  6
Continuous
 62
     7
370
    25
100
AcDbCircle
 10
252.095
 20
-104.775
 30
0.0
 40
0.8499999999999375
  0
CIRCLE
  5
177
330
1F
100
AcDbEntity
  8
0
  6
Continuous
 62
     7
370
    25
100
AcDbCircle
 10
243.205
 20
-104.775
 30
0.0
 40
0.8500000000000512
  0
CIRCLE
  5
178
330
1F
100
AcDbEntity
  8
0
  6
Continuous
 62
     7
370
    25
100
AcDbCircle
 10
258.445
 20
-71.755
 30
0.0
 40
0.5
  0
CIRCLE
  5
179
330
1F
100
AcDbEntity
  8
0
  6
Continuous
 62
     7
370
    25
100
AcDbCircle
 10
253.6825
 20
-71.755
 30
0.0
 40
0.5
  0
CIRCLE
  5
17A
330
1F
100
AcDbEntity
  8
0
  6
Continuous
 62
     7
370
    25
100
AcDbCircle
 10
255.905
 20
-71.755
 30
0.0
 40
0.5
  0
CIRCLE
  5
17B
330
1F
100
AcDbEntity
  8
0
  6
Continuous
 62
     7
370
    25
100
AcDbCircle
 10
251.1425
 20
-71.755
 30
0.0
 40
0.4999999999999716
  0
CIRCLE
  5
17C
330
1F
100
AcDbEntity
  8
0
  6
Continuous
 62
     7
370
    25
100
AcDbCircle
 10
243.205
 20
-47.625
 30
0.0
 40
0.8499999999999943
  0
CIRCLE
  5
17D
330
1F
100
AcDbEntity
  8
0
  6
Continuous
 62
     7
370
    25
100
AcDbCircle
 10
243.205
 20
-66.675
 30
0.0
 40
0.8500000000000512
  0
CIRCLE
  5
184
330
1F
100
AcDbEntity
  8
0
  6
Continuous
 62
     7
370
    25
100
AcDbCircle
 10
247.65
 20
-57.15
 30
0.0
 40
1.099999999999994
  0
CIRCLE
  5
185
330
1F
100
AcDbEntity
  8
0
  6
Continuous
 62
     7
370
    25
100
AcDbCircle
 10
257.175
 20
-66.675
 30
0.0
 40
2.000000000000057
  0
CIRCLE
  5
18A
330
1F
100
AcDbEntity
  8
0
  6
Continuous
 62
     7
370
    25
100
AcDbCircle
 10
248.6125
 20
-64.135
 30
0.0
 40
0.7249999999999943
  0
CIRCLE
  5
18B
330
1F
100
AcDbEntity
  8
0
  6
Continuous
 62
     7
370
    25
100
AcDbCircle
 10
247.3325
 20
-66.675
 30
0.0
 40
0.8500000000000227
  0
CIRCLE
  5
190
330
1F
100
AcDbEntity
  8
0
  6
Continuous
 62
     7
370
    25
100
AcDbCircle
 10
249.9125
 20
-62.675
 30
0.0
 40
0.7250000000000227
  0
CIRCLE
  5
191
330
1F
100
AcDbEntity
  8
0
  6
Continuous
 62
     7
370
    25
100
AcDbCircle
 10
252.095
 20
-47.625
 30
0.0
 40
0.8499999999999375
  0
CIRCLE
  5
192
330
1F
100
AcDbEntity
  8
0
  6
Continuous
 62
     7
370
    25
100
AcDbCircle
 10
255.905
 20
-52.705
 30
0.0
 40
0.5
  0
CIRCLE
  5
193
330
1F
100
AcDbEntity
  8
0
  6
Continuous
 62
     7
370
    25
100
AcDbCircle
 10
257.175
 20
-47.625
 30
0.0
 40
2.0
  0
CIRCLE
  5
194
330
1F
100
AcDbEntity
  8
0
  6
Continuous
 62
     7
370
    25
100
AcDbCircle
 10
253.375
 20
-45.085
 30
0.0
 40
0.7249999999999659
  0
CIRCLE
  5
195
330
1F
100
AcDbEntity
  8
0
  6
Continuous
 62
     7
370
    25
100
AcDbCircle
 10
254.675
 20
-43.625
 30
0.0
 40
0.7250000000000512
  0
CIRCLE
  5
196
330
1F
100
AcDbEntity
  8
0
  6
Continuous
 62
     7
370
    25
100
AcDbCircle
 10
258.445
 20
-52.705
 30
0.0
 40
0.5
  0
CIRCLE
  5
19B
330
1F
100
AcDbEntity
  8
0
  6
Continuous
 62
     7
370
    25
100
AcDbCircle
 10
46.355
 20
-109.855
 30
0.0
 40
0.4999999999999929
  0
CIRCLE
  5
19C
330
1F
100
AcDbEntity
  8
0
  6
Continuous
 62
     7
370
    25
100
AcDbCircle
 10
48.895
 20
-109.855
 30
0.0
 40
0.4999999999999929
  0
CIRCLE
  5
19D
330
1F
100
AcDbEntity
  8
0
  6
Continuous
 62
     7
370
    25
100
AcDbCircle
 10
47.625
 20
-47.625
 30
0.0
 40
1.999999999999993
  0
CIRCLE
  5
19E
330
1F
100
AcDbEntity
  8
0
  6
Continuous
 62
     7
370
    25
100
AcDbCircle
 10
43.825
 20
-45.085
 30
0.0
 40
0.7249999999999943
  0
CIRCLE
  5
19F
330
1F
100
AcDbEntity
  8
0
  6
Continuous
 62
     7
370
    25
100
AcDbCircle
 10
57.15
 20
-95.25
 30
0.0
 40
1.100000000000009
  0
CIRCLE
  5
1A0
330
1F
100
AcDbEntity
  8
0
  6
Continuous
 62
     7
370
    25
100
AcDbCircle
 10
45.125
 20
-81.725
 30
0.0
 40
0.7249999999999801
  0
CIRCLE
  5
1A1
330
1F
100
AcDbEntity
  8
0
  6
Continuous
 62
     7
370
    25
100
AcDbCircle
 10
47.625
 20
-104.775
 30
0.0
 40
2.000000000000028
  0
CIRCLE
  5
1A2
330
1F
100
AcDbEntity
  8
0
  6
Continuous
 62
     7
370
    25
100
AcDbCircle
 10
43.825
 20
-102.235
 30
0.0
 40
0.7249999999999943
  0
CIRCLE
  5
1A3
330
1F
100
AcDbEntity
  8
0
  6
Continuous
 62
     7
370
    25
100
AcDbCircle
 10
42.545
 20
-104.775
 30
0.0
 40
0.8500000000000085
  0
CIRCLE
  5
1A4
330
1F
100
AcDbEntity
  8
0
  6
Continuous
 62
     7
370
    25
100
AcDbCircle
 10
46.355
 20
-90.805
 30
0.0
 40
0.5000000000000142
  0
CIRCLE
  5
1A5
330
1F
100
AcDbEntity
  8
0
  6
Continuous
 62
     7
370
    25
100
AcDbCircle
 10
43.825
 20
-83.185
 30
0.0
 40
0.7249999999999943
  0
CIRCLE
  5
1A6
330
1F
100
AcDbEntity
  8
0
  6
Continuous
 62
     7
370
    25
100
AcDbCircle
 10
45.125
 20
-100.775
 30
0.0
 40
0.7250000000000085
  0
CIRCLE
  5
1A7
330
1F
100
AcDbEntity
  8
0
  6
Continuous
 62
     7
370
    25
100
AcDbCircle
 10
48.895
 20
-90.805
 30
0.0
 40
0.5000000000000142
  0
CIRCLE
  5
1A8
330
1F
100
AcDbEntity
  8
0
  6
Continuous
 62
     7
370
    25
100
AcDbCircle
 10
47.625
 20
-85.725
 30
0.0
 40
2.0
  0
CIRCLE
  5
1A9
330
1F
100
AcDbEntity
  8
0
  6
Continuous
 62
     7
370
    25
100
AcDbCircle
 10
42.545
 20
-85.725
 30
0.0
 40
0.8500000000000085
  0
CIRCLE
  5
1B2
330
1F
100
AcDbEntity
  8
0
  6
Continuous
 62
     7
370
    25
100
AcDbCircle
 10
52.705
 20
-104.775
 30
0.0
 40
0.8500000000000014
  0
CIRCLE
  5
1B3
330
1F
100
AcDbEntity
  8
0
  6
Continuous
 62
     7
370
    25
100
AcDbCircle
 10
57.15
 20
-46.355
 30
0.0
 40
0.5000000000000071
  0
CIRCLE
  5
1B4
330
1F
100
AcDbEntity
  8
0
  6
Continuous
 62
     7
370
    25
100
AcDbCircle
 10
57.15
 20
-48.895
 30
0.0
 40
0.5000000000000071
  0
CIRCLE
  5
1B5
330
1F
100
AcDbEntity
  8
0
  6
Continuous
 62
     7
370
    25
100
AcDbCircle
 10
57.15
 20
-57.15
 30
0.0
 40
1.099999999999994
  0
CIRCLE
  5
1B6
330
1F
100
AcDbEntity
  8
0
  6
Continuous
 62
     7
370
    25
100
AcDbCircle
 10
46.355
 20
-52.705
 30
0.0
 40
0.5000000000000142
  0
CIRCLE
  5
1B7
330
1F
100
AcDbEntity
  8
0
  6
Continuous
 62
     7
370
    25
100
AcDbCircle
 10
45.125
 20
-55.5
 30
0.0
 40
0.3500000000000014
  0
CIRCLE
  5
1B8
330
1F
100
AcDbEntity
  8
0
  6
Continuous
 62
     7
370
    25
100
AcDbCircle
 10
42.545
 20
-47.625
 30
0.0
 40
0.8499999999999943
  0
CIRCLE
  5
1B9
330
1F
100
AcDbEntity
  8
0
  6
Continuous
 62
     7
370
    25
100
AcDbCircle
 10
48.895
 20
-52.705
 30
0.0
 40
0.5000000000000071
  0
CIRCLE
  5
1BA
330
1F
100
AcDbEntity
  8
0
  6
Continuous
 62
     7
370
    25
100
AcDbCircle
 10
47.625
 20
-55.5
 30
0.0
 40
0.3499999999999872
  0
CIRCLE
  5
1BB
330
1F
100
AcDbEntity
  8
0
  6
Continuous
 62
     7
370
    25
100
AcDbCircle
 10
47.625
 20
-58.8
 30
0.0
 40
0.3499999999999872
  0
CIRCLE
  5
1C2
330
1F
100
AcDbEntity
  8
0
  6
Continuous
 62
     7
370
    25
100
AcDbCircle
 10
57.4675
 20
-66.675
 30
0.0
 40
0.8500000000000014
  0
CIRCLE
  5
1C3
330
1F
100
AcDbEntity
  8
0
  6
Continuous
 62
     7
370
    25
100
AcDbCircle
 10
52.3875
 20
-66.675
 30
0.0
 40
2.000000000000036
  0
CIRCLE
  5
1C4
330
1F
100
AcDbEntity
  8
0
  6
Continuous
 62
     7
370
    25
100
AcDbCircle
 10
40.01
 20
-77.86
 30
0.0
 40
0.4000000000000057
  0
CIRCLE
  5
1C5
330
1F
100
AcDbEntity
  8
0
  6
Continuous
 62
     7
370
    25
100
AcDbCircle
 10
40.01
 20
-75.86
 30
0.0
 40
0.4000000000000057
  0
CIRCLE
  5
1C6
330
1F
100
AcDbEntity
  8
0
  6
Continuous
 62
     7
370
    25
100
AcDbCircle
 10
46.355
 20
-71.755
 30
0.0
 40
0.4999999999999929
  0
CIRCLE
  5
1C7
330
1F
100
AcDbEntity
  8
0
  6
Continuous
 62
     7
370
    25
100
AcDbCircle
 10
42.545
 20
-66.675
 30
0.0
 40
0.8500000000000085
  0
CIRCLE
  5
1CC
330
1F
100
AcDbEntity
  8
0
  6
Continuous
 62
     7
370
    25
100
AcDbCircle
 10
43.825
 20
-64.135
 30
0.0
 40
0.7249999999999872
  0
CIRCLE
  5
1CD
330
1F
100
AcDbEntity
  8
0
  6
Continuous
 62
     7
370
    25
100
AcDbCircle
 10
45.125
 20
-62.675
 30
0.0
 40
0.7250000000000014
  0
CIRCLE
  5
1CE
330
1F
100
AcDbEntity
  8
0
  6
Continuous
 62
     7
370
    25
100
AcDbCircle
 10
48.895
 20
-71.755
 30
0.0
 40
0.4999999999999929
  0
CIRCLE
  5
1CF
330
1F
100
AcDbEntity
  8
0
  6
Continuous
 62
     7
370
    25
100
AcDbCircle
 10
40.01
 20
-73.86
 30
0.0
 40
0.4000000000000057
  0
CIRCLE
  5
1D0
330
1F
100
AcDbEntity
  8
0
  6
Continuous
 62
     7
370
    25
100
AcDbCircle
 10
150.61
 20
-113.21
 30
0.0
 40
0.5
  0
CIRCLE
  5
1D1
330
1F
100
AcDbEntity
  8
0
  6
Continuous
 62
     7
370
    25
100
AcDbCircle
 10
150.405
 20
-88.75
 30
0.0
 40
0.25
  0
CIRCLE
  5
1D2
330
1F
100
AcDbEntity
  8
0
  6
Continuous
 62
     7
370
    25
100
AcDbCircle
 10
149.135
 20
-88.75
 30
0.0
 40
0.25
  0
CIRCLE
  5
1D3
330
1F
100
AcDbEntity
  8
0
  6
Continuous
 62
     7
370
    25
100
AcDbCircle
 10
148.07
 20
-113.21
 30
0.0
 40
0.5
  0
CIRCLE
  5
1D4
330
1F
100
AcDbEntity
  8
0
  6
Continuous
 62
     7
370
    25
100
AcDbCircle
 10
151.13
 20
-71.755
 30
0.0
 40
0.5
  0
CIRCLE
  5
1D5
330
1F
100
AcDbEntity
  8
0
  6
Continuous
 62
     7
370
    25
100
AcDbCircle
 10
149.9
 20
-62.675
 30
0.0
 40
0.7249999999999943
  0
CIRCLE
  5
1D6
330
1F
100
AcDbEntity
  8
0
  6
Continuous
 62
     7
370
    25
100
AcDbCircle
 10
150.80234
 20
-45.55378
 30
0.0
 40
0.3000000000000114
  0
CIRCLE
  5
1D7
330
1F
100
AcDbEntity
  8
0
  6
Continuous
 62
     7
370
    25
100
AcDbCircle
 10
149.51
 20
-41.91
 30
0.0
 40
0.3249999999999886
  0
CIRCLE
  5
1D8
330
1F
100
AcDbEntity
  8
0
  6
Continuous
 62
     7
370
    25
100
AcDbCircle
 10
65.405
 20
-109.855
 30
0.0
 40
0.4999999999999858
  0
CIRCLE
  5
1D9
330
1F
100
AcDbEntity
  8
0
  6
Continuous
 62
     7
370
    25
100
AcDbCircle
 10
67.945
 20
-109.855
 30
0.0
 40
0.4999999999999716
  0
CIRCLE
  5
1DA
330
1F
100
AcDbEntity
  8
0
  6
Continuous
 62
     7
370
    25
100
AcDbCircle
 10
86.995
 20
-109.855
 30
0.0
 40
0.4999999999999858
  0
CIRCLE
  5
1DB
330
1F
100
AcDbEntity
  8
0
  6
Continuous
 62
     7
370
    25
100
AcDbCircle
 10
84.455
 20
-109.855
 30
0.0
 40
0.4999999999999716
  0
CIRCLE
  5
1DC
330
1F
100
AcDbEntity
  8
0
  6
Continuous
 62
     7
370
    25
100
AcDbCircle
 10
103.505
 20
-109.855
 30
0.0
 40
0.4999999999999858
  0
CIRCLE
  5
1DD
330
1F
100
AcDbEntity
  8
0
  6
Continuous
 62
     7
370
    25
100
AcDbCircle
 10
132.08
 20
-109.855
 30
0.0
 40
0.5
  0
CIRCLE
  5
1DE
330
1F
100
AcDbEntity
  8
0
  6
Continuous
 62
     7
370
    25
100
AcDbCircle
 10
137.00125
 20
-109.855
 30
0.0
 40
0.5
  0
CIRCLE
  5
1E2
330
1F
100
AcDbEntity
  8
0
  6
Continuous
 62
     7
370
    25
100
AcDbCircle
 10
145.288
 20
-111.76
 30
0.0
 40
1.5
  0
CIRCLE
  5
1E3
330
1F
100
AcDbEntity
  8
0
  6
Continuous
 62
     7
370
    25
100
AcDbCircle
 10
108.42625
 20
-109.855
 30
0.0
 40
0.4999999999999716
  0
CIRCLE
  5
1E7
330
1F
100
AcDbEntity
  8
0
  6
Continuous
 62
     7
370
    25
100
AcDbCircle
 10
121.412
 20
-111.76
 30
0.0
 40
1.499999999999972
  0
CIRCLE
  5
1E8
330
1F
100
AcDbEntity
  8
0
  6
Continuous
 62
     7
370
    25
100
AcDbCircle
 10
64.175
 20
-43.625
 30
0.0
 40
0.7250000000000085
  0
CIRCLE
  5
1F1
330
1F
100
AcDbEntity
  8
0
  6
Continuous
 62
     7
370
    25
100
AcDbCircle
 10
102.275
 20
-43.625
 30
0.0
 40
0.7250000000000085
  0
CIRCLE
  5
1F6
330
1F
100
AcDbEntity
  8
0
  6
Continuous
 62
     7
370
    25
100
AcDbCircle
 10
83.225
 20
-43.625
 30
0.0
 40
0.7250000000000085
  0
CIRCLE
  5
1F7
330
1F
100
AcDbEntity
  8
0
  6
Continuous
 62
     7
370
    25
100
AcDbCircle
 10
121.325
 20
-43.625
 30
0.0
 40
0.7250000000000085
  0
CIRCLE
  5
1FC
330
1F
100
AcDbEntity
  8
0
  6
Continuous
 62
     7
370
    25
100
AcDbCircle
 10
140.375
 20
-43.625
 30
0.0
 40
0.7249999999999943
  0
CIRCLE
  5
1FD
330
1F
100
AcDbEntity
  8
0
  6
Continuous
 62
     7
370
    25
100
AcDbCircle
 10
120.025
 20
-45.085
 30
0.0
 40
0.7250000000000085
  0
CIRCLE
  5
1FE
330
1F
100
AcDbEntity
  8
0
  6
Continuous
 62
     7
370
    25
100
AcDbCircle
 10
118.745
 20
-47.625
 30
0.0
 40
0.8500000000000085
  0
CIRCLE
  5
1FF
330
1F
100
AcDbEntity
  8
0
  6
Continuous
 62
     7
370
    25
100
AcDbCircle
 10
122.555
 20
-52.705
 30
0.0
 40
0.5
  0
CIRCLE
  5
200
330
1F
100
AcDbEntity
  8
0
  6
Continuous
 62
     7
370
    25
100
AcDbCircle
 10
123.825
 20
-47.625
 30
0.0
 40
1.999999999999986
  0
CIRCLE
  5
201
330
1F
100
AcDbEntity
  8
0
  6
Continuous
 62
     7
370
    25
100
AcDbCircle
 10
125.095
 20
-52.705
 30
0.0
 40
0.5
  0
CIRCLE
  5
202
330
1F
100
AcDbEntity
  8
0
  6
Continuous
 62
     7
370
    25
100
AcDbCircle
 10
128.905
 20
-47.625
 30
0.0
 40
0.8500000000000227
  0
CIRCLE
  5
203
330
1F
100
AcDbEntity
  8
0
  6
Continuous
 62
     7
370
    25
100
AcDbCircle
 10
100.975
 20
-45.085
 30
0.0
 40
0.7250000000000227
  0
CIRCLE
  5
204
330
1F
100
AcDbEntity
  8
0
  6
Continuous
 62
     7
370
    25
100
AcDbCircle
 10
103.505
 20
-52.705
 30
0.0
 40
0.5
  0
CIRCLE
  5
205
330
1F
100
AcDbEntity
  8
0
  6
Continuous
 62
     7
370
    25
100
AcDbCircle
 10
106.045
 20
-52.705
 30
0.0
 40
0.5
  0
CIRCLE
  5
206
330
1F
100
AcDbEntity
  8
0
  6
Continuous
 62
     7
370
    25
100
AcDbCircle
 10
104.775
 20
-47.625
 30
0.0
 40
2.0
  0
CIRCLE
  5
207
330
1F
100
AcDbEntity
  8
0
  6
Continuous
 62
     7
370
    25
100
AcDbCircle
 10
109.855
 20
-47.625
 30
0.0
 40
0.8499999999999943
  0
CIRCLE
  5
208
330
1F
100
AcDbEntity
  8
0
  6
Continuous
 62
     7
370
    25
100
AcDbCircle
 10
100.975
 20
-64.135
 30
0.0
 40
0.7249999999999943
  0
CIRCLE
  5
20C
330
1F
100
AcDbEntity
  8
0
  6
Continuous
 62
     7
370
    25
100
AcDbCircle
 10
99.695
 20
-47.625
 30
0.0
 40
0.8499999999999943
  0
CIRCLE
  5
20D
330
1F
100
AcDbEntity
  8
0
  6
Continuous
 62
     7
370
    25
100
AcDbCircle
 10
139.075
 20
-45.085
 30
0.0
 40
0.7249999999999943
  0
CIRCLE
  5
20E
330
1F
100
AcDbEntity
  8
0
  6
Continuous
 62
     7
370
    25
100
AcDbCircle
 10
137.795
 20
-47.625
 30
0.0
 40
0.8499999999999943
  0
CIRCLE
  5
213
330
1F
100
AcDbEntity
  8
0
  6
Continuous
 62
     7
370
    25
100
AcDbCircle
 10
111.8
 20
-62.675
 30
0.0
 40
0.7250000000000085
  0
CIRCLE
  5
214
330
1F
100
AcDbEntity
  8
0
  6
Continuous
 62
     7
370
    25
100
AcDbCircle
 10
130.85
 20
-62.675
 30
0.0
 40
0.7249999999999943
  0
CIRCLE
  5
215
330
1F
100
AcDbEntity
  8
0
  6
Continuous
 62
     7
370
    25
100
AcDbCircle
 10
114.3
 20
-66.675
 30
0.0
 40
2.000000000000028
  0
CIRCLE
  5
216
330
1F
100
AcDbEntity
  8
0
  6
Continuous
 62
     7
370
    25
100
AcDbCircle
 10
129.55
 20
-64.135
 30
0.0
 40
0.7249999999999943
  0
CIRCLE
  5
217
330
1F
100
AcDbEntity
  8
0
  6
Continuous
 62
     7
370
    25
100
AcDbCircle
 10
95.25
 20
-66.675
 30
0.0
 40
2.000000000000043
  0
CIRCLE
  5
218
330
1F
100
AcDbEntity
  8
0
  6
Continuous
 62
     7
370
    25
100
AcDbCircle
 10
91.45
 20
-64.135
 30
0.0
 40
0.7250000000000085
  0
CIRCLE
  5
219
330
1F
100
AcDbEntity
  8
0
  6
Continuous
 62
     7
370
    25
100
AcDbCircle
 10
85.725
 20
-47.625
 30
0.0
 40
1.999999999999986
  0
CIRCLE
  5
21A
330
1F
100
AcDbEntity
  8
0
  6
Continuous
 62
     7
370
    25
100
AcDbCircle
 10
90.805
 20
-47.625
 30
0.0
 40
0.8499999999999943
  0
CIRCLE
  5
21B
330
1F
100
AcDbEntity
  8
0
  6
Continuous
 62
     7
370
    25
100
AcDbCircle
 10
80.645
 20
-47.625
 30
0.0
 40
0.8500000000000085
  0
CIRCLE
  5
21C
330
1F
100
AcDbEntity
  8
0
  6
Continuous
 62
     7
370
    25
100
AcDbCircle
 10
81.925
 20
-45.085
 30
0.0
 40
0.7250000000000085
  0
CIRCLE
  5
21D
330
1F
100
AcDbEntity
  8
0
  6
Continuous
 62
     7
370
    25
100
AcDbCircle
 10
85.725
 20
-66.675
 30
0.0
 40
2.000000000000028
  0
CIRCLE
  5
21E
330
1F
100
AcDbEntity
  8
0
  6
Continuous
 62
     7
370
    25
100
AcDbCircle
 10
81.925
 20
-64.135
 30
0.0
 40
0.7250000000000085
  0
CIRCLE
  5
222
330
1F
100
AcDbEntity
  8
0
  6
Continuous
 62
     7
370
    25
100
AcDbCircle
 10
86.995
 20
-52.705
 30
0.0
 40
0.5
  0
CIRCLE
  5
223
330
1F
100
AcDbEntity
  8
0
  6
Continuous
 62
     7
370
    25
100
AcDbCircle
 10
84.455
 20
-52.705
 30
0.0
 40
0.5
  0
CIRCLE
  5
229
330
1F
100
AcDbEntity
  8
0
  6
Continuous
 62
     7
370
    25
100
AcDbCircle
 10
66.675
 20
-66.675
 30
0.0
 40
2.000000000000028
  0
CIRCLE
  5
22A
330
1F
100
AcDbEntity
  8
0
  6
Continuous
 62
     7
370
    25
100
AcDbCircle
 10
61.595
 20
-66.675
 30
0.0
 40
0.8500000000000085
  0
CIRCLE
  5
22B
330
1F
100
AcDbEntity
  8
0
  6
Continuous
 62
     7
370
    25
100
AcDbCircle
 10
62.875
 20
-64.135
 30
0.0
 40
0.7250000000000014
  0
CIRCLE
  5
22C
330
1F
100
AcDbEntity
  8
0
  6
Continuous
 62
     7
370
    25
100
AcDbCircle
 10
64.175
 20
-62.675
 30
0.0
 40
0.7250000000000085
  0
CIRCLE
  5
22D
330
1F
100
AcDbEntity
  8
0
  6
Continuous
 62
     7
370
    25
100
AcDbCircle
 10
76.2
 20
-66.675
 30
0.0
 40
2.000000000000028
  0
CIRCLE
  5
22E
330
1F
100
AcDbEntity
  8
0
  6
Continuous
 62
     7
370
    25
100
AcDbCircle
 10
72.4
 20
-64.135
 30
0.0
 40
0.7250000000000085
  0
CIRCLE
  5
22F
330
1F
100
AcDbEntity
  8
0
  6
Continuous
 62
     7
370
    25
100
AcDbCircle
 10
66.675
 20
-47.625
 30
0.0
 40
1.999999999999986
  0
CIRCLE
  5
230
330
1F
100
AcDbEntity
  8
0
  6
Continuous
 62
     7
370
    25
100
AcDbCircle
 10
67.945
 20
-52.705
 30
0.0
 40
0.5
  0
CIRCLE
  5
231
330
1F
100
AcDbEntity
  8
0
  6
Continuous
 62
     7
370
    25
100
AcDbCircle
 10
71.755
 20
-47.625
 30
0.0
 40
0.8499999999999943
  0
CIRCLE
  5
232
330
1F
100
AcDbEntity
  8
0
  6
Continuous
 62
     7
370
    25
100
AcDbCircle
 10
65.405
 20
-52.705
 30
0.0
 40
0.4999999999999858
  0
CIRCLE
  5
233
330
1F
100
AcDbEntity
  8
0
  6
Continuous
 62
     7
370
    25
100
AcDbCircle
 10
61.595
 20
-47.625
 30
0.0
 40
0.8500000000000014
  0
CIRCLE
  5
234
330
1F
100
AcDbEntity
  8
0
  6
Continuous
 62
     7
370
    25
100
AcDbCircle
 10
62.875
 20
-45.085
 30
0.0
 40
0.7250000000000085
  0
CIRCLE
  5
235
330
1F
100
AcDbEntity
  8
0
  6
Continuous
 62
     7
370
    25
100
AcDbCircle
 10
151.675
 20
-88.75
 30
0.0
 40
0.25
  0
CIRCLE
  5
236
330
1F
100
AcDbEntity
  8
0
  6
Continuous
 62
     7
370
    25
100
AcDbCircle
 10
151.60244
 20
-44.3549
 30
0.0
 40
0.3000000000000114
  0
CIRCLE
  5
237
330
1F
100
AcDbEntity
  8
0
  6
Continuous
 62
     7
370
    25
100
AcDbCircle
 10
153.19756
 20
-44.3549
 30
0.0
 40
0.3000000000000114
  0
CIRCLE
  5
238
330
1F
100
AcDbEntity
  8
0
  6
Continuous
 62
     7
370
    25
100
AcDbCircle
 10
152.945
 20
-88.75
 30
0.0
 40
0.25
  0
CIRCLE
  5
239
330
1F
100
AcDbEntity
  8
0
  6
Continuous
 62
     7
370
    25
100
AcDbCircle
 10
153.15
 20
-113.21
 30
0.0
 40
0.5
  0
CIRCLE
  5
23A
330
1F
100
AcDbEntity
  8
0
  6
Continuous
 62
     7
370
    25
100
AcDbCircle
 10
152.4
 20
-66.675
 30
0.0
 40
2.000000000000057
  0
CIRCLE
  5
23B
330
1F
100
AcDbEntity
  8
0
  6
Continuous
 62
     7
370
    25
100
AcDbCircle
 10
153.67
 20
-71.755
 30
0.0
 40
0.5
  0
CIRCLE
  5
23C
330
1F
100
AcDbEntity
  8
0
  6
Continuous
 62
     7
370
    25
100
AcDbCircle
 10
153.99766
 20
-45.55378
 30
0.0
 40
0.3000000000000114
  0
CIRCLE
  5
23D
330
1F
100
AcDbEntity
  8
0
  6
Continuous
 62
     7
370
    25
100
AcDbCircle
 10
152.4
 20
-57.15
 30
0.0
 40
1.099999999999994
  0
CIRCLE
  5
23E
330
1F
100
AcDbEntity
  8
0
  6
Continuous
 62
     7
370
    25
100
AcDbCircle
 10
152.4
 20
-45.55378
 30
0.0
 40
0.2999999999999829
  0
CIRCLE
  5
23F
330
1F
100
AcDbEntity
  8
0
  6
Continuous
 62
     7
370
    25
100
AcDbCircle
 10
154.215
 20
-88.75
 30
0.0
 40
0.25
  0
CIRCLE
  5
247
330
1F
100
AcDbEntity
  8
0
  6
Continuous
 62
     7
370
    25
100
AcDbCircle
 10
158.125
 20
-64.135
 30
0.0
 40
0.7249999999999943
  0
CIRCLE
  5
248
330
1F
100
AcDbEntity
  8
0
  6
Continuous
 62
     7
370
    25
100
AcDbCircle
 10
158.125
 20
-45.085
 30
0.0
 40
0.7249999999999943
  0
CIRCLE
  5
249
330
1F
100
AcDbEntity
  8
0
  6
Continuous
 62
     7
370
    25
100
AcDbCircle
 10
156.845
 20
-47.625
 30
0.0
 40
0.8499999999999659
  0
CIRCLE
  5
24E
330
1F
100
AcDbEntity
  8
0
  6
Continuous
 62
     7
370
    25
100
AcDbCircle
 10
155.29
 20
-41.91
 30
0.0
 40
0.3249999999999886
  0
CIRCLE
  5
24F
330
1F
100
AcDbEntity
  8
0
  6
Continuous
 62
     7
370
    25
100
AcDbCircle
 10
156.845
 20
-85.725
 30
0.0
 40
0.8499999999999659
  0
CIRCLE
  5
250
330
1F
100
AcDbEntity
  8
0
  6
Continuous
 62
     7
370
    25
100
AcDbCircle
 10
158.125
 20
-83.185
 30
0.0
 40
0.7250000000000227
  0
CIRCLE
  5
251
330
1F
100
AcDbEntity
  8
0
  6
Continuous
 62
     7
370
    25
100
AcDbCircle
 10
159.425
 20
-81.725
 30
0.0
 40
0.7249999999999943
  0
CIRCLE
  5
252
330
1F
100
AcDbEntity
  8
0
  6
Continuous
 62
     7
370
    25
100
AcDbCircle
 10
155.485
 20
-88.75
 30
0.0
 40
0.25
  0
CIRCLE
  5
253
330
1F
100
AcDbEntity
  8
0
  6
Continuous
 62
     7
370
    25
100
AcDbCircle
 10
155.69
 20
-113.21
 30
0.0
 40
0.5
  0
CIRCLE
  5
254
330
1F
100
AcDbEntity
  8
0
  6
Continuous
 62
     7
370
    25
100
AcDbCircle
 10
159.512
 20
-111.76
 30
0.0
 40
1.499999999999972
  0
CIRCLE
  5
255
330
1F
100
AcDbEntity
  8
0
  6
Continuous
 62
     7
370
    25
100
AcDbCircle
 10
159.425
 20
-62.675
 30
0.0
 40
0.7249999999999943
  0
CIRCLE
  5
25E
330
1F
100
AcDbEntity
  8
0
  6
Continuous
 62
     7
370
    25
100
AcDbCircle
 10
163.195
 20
-52.705
 30
0.0
 40
0.4999999999999716
  0
CIRCLE
  5
25F
330
1F
100
AcDbEntity
  8
0
  6
Continuous
 62
     7
370
    25
100
AcDbCircle
 10
160.655
 20
-52.705
 30
0.0
 40
0.5
  0
CIRCLE
  5
260
330
1F
100
AcDbEntity
  8
0
  6
Continuous
 62
     7
370
    25
100
AcDbCircle
 10
161.925
 20
-47.625
 30
0.0
 40
1.999999999999943
  0
CIRCLE
  5
261
330
1F
100
AcDbEntity
  8
0
  6
Continuous
 62
     7
370
    25
100
AcDbCircle
 10
159.425
 20
-43.625
 30
0.0
 40
0.7249999999999943
  0
CIRCLE
  5
262
330
1F
100
AcDbEntity
  8
0
  6
Continuous
 62
     7
370
    25
100
AcDbCircle
 10
161.925
 20
-85.725
 30
0.0
 40
2.0
  0
CIRCLE
  5
267
330
1F
100
AcDbEntity
  8
0
  6
Continuous
 62
     7
370
    25
100
AcDbCircle
 10
163.195
 20
-71.755
 30
0.0
 40
0.4999999999999716
  0
CIRCLE
  5
268
330
1F
100
AcDbEntity
  8
0
  6
Continuous
 62
     7
370
    25
100
AcDbCircle
 10
160.655
 20
-71.755
 30
0.0
 40
0.5
  0
CIRCLE
  5
269
330
1F
100
AcDbEntity
  8
0
  6
Continuous
 62
     7
370
    25
100
AcDbCircle
 10
161.925
 20
-66.675
 30
0.0
 40
1.999999999999915
  0
CIRCLE
  5
26A
330
1F
100
AcDbEntity
  8
0
  6
Continuous
 62
     7
370
    25
100
AcDbCircle
 10
210.82
 20
-71.755
 30
0.0
 40
0.5
  0
CIRCLE
  5
26B
330
1F
100
AcDbEntity
  8
0
  6
Continuous
 62
     7
370
    25
100
AcDbCircle
 10
197.525
 20
-43.625
 30
0.0
 40
0.7249999999999943
  0
CIRCLE
  5
274
330
1F
100
AcDbEntity
  8
0
  6
Continuous
 62
     7
370
    25
100
AcDbCircle
 10
198.755
 20
-90.805
 30
0.0
 40
0.5000000000000284
  0
CIRCLE
  5
275
330
1F
100
AcDbEntity
  8
0
  6
Continuous
 62
     7
370
    25
100
AcDbCircle
 10
196.225
 20
-83.185
 30
0.0
 40
0.7249999999999659
  0
CIRCLE
  5
276
330
1F
100
AcDbEntity
  8
0
  6
Continuous
 62
     7
370
    25
100
AcDbCircle
 10
200.025
 20
-85.725
 30
0.0
 40
2.000000000000028
  0
CIRCLE
  5
277
330
1F
100
AcDbEntity
  8
0
  6
Continuous
 62
     7
370
    25
100
AcDbCircle
 10
201.295
 20
-109.855
 30
0.0
 40
0.4999999999999716
  0
CIRCLE
  5
278
330
1F
100
AcDbEntity
  8
0
  6
Continuous
 62
     7
370
    25
100
AcDbCircle
 10
197.525
 20
-100.775
 30
0.0
 40
0.7250000000000227
  0
CIRCLE
  5
27C
330
1F
100
AcDbEntity
  8
0
  6
Continuous
 62
     7
370
    25
100
AcDbCircle
 10
207.05
 20
-62.675
 30
0.0
 40
0.7249999999999943
  0
CIRCLE
  5
27D
330
1F
100
AcDbEntity
  8
0
  6
Continuous
 62
     7
370
    25
100
AcDbCircle
 10
196.225
 20
-64.135
 30
0.0
 40
0.7249999999999943
  0
CIRCLE
  5
27E
330
1F
100
AcDbEntity
  8
0
  6
Continuous
 62
     7
370
    25
100
AcDbCircle
 10
197.525
 20
-62.675
 30
0.0
 40
0.7249999999999943
  0
CIRCLE
  5
27F
330
1F
100
AcDbEntity
  8
0
  6
Continuous
 62
     7
370
    25
100
AcDbCircle
 10
198.755
 20
-71.755
 30
0.0
 40
0.5
  0
CIRCLE
  5
280
330
1F
100
AcDbEntity
  8
0
  6
Continuous
 62
     7
370
    25
100
AcDbCircle
 10
201.295
 20
-71.755
 30
0.0
 40
0.4999999999999716
  0
CIRCLE
  5
281
330
1F
100
AcDbEntity
  8
0
  6
Continuous
 62
     7
370
    25
100
AcDbCircle
 10
200.025
 20
-66.675
 30
0.0
 40
2.000000000000057
  0
CIRCLE
  5
285
330
1F
100
AcDbEntity
  8
0
  6
Continuous
 62
     7
370
    25
100
AcDbCircle
 10
208.28
 20
-71.755
 30
0.0
 40
0.5
  0
CIRCLE
  5
286
330
1F
100
AcDbEntity
  8
0
  6
Continuous
 62
     7
370
    25
100
AcDbCircle
 10
196.225
 20
-45.085
 30
0.0
 40
0.7249999999999943
  0
CIRCLE
  5
287
330
1F
100
AcDbEntity
  8
0
  6
Continuous
 62
     7
370
    25
100
AcDbCircle
 10
205.105
 20
-47.625
 30
0.0
 40
0.8499999999999943
  0
CIRCLE
  5
288
330
1F
100
AcDbEntity
  8
0
  6
Continuous
 62
     7
370
    25
100
AcDbCircle
 10
198.755
 20
-52.705
 30
0.0
 40
0.5
  0
CIRCLE
  5
289
330
1F
100
AcDbEntity
  8
0
  6
Continuous
 62
     7
370
    25
100
AcDbCircle
 10
201.295
 20
-52.705
 30
0.0
 40
0.5000000000000284
  0
CIRCLE
  5
28A
330
1F
100
AcDbEntity
  8
0
  6
Continuous
 62
     7
370
    25
100
AcDbCircle
 10
200.025
 20
-47.625
 30
0.0
 40
2.000000000000028
  0
CIRCLE
  5
28B
330
1F
100
AcDbEntity
  8
0
  6
Continuous
 62
     7
370
    25
100
AcDbCircle
 10
217.805
 20
-109.855
 30
0.0
 40
0.4999999999999716
  0
CIRCLE
  5
28C
330
1F
100
AcDbEntity
  8
0
  6
Continuous
 62
     7
370
    25
100
AcDbCircle
 10
220.345
 20
-109.855
 30
0.0
 40
0.5
  0
CIRCLE
  5
28D
330
1F
100
AcDbEntity
  8
0
  6
Continuous
 62
     7
370
    25
100
AcDbCircle
 10
233.045
 20
-104.775
 30
0.0
 40
0.8499999999999943
  0
CIRCLE
  5
28E
330
1F
100
AcDbEntity
  8
0
  6
Continuous
 62
     7
370
    25
100
AcDbCircle
 10
234.325
 20
-102.235
 30
0.0
 40
0.7250000000000512
  0
CIRCLE
  5
28F
330
1F
100
AcDbEntity
  8
0
  6
Continuous
 62
     7
370
    25
100
AcDbCircle
 10
224.155
 20
-104.775
 30
0.0
 40
0.8500000000000227
  0
CIRCLE
  5
290
330
1F
100
AcDbEntity
  8
0
  6
Continuous
 62
     7
370
    25
100
AcDbCircle
 10
235.625
 20
-100.775
 30
0.0
 40
0.7249999999999943
  0
CIRCLE
  5
295
330
1F
100
AcDbEntity
  8
0
  6
Continuous
 62
     7
370
    25
100
AcDbCircle
 10
238.125
 20
-104.775
 30
0.0
 40
2.0
  0
CIRCLE
  5
296
330
1F
100
AcDbEntity
  8
0
  6
Continuous
 62
     7
370
    25
100
AcDbCircle
 10
239.395
 20
-109.855
 30
0.0
 40
0.5
  0
CIRCLE
  5
297
330
1F
100
AcDbEntity
  8
0
  6
Continuous
 62
     7
370
    25
100
AcDbCircle
 10
236.855
 20
-109.855
 30
0.0
 40
0.5
  0
CIRCLE
  5
298
330
1F
100
AcDbEntity
  8
0
  6
Continuous
 62
     7
370
    25
100
AcDbCircle
 10
236.855
 20
-90.805
 30
0.0
 40
0.5
  0
CIRCLE
  5
299
330
1F
100
AcDbEntity
  8
0
  6
Continuous
 62
     7
370
    25
100
AcDbCircle
 10
239.395
 20
-90.805
 30
0.0
 40
0.5000000000000284
  0
CIRCLE
  5
29A
330
1F
100
AcDbEntity
  8
0
  6
Continuous
 62
     7
370
    25
100
AcDbCircle
 10
229.87
 20
-71.755
 30
0.0
 40
0.5
  0
CIRCLE
  5
29B
330
1F
100
AcDbEntity
  8
0
  6
Continuous
 62
     7
370
    25
100
AcDbCircle
 10
236.855
 20
-71.755
 30
0.0
 40
0.5
  0
CIRCLE
  5
29C
330
1F
100
AcDbEntity
  8
0
  6
Continuous
 62
     7
370
    25
100
AcDbCircle
 10
239.395
 20
-71.755
 30
0.0
 40
0.5
  0
CIRCLE
  5
29D
330
1F
100
AcDbEntity
  8
0
  6
Continuous
 62
     7
370
    25
100
AcDbCircle
 10
235.625
 20
-62.675
 30
0.0
 40
0.7249999999999943
  0
CIRCLE
  5
2A2
330
1F
100
AcDbEntity
  8
0
  6
Continuous
 62
     7
370
    25
100
AcDbCircle
 10
238.125
 20
-66.675
 30
0.0
 40
2.0
  0
CIRCLE
  5
2A3
330
1F
100
AcDbEntity
  8
0
  6
Continuous
 62
     7
370
    25
100
AcDbCircle
 10
228.6
 20
-66.675
 30
0.0
 40
2.000000000000057
  0
CIRCLE
  5
2A4
330
1F
100
AcDbEntity
  8
0
  6
Continuous
 62
     7
370
    25
100
AcDbCircle
 10
234.325
 20
-64.135
 30
0.0
 40
0.7249999999999943
  0
CIRCLE
  5
2AC
330
1F
100
AcDbEntity
  8
0
  6
Continuous
 62
     7
370
    25
100
AcDbCircle
 10
233.045
 20
-85.725
 30
0.0
 40
0.8499999999999943
  0
CIRCLE
  5
2AD
330
1F
100
AcDbEntity
  8
0
  6
Continuous
 62
     7
370
    25
100
AcDbCircle
 10
235.625
 20
-81.725
 30
0.0
 40
0.7249999999999943
  0
CIRCLE
  5
2B2
330
1F
100
AcDbEntity
  8
0
  6
Continuous
 62
     7
370
    25
100
AcDbCircle
 10
234.325
 20
-83.185
 30
0.0
 40
0.7250000000000512
  0
CIRCLE
  5
2B3
330
1F
100
AcDbEntity
  8
0
  6
Continuous
 62
     7
370
    25
100
AcDbCircle
 10
238.125
 20
-85.725
 30
0.0
 40
1.999999999999972
  0
CIRCLE
  5
2B4
330
1F
100
AcDbEntity
  8
0
  6
Continuous
 62
     7
370
    25
100
AcDbCircle
 10
227.33
 20
-71.755
 30
0.0
 40
0.5
  0
CIRCLE
  5
2B5
330
1F
100
AcDbEntity
  8
0
  6
Continuous
 62
     7
370
    25
100
AcDbCircle
 10
220.345
 20
-71.755
 30
0.0
 40
0.5
  0
CIRCLE
  5
2B6
330
1F
100
AcDbEntity
  8
0
  6
Continuous
 62
     7
370
    25
100
AcDbCircle
 10
217.805
 20
-71.755
 30
0.0
 40
0.4999999999999716
  0
CIRCLE
  5
2BA
330
1F
100
AcDbEntity
  8
0
  6
Continuous
 62
     7
370
    25
100
AcDbCircle
 10
219.075
 20
-66.675
 30
0.0
 40
2.000000000000028
  0
CIRCLE
  5
2BB
330
1F
100
AcDbEntity
  8
0
  6
Continuous
 62
     7
370
    25
100
AcDbCircle
 10
215.275
 20
-64.135
 30
0.0
 40
0.7249999999999943
  0
CIRCLE
  5
2C0
330
1F
100
AcDbEntity
  8
0
  6
Continuous
 62
     7
370
    25
100
AcDbCircle
 10
216.575
 20
-62.675
 30
0.0
 40
0.7250000000000227
  0
CIRCLE
  5
2C4
330
1F
100
AcDbEntity
  8
0
  6
Continuous
 62
     7
370
    25
100
AcDbCircle
 10
224.8
 20
-64.135
 30
0.0
 40
0.7249999999999659
  0
CIRCLE
  5
2C5
330
1F
100
AcDbEntity
  8
0
  6
Continuous
 62
     7
370
    25
100
AcDbCircle
 10
226.1
 20
-62.675
 30
0.0
 40
0.7249999999999943
  0
CIRCLE
  5
2C6
330
1F
100
AcDbEntity
  8
0
  6
Continuous
 62
     7
370
    25
100
AcDbCircle
 10
219.075
 20
-85.725
 30
0.0
 40
1.999999999999943
  0
CIRCLE
  5
2C7
330
1F
100
AcDbEntity
  8
0
  6
Continuous
 62
     7
370
    25
100
AcDbCircle
 10
215.275
 20
-83.185
 30
0.0
 40
0.7250000000000227
  0
CIRCLE
  5
2CC
330
1F
100
AcDbEntity
  8
0
  6
Continuous
 62
     7
370
    25
100
AcDbCircle
 10
216.575
 20
-81.725
 30
0.0
 40
0.7249999999999659
  0
CIRCLE
  5
2CD
330
1F
100
AcDbEntity
  8
0
  6
Continuous
 62
     7
370
    25
100
AcDbCircle
 10
224.155
 20
-85.725
 30
0.0
 40
0.8500000000000227
  0
CIRCLE
  5
2CE
330
1F
100
AcDbEntity
  8
0
  6
Continuous
 62
     7
370
    25
100
AcDbCircle
 10
213.995
 20
-85.725
 30
0.0
 40
0.8499999999999943
  0
CIRCLE
  5
2CF
330
1F
100
AcDbEntity
  8
0
  6
Continuous
 62
     7
370
    25
100
AcDbCircle
 10
220.345
 20
-90.805
 30
0.0
 40
0.5
  0
CIRCLE
  5
2D0
330
1F
100
AcDbEntity
  8
0
  6
Continuous
 62
     7
370
    25
100
AcDbCircle
 10
236.855
 20
-52.705
 30
0.0
 40
0.5
  0
CIRCLE
  5
2D1
330
1F
100
AcDbEntity
  8
0
  6
Continuous
 62
     7
370
    25
100
AcDbCircle
 10
239.395
 20
-52.705
 30
0.0
 40
0.5000000000000284
  0
CIRCLE
  5
2D2
330
1F
100
AcDbEntity
  8
0
  6
Continuous
 62
     7
370
    25
100
AcDbCircle
 10
224.155
 20
-47.625
 30
0.0
 40
0.8500000000000227
  0
CIRCLE
  5
2D3
330
1F
100
AcDbEntity
  8
0
  6
Continuous
 62
     7
370
    25
100
AcDbCircle
 10
233.045
 20
-47.625
 30
0.0
 40
0.8499999999999943
  0
CIRCLE
  5
2D4
330
1F
100
AcDbEntity
  8
0
  6
Continuous
 62
     7
370
    25
100
AcDbCircle
 10
213.995
 20
-47.625
 30
0.0
 40
0.8499999999999943
  0
CIRCLE
  5
2D5
330
1F
100
AcDbEntity
  8
0
  6
Continuous
 62
     7
370
    25
100
AcDbCircle
 10
219.075
 20
-47.625
 30
0.0
 40
1.999999999999943
  0
CIRCLE
  5
2D6
330
1F
100
AcDbEntity
  8
0
  6
Continuous
 62
     7
370
    25
100
AcDbCircle
 10
217.805
 20
-52.705
 30
0.0
 40
0.5000000000000284
  0
CIRCLE
  5
2D7
330
1F
100
AcDbEntity
  8
0
  6
Continuous
 62
     7
370
    25
100
AcDbCircle
 10
220.345
 20
-52.705
 30
0.0
 40
0.5
  0
CIRCLE
  5
2DC
330
1F
100
AcDbEntity
  8
0
  6
Continuous
 62
     7
370
    25
100
AcDbCircle
 10
216.575
 20
-43.625
 30
0.0
 40
0.7250000000000227
  0
CIRCLE
  5
2DD
330
1F
100
AcDbEntity
  8
0
  6
Continuous
 62
     7
370
    25
100
AcDbCircle
 10
215.275
 20
-45.085
 30
0.0
 40
0.7250000000000227
  0
CIRCLE
  5
2DE
330
1F
100
AcDbEntity
  8
0
  6
Continuous
 62
     7
370
    25
100
AcDbCircle
 10
234.325
 20
-45.085
 30
0.0
 40
0.7249999999999943
  0
CIRCLE
  5
2DF
330
1F
100
AcDbEntity
  8
0
  6
Continuous
 62
     7
370
    25
100
AcDbCircle
 10
238.125
 20
-47.625
 30
0.0
 40
1.999999999999972
  0
CIRCLE
  5
2E0
330
1F
100
AcDbEntity
  8
0
  6
Continuous
 62
     7
370
    25
100
AcDbCircle
 10
235.625
 20
-43.625
 30
0.0
 40
0.7249999999999943
  0
CIRCLE
  5
2E5
330
1F
100
AcDbEntity
  8
0
  6
Continuous
 62
     7
370
    25
100
AcDbCircle
 10
180.975
 20
-47.625
 30
0.0
 40
2.0
  0
CIRCLE
  5
2E6
330
1F
100
AcDbEntity
  8
0
  6
Continuous
 62
     7
370
    25
100
AcDbCircle
 10
177.175
 20
-45.085
 30
0.0
 40
0.7250000000000227
  0
CIRCLE
  5
2E7
330
1F
100
AcDbEntity
  8
0
  6
Continuous
 62
     7
370
    25
100
AcDbCircle
 10
178.475
 20
-43.625
 30
0.0
 40
0.7249999999999943
  0
CIRCLE
  5
2EC
330
1F
100
AcDbEntity
  8
0
  6
Continuous
 62
     7
370
    25
100
AcDbCircle
 10
167.005
 20
-47.625
 30
0.0
 40
0.8500000000000227
  0
CIRCLE
  5
2ED
330
1F
100
AcDbEntity
  8
0
  6
Continuous
 62
     7
370
    25
100
AcDbCircle
 10
182.245
 20
-52.705
 30
0.0
 40
0.5
  0
CIRCLE
  5
2EE
330
1F
100
AcDbEntity
  8
0
  6
Continuous
 62
     7
370
    25
100
AcDbCircle
 10
179.705
 20
-52.705
 30
0.0
 40
0.5
  0
CIRCLE
  5
2EF
330
1F
100
AcDbEntity
  8
0
  6
Continuous
 62
     7
370
    25
100
AcDbCircle
 10
175.895
 20
-47.625
 30
0.0
 40
0.8500000000000227
  0
CIRCLE
  5
2F0
330
1F
100
AcDbEntity
  8
0
  6
Continuous
 62
     7
370
    25
100
AcDbCircle
 10
194.945
 20
-47.625
 30
0.0
 40
0.8499999999999659
  0
CIRCLE
  5
2F1
330
1F
100
AcDbEntity
  8
0
  6
Continuous
 62
     7
370
    25
100
AcDbCircle
 10
186.055
 20
-47.625
 30
0.0
 40
0.8499999999999659
  0
CIRCLE
  5
2F2
330
1F
100
AcDbEntity
  8
0
  6
Continuous
 62
     7
370
    25
100
AcDbCircle
 10
167.65
 20
-64.135
 30
0.0
 40
0.7249999999999943
  0
CIRCLE
  5
2F3
330
1F
100
AcDbEntity
  8
0
  6
Continuous
 62
     7
370
    25
100
AcDbCircle
 10
168.95
 20
-62.675
 30
0.0
 40
0.7249999999999943
  0
CIRCLE
  5
2FC
330
1F
100
AcDbEntity
  8
0
  6
Continuous
 62
     7
370
    25
100
AcDbCircle
 10
180.975
 20
-66.675
 30
0.0
 40
2.000000000000057
  0
CIRCLE
  5
2FD
330
1F
100
AcDbEntity
  8
0
  6
Continuous
 62
     7
370
    25
100
AcDbCircle
 10
177.175
 20
-64.135
 30
0.0
 40
0.7249999999999659
  0
CIRCLE
  5
2FE
330
1F
100
AcDbEntity
  8
0
  6
Continuous
 62
     7
370
    25
100
AcDbCircle
 10
178.475
 20
-62.675
 30
0.0
 40
0.7249999999999943
  0
CIRCLE
  5
302
330
1F
100
AcDbEntity
  8
0
  6
Continuous
 62
     7
370
    25
100
AcDbCircle
 10
190.5
 20
-66.675
 30
0.0
 40
2.0
  0
CIRCLE
  5
303
330
1F
100
AcDbEntity
  8
0
  6
Continuous
 62
     7
370
    25
100
AcDbCircle
 10
186.7
 20
-64.135
 30
0.0
 40
0.7249999999999943
  0
CIRCLE
  5
308
330
1F
100
AcDbEntity
  8
0
  6
Continuous
 62
     7
370
    25
100
AcDbCircle
 10
188.0
 20
-62.675
 30
0.0
 40
0.7249999999999943
  0
CIRCLE
  5
309
330
1F
100
AcDbEntity
  8
0
  6
Continuous
 62
     7
370
    25
100
AcDbCircle
 10
209.55
 20
-66.675
 30
0.0
 40
2.000000000000057
  0
CIRCLE
  5
312
330
1F
100
AcDbEntity
  8
0
  6
Continuous
 62
     7
370
    25
100
AcDbCircle
 10
170.18
 20
-71.755
 30
0.0
 40
0.4999999999999716
  0
CIRCLE
  5
313
330
1F
100
AcDbEntity
  8
0
  6
Continuous
 62
     7
370
    25
100
AcDbCircle
 10
171.45
 20
-66.675
 30
0.0
 40
2.000000000000028
  0
CIRCLE
  5
318
330
1F
100
AcDbEntity
  8
0
  6
Continuous
 62
     7
370
    25
100
AcDbCircle
 10
177.175
 20
-83.185
 30
0.0
 40
0.7250000000000227
  0
CIRCLE
  5
319
330
1F
100
AcDbEntity
  8
0
  6
Continuous
 62
     7
370
    25
100
AcDbCircle
 10
179.705
 20
-71.755
 30
0.0
 40
0.5
  0
CIRCLE
  5
323
330
1F
100
AcDbEntity
  8
0
  6
Continuous
 62
     7
370
    25
100
AcDbCircle
 10
196.225
 20
-102.235
 30
0.0
 40
0.7249999999999659
  0
CIRCLE
  5
327
330
1F
100
AcDbEntity
  8
0
  6
Continuous
 62
     7
370
    25
100
AcDbCircle
 10
205.105
 20
-85.725
 30
0.0
 40
0.8499999999999943
  0
CIRCLE
  5
328
330
1F
100
AcDbEntity
  8
0
  6
Continuous
 62
     7
370
    25
100
AcDbCircle
 10
197.525
 20
-81.725
 30
0.0
 40
0.7249999999999943
  0
CIRCLE
  5
329
330
1F
100
AcDbEntity
  8
0
  6
Continuous
 62
     7
370
    25
100
AcDbCircle
 10
205.75
 20
-64.135
 30
0.0
 40
0.7249999999999943
  0
CIRCLE
  5
32D
330
1F
100
AcDbEntity
  8
0
  6
Continuous
 62
     7
370
    25
100
AcDbCircle
 10
196.37375
 20
-109.855
 30
0.0
 40
0.4999999999999716
  0
CIRCLE
  5
32E
330
1F
100
AcDbEntity
  8
0
  6
Continuous
 62
     7
370
    25
100
AcDbCircle
 10
192.56375
 20
-104.775
 30
0.0
 40
0.8499999999999943
  0
CIRCLE
  5
32F
330
1F
100
AcDbEntity
  8
0
  6
Continuous
 62
     7
370
    25
100
AcDbCircle
 10
189.23
 20
-71.755
 30
0.0
 40
0.5
  0
CIRCLE
  5
330
330
1F
100
AcDbEntity
  8
0
  6
Continuous
 62
     7
370
    25
100
AcDbCircle
 10
191.77
 20
-71.755
 30
0.0
 40
0.5000000000000284
  0
CIRCLE
  5
331
330
1F
100
AcDbEntity
  8
0
  6
Continuous
 62
     7
370
    25
100
AcDbCircle
 10
183.388
 20
-96.52
 30
0.0
 40
2.000000000000057
  0
CIRCLE
  5
332
330
1F
100
AcDbEntity
  8
0
  6
Continuous
 62
     7
370
    25
100
AcDbCircle
 10
180.975
 20
-85.725
 30
0.0
 40
2.0
  0
CIRCLE
  5
333
330
1F
100
AcDbEntity
  8
0
  6
Continuous
 62
     7
370
    25
100
AcDbCircle
 10
186.055
 20
-85.725
 30
0.0
 40
0.8499999999999659
  0
CIRCLE
  5
334
330
1F
100
AcDbEntity
  8
0
  6
Continuous
 62
     7
370
    25
100
AcDbCircle
 10
194.945
 20
-85.725
 30
0.0
 40
0.8499999999999659
  0
CIRCLE
  5
335
330
1F
100
AcDbEntity
  8
0
  6
Continuous
 62
     7
370
    25
100
AcDbCircle
 10
195.14375
 20
-100.775
 30
0.0
 40
0.7249999999999659
  0
CIRCLE
  5
336
330
1F
100
AcDbEntity
  8
0
  6
Continuous
 62
     7
370
    25
100
AcDbCircle
 10
193.84375
 20
-102.235
 30
0.0
 40
0.7250000000000227
  0
CIRCLE
  5
33A
330
1F
100
AcDbEntity
  8
0
  6
Continuous
 62
     7
370
    25
100
AcDbCircle
 10
167.79875
 20
-109.855
 30
0.0
 40
0.4999999999999716
  0
CIRCLE
  5
33B
330
1F
100
AcDbEntity
  8
0
  6
Continuous
 62
     7
370
    25
100
AcDbCircle
 10
172.72
 20
-109.855
 30
0.0
 40
0.4999999999999716
  0
CIRCLE
  5
33C
330
1F
100
AcDbEntity
  8
0
  6
Continuous
 62
     7
370
    25
100
AcDbCircle
 10
183.388
 20
-111.76
 30
0.0
 40
1.5
  0
CIRCLE
  5
33D
330
1F
100
AcDbEntity
  8
0
  6
Continuous
 62
     7
370
    25
100
AcDbCircle
 10
176.53
 20
-104.775
 30
0.0
 40
0.8500000000000227
  0
CIRCLE
  5
33E
330
1F
100
AcDbEntity
  8
0
  6
Continuous
 62
     7
370
    25
100
AcDbCircle
 10
178.475
 20
-81.725
 30
0.0
 40
0.7249999999999943
  0
CIRCLE
  5
33F
330
1F
100
AcDbEntity
  8
0
  6
Continuous
 62
     7
370
    25
100
AcDbCircle
 10
175.895
 20
-85.725
 30
0.0
 40
0.8500000000000227
  0
CIRCLE
  5
340
330
1F
100
AcDbEntity
  8
0
  6
Continuous
 62
     7
370
    25
100
AcDbCircle
 10
167.005
 20
-85.725
 30
0.0
 40
0.8500000000000227
  0
CIRCLE
  5
341
330
1F
100
AcDbEntity
  8
0
  6
Continuous
 62
     7
370
    25
100
AcDbCircle
 10
172.72
 20
-71.755
 30
0.0
 40
0.4999999999999716
  0
CIRCLE
  5
342
330
1F
100
AcDbEntity
  8
0
  6
Continuous
 62
     7
370
    25
100
AcDbCircle
 10
182.245
 20
-71.755
 30
0.0
 40
0.5
  0
CIRCLE
  5
34C
330
1F
100
AcDbEntity
  8
0
  6
Continuous
 62
     7
370
    25
100
AcDbCircle
 10
182.245
 20
-90.805
 30
0.0
 40
0.5000000000000284
  0
CIRCLE
  5
34D
330
1F
100
AcDbEntity
  8
0
  6
Continuous
 62
     7
370
    25
100
AcDbCircle
 10
179.705
 20
-90.805
 30
0.0
 40
0.5
  0
CIRCLE
  5
34E
330
1F
100
AcDbEntity
  8
0
  6
Continuous
 62
     7
370
    25
100
AcDbCircle
 10
217.805
 20
-90.805
 30
0.0
 40
0.5000000000000284
  0
CIRCLE
  5
357
330
1F
100
AcDbEntity
  8
0
  6
Continuous
 62
     7
370
    25
100
AcDbCircle
 10
201.295
 20
-90.805
 30
0.0
 40
0.5000000000000284
  0
CIRCLE
  5
358
330
1F
100
AcDbEntity
  8
0
  6
Continuous
 62
     7
370
    25
100
AcDbCircle
 10
219.075
 20
-104.775
 30
0.0
 40
2.000000000000028
  0
CIRCLE
  5
35D
330
1F
100
AcDbEntity
  8
0
  6
Continuous
 62
     7
370
    25
100
AcDbCircle
 10
216.575
 20
-100.775
 30
0.0
 40
0.7250000000000227
  0
CIRCLE
  5
35E
330
1F
100
AcDbEntity
  8
0
  6
Continuous
 62
     7
370
    25
100
AcDbCircle
 10
205.105
 20
-104.775
 30
0.0
 40
0.8499999999999943
  0
CIRCLE
  5
35F
330
1F
100
AcDbEntity
  8
0
  6
Continuous
 62
     7
370
    25
100
AcDbCircle
 10
215.275
 20
-102.235
 30
0.0
 40
0.7250000000000227
  0
CIRCLE
  5
360
330
1F
100
AcDbEntity
  8
0
  6
Continuous
 62
     7
370
    25
100
AcDbCircle
 10
213.995
 20
-104.775
 30
0.0
 40
0.8499999999999943
  0
CIRCLE
  5
369
330
1F
100
AcDbEntity
  8
0
  6
Continuous
 62
     7
370
    25
100
AcDbCircle
 10
166.56875
 20
-100.775
 30
0.0
 40
0.7250000000000512
  0
CIRCLE
  5
36A
330
1F
100
AcDbEntity
  8
0
  6
Continuous
 62
     7
370
    25
100
AcDbCircle
 10
168.95
 20
-100.775
 30
0.0
 40
0.7249999999999943
  0
CIRCLE
  5
372
330
1F
100
AcDbEntity
  8
0
  6
Continuous
 62
     7
370
    25
100
AcDbCircle
 10
167.65
 20
-102.235
 30
0.0
 40
0.7250000000000227
  0
CIRCLE
  5
373
330
1F
100
AcDbEntity
  8
0
  6
Continuous
 62
     7
370
    25
100
AcDbCircle
 10
65.405
 20
-90.805
 30
0.0
 40
0.5000000000000142
  0
CIRCLE
  5
374
330
1F
100
AcDbEntity
  8
0
  6
Continuous
 62
     7
370
    25
100
AcDbCircle
 10
121.41
 20
-96.52
 30
0.0
 40
2.000000000000043
  0
CIRCLE
  5
375
330
1F
100
AcDbEntity
  8
0
  6
Continuous
 62
     7
370
    25
100
AcDbCircle
 10
159.512
 20
-96.52
 30
0.0
 40
2.0
  0
CIRCLE
  5
376
330
1F
100
AcDbEntity
  8
0
  6
Continuous
 62
     7
370
    25
100
AcDbCircle
 10
152.4
 20
-95.25
 30
0.0
 40
1.099999999999994
  0
CIRCLE
  5
377
330
1F
100
AcDbEntity
  8
0
  6
Continuous
 62
     7
370
    25
100
AcDbCircle
 10
145.288
 20
-96.52
 30
0.0
 40
2.0
  0
CIRCLE
  5
378
330
1F
100
AcDbEntity
  8
0
  6
Continuous
 62
     7
370
    25
100
AcDbCircle
 10
160.655
 20
-90.805
 30
0.0
 40
0.5000000000000284
  0
CIRCLE
  5
379
330
1F
100
AcDbEntity
  8
0
  6
Continuous
 62
     7
370
    25
100
AcDbCircle
 10
163.195
 20
-90.805
 30
0.0
 40
0.5000000000000284
  0
CIRCLE
  5
37A
330
1F
100
AcDbEntity
  8
0
  6
Continuous
 62
     7
370
    25
100
AcDbCircle
 10
125.095
 20
-90.805
 30
0.0
 40
0.5
  0
CIRCLE
  5
37B
330
1F
100
AcDbEntity
  8
0
  6
Continuous
 62
     7
370
    25
100
AcDbCircle
 10
122.555
 20
-90.805
 30
0.0
 40
0.5
  0
CIRCLE
  5
37C
330
1F
100
AcDbEntity
  8
0
  6
Continuous
 62
     7
370
    25
100
AcDbCircle
 10
141.605
 20
-90.805
 30
0.0
 40
0.5000000000000284
  0
CIRCLE
  5
37D
330
1F
100
AcDbEntity
  8
0
  6
Continuous
 62
     7
370
    25
100
AcDbCircle
 10
144.145
 20
-90.805
 30
0.0
 40
0.5000000000000284
  0
CIRCLE
  5
37E
330
1F
100
AcDbEntity
  8
0
  6
Continuous
 62
     7
370
    25
100
AcDbCircle
 10
86.995
 20
-90.805
 30
0.0
 40
0.5
  0
CIRCLE
  5
37F
330
1F
100
AcDbEntity
  8
0
  6
Continuous
 62
     7
370
    25
100
AcDbCircle
 10
84.455
 20
-90.805
 30
0.0
 40
0.5
  0
CIRCLE
  5
380
330
1F
100
AcDbEntity
  8
0
  6
Continuous
 62
     7
370
    25
100
AcDbCircle
 10
67.945
 20
-90.805
 30
0.0
 40
0.5
  0
CIRCLE
  5
381
330
1F
100
AcDbEntity
  8
0
  6
Continuous
 62
     7
370
    25
100
AcDbCircle
 10
103.505
 20
-90.805
 30
0.0
 40
0.5
  0
CIRCLE
  5
382
330
1F
100
AcDbEntity
  8
0
  6
Continuous
 62
     7
370
    25
100
AcDbCircle
 10
106.045
 20
-90.805
 30
0.0
 40
0.5
  0
CIRCLE
  5
383
330
1F
100
AcDbEntity
  8
0
  6
Continuous
 62
     7
370
    25
100
AcDbCircle
 10
83.225
 20
-100.775
 30
0.0
 40
0.7250000000000227
  0
CIRCLE
  5
38C
330
1F
100
AcDbEntity
  8
0
  6
Continuous
 62
     7
370
    25
100
AcDbCircle
 10
64.175
 20
-100.775
 30
0.0
 40
0.7250000000000085
  0
CIRCLE
  5
38D
330
1F
100
AcDbEntity
  8
0
  6
Continuous
 62
     7
370
    25
100
AcDbCircle
 10
104.65625
 20
-100.775
 30
0.0
 40
0.7250000000000085
  0
CIRCLE
  5
38E
330
1F
100
AcDbEntity
  8
0
  6
Continuous
 62
     7
370
    25
100
AcDbCircle
 10
102.275
 20
-100.775
 30
0.0
 40
0.7250000000000227
  0
CIRCLE
  5
38F
330
1F
100
AcDbEntity
  8
0
  6
Continuous
 62
     7
370
    25
100
AcDbCircle
 10
133.23125
 20
-100.775
 30
0.0
 40
0.7250000000000512
  0
CIRCLE
  5
3A0
330
1F
100
AcDbEntity
  8
0
  6
Continuous
 62
     7
370
    25
100
AcDbCircle
 10
130.85
 20
-100.775
 30
0.0
 40
0.7249999999999943
  0
CIRCLE
  5
3A1
330
1F
100
AcDbEntity
  8
0
  6
Continuous
 62
     7
370
    25
100
AcDbCircle
 10
156.77
 20
-102.49
 30
0.0
 40
0.4499999999999886
  0
CIRCLE
  5
3A2
330
1F
100
AcDbEntity
  8
0
  6
Continuous
 62
     7
370
    25
100
AcDbCircle
 10
140.81125
 20
-104.775
 30
0.0
 40
0.8500000000000227
  0
CIRCLE
  5
3A3
330
1F
100
AcDbEntity
  8
0
  6
Continuous
 62
     7
370
    25
100
AcDbCircle
 10
128.27
 20
-104.775
 30
0.0
 40
0.8500000000000227
  0
CIRCLE
  5
3A4
330
1F
100
AcDbEntity
  8
0
  6
Continuous
 62
     7
370
    25
100
AcDbCircle
 10
129.55
 20
-102.235
 30
0.0
 40
0.7250000000000227
  0
CIRCLE
  5
3AC
330
1F
100
AcDbEntity
  8
0
  6
Continuous
 62
     7
370
    25
100
AcDbCircle
 10
131.93125
 20
-102.235
 30
0.0
 40
0.7250000000000227
  0
CIRCLE
  5
3AD
330
1F
100
AcDbEntity
  8
0
  6
Continuous
 62
     7
370
    25
100
AcDbCircle
 10
165.26875
 20
-102.235
 30
0.0
 40
0.7250000000000227
  0
CIRCLE
  5
3AE
330
1F
100
AcDbEntity
  8
0
  6
Continuous
 62
     7
370
    25
100
AcDbCircle
 10
163.98875
 20
-104.775
 30
0.0
 40
0.8500000000000227
  0
CIRCLE
  5
3AF
330
1F
100
AcDbEntity
  8
0
  6
Continuous
 62
     7
370
    25
100
AcDbCircle
 10
112.23625
 20
-104.775
 30
0.0
 40
0.8499999999999943
  0
CIRCLE
  5
3B0
330
1F
100
AcDbEntity
  8
0
  6
Continuous
 62
     7
370
    25
100
AcDbCircle
 10
99.695
 20
-104.775
 30
0.0
 40
0.8500000000000085
  0
CIRCLE
  5
3B1
330
1F
100
AcDbEntity
  8
0
  6
Continuous
 62
     7
370
    25
100
AcDbCircle
 10
103.35625
 20
-102.235
 30
0.0
 40
0.7250000000000085
  0
CIRCLE
  5
3B2
330
1F
100
AcDbEntity
  8
0
  6
Continuous
 62
     7
370
    25
100
AcDbCircle
 10
100.975
 20
-102.235
 30
0.0
 40
0.7250000000000227
  0
CIRCLE
  5
3BA
330
1F
100
AcDbEntity
  8
0
  6
Continuous
 62
     7
370
    25
100
AcDbCircle
 10
71.755
 20
-104.775
 30
0.0
 40
0.8500000000000085
  0
CIRCLE
  5
3BB
330
1F
100
AcDbEntity
  8
0
  6
Continuous
 62
     7
370
    25
100
AcDbCircle
 10
66.675
 20
-104.775
 30
0.0
 40
2.000000000000028
  0
CIRCLE
  5
3BC
330
1F
100
AcDbEntity
  8
0
  6
Continuous
 62
     7
370
    25
100
AcDbCircle
 10
62.875
 20
-102.235
 30
0.0
 40
0.7250000000000227
  0
CIRCLE
  5
3BD
330
1F
100
AcDbEntity
  8
0
  6
Continuous
 62
     7
370
    25
100
AcDbCircle
 10
61.595
 20
-104.775
 30
0.0
 40
0.8500000000000085
  0
CIRCLE
  5
3BE
330
1F
100
AcDbEntity
  8
0
  6
Continuous
 62
     7
370
    25
100
AcDbCircle
 10
80.645
 20
-104.775
 30
0.0
 40
0.8500000000000085
  0
CIRCLE
  5
3BF
330
1F
100
AcDbEntity
  8
0
  6
Continuous
 62
     7
370
    25
100
AcDbCircle
 10
81.925
 20
-102.235
 30
0.0
 40
0.7250000000000085
  0
CIRCLE
  5
3C0
330
1F
100
AcDbEntity
  8
0
  6
Continuous
 62
     7
370
    25
100
AcDbCircle
 10
85.725
 20
-104.775
 30
0.0
 40
2.000000000000028
  0
CIRCLE
  5
3C1
330
1F
100
AcDbEntity
  8
0
  6
Continuous
 62
     7
370
    25
100
AcDbCircle
 10
90.805
 20
-104.775
 30
0.0
 40
0.8500000000000085
  0
CIRCLE
  5
3C2
330
1F
100
AcDbEntity
  8
0
  6
Continuous
 62
     7
370
    25
100
AcDbCircle
 10
45.125
 20
-43.625
 30
0.0
 40
0.7250000000000085
  0
CIRCLE
  5
3C3
330
1F
100
AcDbEntity
  8
0
  6
Continuous
 62
     7
370
    25
100
AcDbCircle
 10
52.705
 20
-85.725
 30
0.0
 40
0.8499999999999801
  0
CIRCLE
  5
3C4
330
1F
100
AcDbEntity
  8
0
  6
Continuous
 62
     7
370
    25
100
AcDbCircle
 10
52.705
 20
-47.625
 30
0.0
 40
0.8499999999999872
  0
CIRCLE
  5
3C9
330
1F
100
AcDbEntity
  8
0
  6
Continuous
 62
     7
370
    25
100
AcDbCircle
 10
53.6575
 20
-71.755
 30
0.0
 40
0.4999999999999929
  0
CIRCLE
  5
3CE
330
1F
100
AcDbEntity
  8
0
  6
Continuous
 62
     7
370
    25
100
AcDbCircle
 10
51.1175
 20
-71.755
 30
0.0
 40
0.4999999999999858
  0
CIRCLE
  5
3CF
330
1F
100
AcDbEntity
  8
0
  6
Continuous
 62
     7
370
    25
100
AcDbCircle
 10
50.125
 20
-55.5
 30
0.0
 40
0.3499999999999943
  0
CIRCLE
  5
3D0
330
1F
100
AcDbEntity
  8
0
  6
Continuous
 62
     7
370
    25
100
AcDbCircle
 10
147.955
 20
-85.725
 30
0.0
 40
0.8499999999999943
  0
CIRCLE
  5
3D1
330
1F
100
AcDbEntity
  8
0
  6
Continuous
 62
     7
370
    25
100
AcDbCircle
 10
147.955
 20
-47.625
 30
0.0
 40
0.8499999999999943
  0
CIRCLE
  5
3D6
330
1F
100
AcDbEntity
  8
0
  6
Continuous
 62
     7
370
    25
100
AcDbCircle
 10
148.6
 20
-64.135
 30
0.0
 40
0.7249999999999943
  0
CIRCLE
  5
3DA
330
1F
100
AcDbEntity
  8
0
  6
Continuous
 62
     7
370
    25
100
AcDbCircle
 10
146.9
 20
-52.17
 30
0.0
 40
0.1499999999999773
  0
CIRCLE
  5
3DB
330
1F
100
AcDbEntity
  8
0
  6
Continuous
 62
     7
370
    25
100
AcDbCircle
 10
144.145
 20
-71.755
 30
0.0
 40
0.4999999999999716
  0
CIRCLE
  5
3E0
330
1F
100
AcDbEntity
  8
0
  6
Continuous
 62
     7
370
    25
100
AcDbCircle
 10
141.605
 20
-71.755
 30
0.0
 40
0.5
  0
CIRCLE
  5
3E1
330
1F
100
AcDbEntity
  8
0
  6
Continuous
 62
     7
370
    25
100
AcDbCircle
 10
61.595
 20
-85.725
 30
0.0
 40
0.8500000000000085
  0
CIRCLE
  5
3E2
330
1F
100
AcDbEntity
  8
0
  6
Continuous
 62
     7
370
    25
100
AcDbCircle
 10
58.0426
 20
-75.16768
 30
0.0
 40
0.4000000000000057
  0
CIRCLE
  5
3E3
330
1F
100
AcDbEntity
  8
0
  6
Continuous
 62
     7
370
    25
100
AcDbCircle
 10
64.175
 20
-81.725
 30
0.0
 40
0.7249999999999943
  0
CIRCLE
  5
3E4
330
1F
100
AcDbEntity
  8
0
  6
Continuous
 62
     7
370
    25
100
AcDbCircle
 10
62.875
 20
-83.185
 30
0.0
 40
0.7250000000000227
  0
CIRCLE
  5
3E5
330
1F
100
AcDbEntity
  8
0
  6
Continuous
 62
     7
370
    25
100
AcDbCircle
 10
58.0426
 20
-77.16768
 30
0.0
 40
0.4000000000000057
  0
CIRCLE
  5
3E6
330
1F
100
AcDbEntity
  8
0
  6
Continuous
 62
     7
370
    25
100
AcDbCircle
 10
128.905
 20
-85.725
 30
0.0
 40
0.8500000000000227
  0
CIRCLE
  5
3E7
330
1F
100
AcDbEntity
  8
0
  6
Continuous
 62
     7
370
    25
100
AcDbCircle
 10
134.62
 20
-71.755
 30
0.0
 40
0.4999999999999716
  0
CIRCLE
  5
3E8
330
1F
100
AcDbEntity
  8
0
  6
Continuous
 62
     7
370
    25
100
AcDbCircle
 10
132.08
 20
-71.755
 30
0.0
 40
0.5
  0
CIRCLE
  5
3E9
330
1F
100
AcDbEntity
  8
0
  6
Continuous
 62
     7
370
    25
100
AcDbCircle
 10
142.875
 20
-85.725
 30
0.0
 40
1.999999999999972
  0
CIRCLE
  5
3EA
330
1F
100
AcDbEntity
  8
0
  6
Continuous
 62
     7
370
    25
100
AcDbCircle
 10
140.375
 20
-81.725
 30
0.0
 40
0.7249999999999659
  0
CIRCLE
  5
3EB
330
1F
100
AcDbEntity
  8
0
  6
Continuous
 62
     7
370
    25
100
AcDbCircle
 10
139.075
 20
-83.185
 30
0.0
 40
0.7250000000000512
  0
CIRCLE
  5
3EC
330
1F
100
AcDbEntity
  8
0
  6
Continuous
 62
     7
370
    25
100
AcDbCircle
 10
137.795
 20
-85.725
 30
0.0
 40
0.8499999999999943
  0
CIRCLE
  5
3ED
330
1F
100
AcDbEntity
  8
0
  6
Continuous
 62
     7
370
    25
100
AcDbCircle
 10
115.57
 20
-71.755
 30
0.0
 40
0.4999999999999716
  0
CIRCLE
  5
3EE
330
1F
100
AcDbEntity
  8
0
  6
Continuous
 62
     7
370
    25
100
AcDbCircle
 10
122.555
 20
-71.755
 30
0.0
 40
0.4999999999999858
  0
CIRCLE
  5
3EF
330
1F
100
AcDbEntity
  8
0
  6
Continuous
 62
     7
370
    25
100
AcDbCircle
 10
125.095
 20
-71.755
 30
0.0
 40
0.4999999999999858
  0
CIRCLE
  5
3F0
330
1F
100
AcDbEntity
  8
0
  6
Continuous
 62
     7
370
    25
100
AcDbCircle
 10
103.505
 20
-71.755
 30
0.0
 40
0.4999999999999858
  0
CIRCLE
  5
3F1
330
1F
100
AcDbEntity
  8
0
  6
Continuous
 62
     7
370
    25
100
AcDbCircle
 10
113.03
 20
-71.755
 30
0.0
 40
0.4999999999999858
  0
CIRCLE
  5
3F2
330
1F
100
AcDbEntity
  8
0
  6
Continuous
 62
     7
370
    25
100
AcDbCircle
 10
106.045
 20
-71.755
 30
0.0
 40
0.4999999999999858
  0
CIRCLE
  5
3F3
330
1F
100
AcDbEntity
  8
0
  6
Continuous
 62
     7
370
    25
100
AcDbCircle
 10
100.975
 20
-83.185
 30
0.0
 40
0.7250000000000227
  0
CIRCLE
  5
3F4
330
1F
100
AcDbEntity
  8
0
  6
Continuous
 62
     7
370
    25
100
AcDbCircle
 10
102.275
 20
-81.725
 30
0.0
 40
0.7249999999999801
  0
CIRCLE
  5
3F5
330
1F
100
AcDbEntity
  8
0
  6
Continuous
 62
     7
370
    25
100
AcDbCircle
 10
118.745
 20
-85.725
 30
0.0
 40
0.8500000000000085
  0
CIRCLE
  5
3F6
330
1F
100
AcDbEntity
  8
0
  6
Continuous
 62
     7
370
    25
100
AcDbCircle
 10
120.025
 20
-83.185
 30
0.0
 40
0.7250000000000227
  0
CIRCLE
  5
3F7
330
1F
100
AcDbEntity
  8
0
  6
Continuous
 62
     7
370
    25
100
AcDbCircle
 10
109.855
 20
-85.725
 30
0.0
 40
0.8500000000000227
  0
CIRCLE
  5
3F8
330
1F
100
AcDbEntity
  8
0
  6
Continuous
 62
     7
370
    25
100
AcDbCircle
 10
104.775
 20
-85.725
 30
0.0
 40
2.0
  0
CIRCLE
  5
3F9
330
1F
100
AcDbEntity
  8
0
  6
Continuous
 62
     7
370
    25
100
AcDbCircle
 10
123.825
 20
-85.725
 30
0.0
 40
1.999999999999986
  0
CIRCLE
  5
3FE
330
1F
100
AcDbEntity
  8
0
  6
Continuous
 62
     7
370
    25
100
AcDbCircle
 10
121.325
 20
-81.725
 30
0.0
 40
0.7249999999999801
  0
CIRCLE
  5
407
330
1F
100
AcDbEntity
  8
0
  6
Continuous
 62
     7
370
    25
100
AcDbCircle
 10
66.675
 20
-85.725
 30
0.0
 40
1.999999999999986
  0
CIRCLE
  5
408
330
1F
100
AcDbEntity
  8
0
  6
Continuous
 62
     7
370
    25
100
AcDbCircle
 10
71.755
 20
-85.725
 30
0.0
 40
0.8500000000000085
  0
CIRCLE
  5
409
330
1F
100
AcDbEntity
  8
0
  6
Continuous
 62
     7
370
    25
100
AcDbCircle
 10
77.47
 20
-71.755
 30
0.0
 40
0.4999999999999858
  0
CIRCLE
  5
40A
330
1F
100
AcDbEntity
  8
0
  6
Continuous
 62
     7
370
    25
100
AcDbCircle
 10
86.995
 20
-71.755
 30
0.0
 40
0.4999999999999858
  0
CIRCLE
  5
40B
330
1F
100
AcDbEntity
  8
0
  6
Continuous
 62
     7
370
    25
100
AcDbCircle
 10
74.93
 20
-71.755
 30
0.0
 40
0.4999999999999858
  0
CIRCLE
  5
40C
330
1F
100
AcDbEntity
  8
0
  6
Continuous
 62
     7
370
    25
100
AcDbCircle
 10
67.945
 20
-71.755
 30
0.0
 40
0.4999999999999716
  0
CIRCLE
  5
40D
330
1F
100
AcDbEntity
  8
0
  6
Continuous
 62
     7
370
    25
100
AcDbCircle
 10
65.405
 20
-71.755
 30
0.0
 40
0.4999999999999858
  0
CIRCLE
  5
40E
330
1F
100
AcDbEntity
  8
0
  6
Continuous
 62
     7
370
    25
100
AcDbCircle
 10
83.225
 20
-81.725
 30
0.0
 40
0.7249999999999943
  0
CIRCLE
  5
40F
330
1F
100
AcDbEntity
  8
0
  6
Continuous
 62
     7
370
    25
100
AcDbCircle
 10
84.455
 20
-71.755
 30
0.0
 40
0.4999999999999716
  0
CIRCLE
  5
414
330
1F
100
AcDbEntity
  8
0
  6
Continuous
 62
     7
370
    25
100
AcDbCircle
 10
93.98
 20
-71.755
 30
0.0
 40
0.4999999999999716
  0
CIRCLE
  5
415
330
1F
100
AcDbEntity
  8
0
  6
Continuous
 62
     7
370
    25
100
AcDbCircle
 10
96.52
 20
-71.755
 30
0.0
 40
0.4999999999999716
  0
CIRCLE
  5
416
330
1F
100
AcDbEntity
  8
0
  6
Continuous
 62
     7
370
    25
100
AcDbCircle
 10
85.725
 20
-85.725
 30
0.0
 40
1.999999999999986
  0
CIRCLE
  5
417
330
1F
100
AcDbEntity
  8
0
  6
Continuous
 62
     7
370
    25
100
AcDbCircle
 10
80.645
 20
-85.725
 30
0.0
 40
0.8500000000000227
  0
CIRCLE
  5
418
330
1F
100
AcDbEntity
  8
0
  6
Continuous
 62
     7
370
    25
100
AcDbCircle
 10
81.925
 20
-83.185
 30
0.0
 40
0.7250000000000085
  0
CIRCLE
  5
419
330
1F
100
AcDbEntity
  8
0
  6
Continuous
 62
     7
370
    25
100
AcDbCircle
 10
90.805
 20
-85.725
 30
0.0
 40
0.8500000000000085
  0
CIRCLE
  5
41A
330
1F
100
AcDbEntity
  8
0
  6
Continuous
 62
     7
370
    25
100
AcDbCircle
 10
99.695
 20
-85.725
 30
0.0
 40
0.8499999999999943
  0
CIRCLE
  5
41B
330
1F
100
AcDbEntity
  8
0
  6
Continuous
 62
     7
370
    25
100
AcDbCircle
 10
141.605
 20
-52.705
 30
0.0
 40
0.5
  0
CIRCLE
  5
41C
330
1F
100
AcDbEntity
  8
0
  6
Continuous
 62
     7
370
    25
100
AcDbCircle
 10
144.145
 20
-52.705
 30
0.0
 40
0.4999999999999716
  0
CIRCLE
  5
41D
330
1F
100
AcDbEntity
  8
0
  6
Continuous
 62
     7
370
    25
100
AcDbCircle
 10
142.875
 20
-47.625
 30
0.0
 40
1.999999999999972
  0
CIRCLE
  5
42A
330
1F
100
AcDbEntity
  8
0
  6
Continuous
 62
     7
370
    25
100
AcDbCircle
 10
102.275
 20
-62.675
 30
0.0
 40
0.7250000000000085
  0
CIRCLE
  5
42B
330
1F
100
AcDbEntity
  8
0
  6
Continuous
 62
     7
370
    25
100
AcDbCircle
 10
92.75
 20
-62.675
 30
0.0
 40
0.7250000000000085
  0
CIRCLE
  5
434
330
1F
100
AcDbEntity
  8
0
  6
Continuous
 62
     7
370
    25
100
AcDbCircle
 10
83.225
 20
-62.675
 30
0.0
 40
0.7250000000000227
  0
CIRCLE
  5
439
330
1F
100
AcDbEntity
  8
0
  6
Continuous
 62
     7
370
    25
100
AcDbCircle
 10
73.7
 20
-62.675
 30
0.0
 40
0.7250000000000085
  0
CIRCLE
  5
43E
330
1F
100
AcDbEntity
  8
0
  6
Continuous
 62
     7
370
    25
100
AcDbCircle
 10
121.325
 20
-62.675
 30
0.0
 40
0.7250000000000085
  0
CIRCLE
  5
443
330
1F
100
AcDbEntity
  8
0
  6
Continuous
 62
     7
370
    25
100
AcDbCircle
 10
140.375
 20
-62.675
 30
0.0
 40
0.7249999999999943
  0
CIRCLE
  5
44B
330
1F
100
AcDbEntity
  8
0
  6
Continuous
 62
     7
370
    25
100
AcDbCircle
 10
110.5
 20
-64.135
 30
0.0
 40
0.7250000000000085
  0
CIRCLE
  5
44C
330
1F
100
AcDbEntity
  8
0
  6
Continuous
 62
     7
370
    25
100
AcDbCircle
 10
104.775
 20
-66.675
 30
0.0
 40
2.000000000000014
  0
CIRCLE
  5
450
330
1F
100
AcDbEntity
  8
0
  6
Continuous
 62
     7
370
    25
100
AcDbCircle
 10
123.825
 20
-66.675
 30
0.0
 40
1.999999999999986
  0
CIRCLE
  5
454
330
1F
100
AcDbEntity
  8
0
  6
Continuous
 62
     7
370
    25
100
AcDbCircle
 10
120.025
 20
-64.135
 30
0.0
 40
0.7250000000000085
  0
CIRCLE
  5
455
330
1F
100
AcDbEntity
  8
0
  6
Continuous
 62
     7
370
    25
100
AcDbCircle
 10
133.35
 20
-66.675
 30
0.0
 40
2.000000000000057
  0
CIRCLE
  5
456
330
1F
100
AcDbEntity
  8
0
  6
Continuous
 62
     7
370
    25
100
AcDbCircle
 10
139.075
 20
-64.135
 30
0.0
 40
0.7249999999999943
  0
CIRCLE
  5
45A
330
1F
100
AcDbEntity
  8
0
  6
Continuous
 62
     7
370
    25
100
AcDbCircle
 10
142.875
 20
-66.675
 30
0.0
 40
2.0
  0
LINE
  5
468
330
1F
100
AcDbEntity
  8
0
  6
Continuous
 62
     7
370
    25
100
AcDbLine
 10
156.77
 20
-37.18
 30
0.0
 11
156.57
 21
-37.18
 31
0.0
  0
LINE
  5
469
330
1F
100
AcDbEntity
  8
0
  6
Continuous
 62
     7
370
    25
100
AcDbLine
 10
156.77
 20
-38.38
 30
0.0
 11
156.77
 21
-37.7340833475
 31
0.0
  0
LINE
  5
46A
330
1F
100
AcDbEntity
  8
0
  6
Continuous
 62
     7
370
    25
100
AcDbLine
 10
156.77
 20
-37.600027
 30
0.0
 11
156.77
 21
-36.88
 31
0.0
  0
LINE
  5
46B
330
1F
100
AcDbEntity
  8
0
  6
Continuous
 62
     7
370
    25
100
AcDbLine
 10
156.57
 20
-38.08
 30
0.0
 11
156.77
 21
-38.08
 31
0.0
  0
LINE
  5
46C
330
1F
100
AcDbEntity
  8
0
  6
Continuous
 62
     7
370
    25
100
AcDbLine
 10
156.77
 20
-43.1559166525
 30
0.0
 11
156.77
 21
-42.03
 31
0.0
  0
LINE
  5
46D
330
1F
100
AcDbEntity
  8
0
  6
Continuous
 62
     7
370
    25
100
AcDbLine
 10
156.87
 20
-42.9885786438
 30
0.0
 11
156.77
 21
-43.03
 31
0.0
  0
LINE
  5
46E
330
1F
100
AcDbEntity
  8
0
  6
Continuous
 62
     7
370
    25
100
AcDbLine
 10
156.87
 20
-41.7063458815
 30
0.0
 11
156.87
 21
-43.1136541185
 31
0.0
  0
LINE
  5
46F
330
1F
100
AcDbEntity
  8
0
  6
Continuous
 62
     7
370
    25
100
AcDbLine
 10
156.57
 20
-36.88
 30
0.0
 11
156.87
 21
-36.88
 31
0.0
  0
LINE
  5
470
330
1F
100
AcDbEntity
  8
0
  6
Continuous
 62
     7
370
    25
100
AcDbLine
 10
148.23
 20
-41.7138495475
 30
0.0
 11
148.23
 21
-43.1061504525
 31
0.0
  0
LINE
  5
471
330
1F
100
AcDbEntity
  8
0
  6
Continuous
 62
     7
370
    25
100
AcDbLine
 10
148.23
 20
-42.33
 30
0.0
 11
148.03
 21
-42.33
 31
0.0
  0
LINE
  5
472
330
1F
100
AcDbEntity
  8
0
  6
Continuous
 62
     7
370
    25
100
AcDbLine
 10
147.93
 20
-42.03
 30
0.0
 11
148.23
 21
-42.03
 31
0.0
  0
LINE
  5
473
330
1F
100
AcDbEntity
  8
0
  6
Continuous
 62
     7
370
    25
100
AcDbLine
 10
148.23
 20
-37.18
 30
0.0
 11
148.03
 21
-37.18
 31
0.0
  0
LINE
  5
474
330
1F
100
AcDbEntity
  8
0
  6
Continuous
 62
     7
370
    25
100
AcDbLine
 10
148.03
 20
-36.88
 30
0.0
 11
148.03
 21
-37.600027
 31
0.0
  0
LINE
  5
475
330
1F
100
AcDbEntity
  8
0
  6
Continuous
 62
     7
370
    25
100
AcDbLine
 10
147.93
 20
-36.88
 30
0.0
 11
148.23
 21
-36.88
 31
0.0
  0
LINE
  5
476
330
1F
100
AcDbEntity
  8
0
  6
Continuous
 62
     7
370
    25
100
AcDbLine
 10
147.93
 20
-43.1136541185
 30
0.0
 11
147.93
 21
-41.7063458815
 31
0.0
  0
LINE
  5
477
330
1F
100
AcDbEntity
  8
0
  6
Continuous
 62
     7
370
    25
100
AcDbLine
 10
148.03
 20
-43.03
 30
0.0
 11
147.93
 21
-42.9885786438
 31
0.0
  0
LINE
  5
478
330
1F
100
AcDbEntity
  8
0
  6
Continuous
 62
     7
370
    25
100
AcDbLine
 10
148.03
 20
-42.03
 30
0.0
 11
148.03
 21
-43.1559166525
 31
0.0
  0
LINE
  5
479
330
1F
100
AcDbEntity
  8
0
  6
Continuous
 62
     7
370
    25
100
AcDbLine
 10
156.87
 20
-42.3714213562
 30
0.0
 11
156.77
 21
-42.33
 31
0.0
  0
LINE
  5
47A
330
1F
100
AcDbEntity
  8
0
  6
Continuous
 62
     7
370
    25
100
AcDbLine
 10
148.23
 20
-38.38
 30
0.0
 11
147.93
 21
-38.38
 31
0.0
  0
LINE
  5
47B
330
1F
100
AcDbEntity
  8
0
  6
Continuous
 62
     7
370
    25
100
AcDbLine
 10
148.03
 20
-37.7340833475
 30
0.0
 11
148.03
 21
-38.38
 31
0.0
  0
LINE
  5
47C
330
1F
100
AcDbEntity
  8
0
  6
Continuous
 62
     7
370
    25
100
AcDbLine
 10
148.03
 20
-38.08
 30
0.0
 11
148.23
 21
-38.08
 31
0.0
  0
LINE
  5
47D
330
1F
100
AcDbEntity
  8
0
  6
Continuous
 62
     7
370
    25
100
AcDbLine
 10
156.87
 20
-38.0385786438
 30
0.0
 11
156.77
 21
-38.08
 31
0.0
  0
LINE
  5
47E
330
1F
100
AcDbEntity
  8
0
  6
Continuous
 62
     7
370
    25
100
AcDbLine
 10
156.87
 20
-37.2214213562
 30
0.0
 11
156.77
 21
-37.18
 31
0.0
  0
LINE
  5
47F
330
1F
100
AcDbEntity
  8
0
  6
Continuous
 62
     7
370
    25
100
AcDbLine
 10
156.77
 20
-42.33
 30
0.0
 11
156.57
 21
-42.33
 31
0.0
  0
LINE
  5
480
330
1F
100
AcDbEntity
  8
0
  6
Continuous
 62
     7
370
    25
100
AcDbLine
 10
156.57
 20
-43.03
 30
0.0
 11
156.77
 21
-43.03
 31
0.0
  0
LINE
  5
481
330
1F
100
AcDbEntity
  8
0
  6
Continuous
 62
     7
370
    25
100
AcDbLine
 10
156.57
 20
-41.7138495475
 30
0.0
 11
156.57
 21
-43.1061504525
 31
0.0
  0
LINE
  5
482
330
1F
100
AcDbEntity
  8
0
  6
Continuous
 62
     7
370
    25
100
AcDbLine
 10
156.77
 20
-36.88
 30
0.0
 11
156.87
 21
-36.98
 31
0.0
  0
LINE
  5
483
330
1F
100
AcDbEntity
  8
0
  6
Continuous
 62
     7
370
    25
100
AcDbLine
 10
148.03
 20
-43.03
 30
0.0
 11
148.23
 21
-43.03
 31
0.0
  0
LINE
  5
484
330
1F
100
AcDbEntity
  8
0
  6
Continuous
 62
     7
370
    25
100
AcDbLine
 10
156.87
 20
-38.38
 30
0.0
 11
156.57
 21
-38.38
 31
0.0
  0
LINE
  5
485
330
1F
100
AcDbEntity
  8
0
  6
Continuous
 62
     7
370
    25
100
AcDbLine
 10
156.77
 20
-42.03
 30
0.0
 11
156.87
 21
-42.13
 31
0.0
  0
LINE
  5
486
330
1F
100
AcDbEntity
  8
0
  6
Continuous
 62
     7
370
    25
100
AcDbLine
 10
148.03
 20
-37.18
 30
0.0
 11
147.93
 21
-37.2214213562
 31
0.0
  0
LINE
  5
487
330
1F
100
AcDbEntity
  8
0
  6
Continuous
 62
     7
370
    25
100
AcDbLine
 10
147.93
 20
-36.98
 30
0.0
 11
148.03
 21
-36.88
 31
0.0
  0
LINE
  5
488
330
1F
100
AcDbEntity
  8
0
  6
Continuous
 62
     7
370
    25
100
AcDbLine
 10
148.03
 20
-42.33
 30
0.0
 11
147.93
 21
-42.3714213562
 31
0.0
  0
LINE
  5
489
330
1F
100
AcDbEntity
  8
0
  6
Continuous
 62
     7
370
    25
100
AcDbLine
 10
156.57
 20
-42.03
 30
0.0
 11
156.87
 21
-42.03
 31
0.0
  0
LINE
  5
48A
330
1F
100
AcDbEntity
  8
0
  6
Continuous
 62
     7
370
    25
100
AcDbLine
 10
156.87
 20
-38.28
 30
0.0
 11
156.77
 21
-38.38
 31
0.0
  0
LINE
  5
48B
330
1F
100
AcDbEntity
  8
0
  6
Continuous
 62
     7
370
    25
100
AcDbLine
 10
148.03
 20
-38.08
 30
0.0
 11
147.93
 21
-38.0385786438
 31
0.0
  0
LINE
  5
48C
330
1F
100
AcDbEntity
  8
0
  6
Continuous
 62
     7
370
    25
100
AcDbLine
 10
147.93
 20
-42.13
 30
0.0
 11
148.03
 21
-42.03
 31
0.0
  0
LINE
  5
48D
330
1F
100
AcDbEntity
  8
0
  6
Continuous
 62
     7
370
    25
100
AcDbLine
 10
148.03
 20
-38.38
 30
0.0
 11
147.93
 21
-38.28
 31
0.0
  0
LINE
  5
48E
330
1F
100
AcDbEntity
  8
0
  6
Continuous
 62
     7
370
    25
100
AcDbLine
 10
154.2
 20
-36.71
 30
0.0
 11
154.2
 21
-36.68
 31
0.0
  0
LINE
  5
48F
330
1F
100
AcDbEntity
  8
0
  6
Continuous
 62
     7
370
    25
100
AcDbLine
 10
154.37
 20
-36.88
 30
0.0
 11
154.4
 21
-36.88
 31
0.0
  0
LINE
  5
490
330
1F
100
AcDbEntity
  8
0
  6
Continuous
 62
     7
370
    25
100
AcDbLine
 10
154.4
 20
-37.600027
 30
0.0
 11
154.4
 21
-36.88
 31
0.0
  0
LINE
  5
491
330
1F
100
AcDbEntity
  8
0
  6
Continuous
 62
     7
370
    25
100
AcDbLine
 10
154.2
 20
-36.71
 30
0.0
 11
153.75
 21
-36.71
 31
0.0
  0
LINE
  5
492
330
1F
100
AcDbEntity
  8
0
  6
Continuous
 62
     7
370
    25
100
AcDbLine
 10
153.75
 20
-36.68
 30
0.0
 11
153.75
 21
-36.71
 31
0.0
  0
LINE
  5
493
330
1F
100
AcDbEntity
  8
0
  6
Continuous
 62
     7
370
    25
100
AcDbLine
 10
154.2
 20
-36.68
 30
0.0
 11
153.75
 21
-36.68
 31
0.0
  0
LINE
  5
494
330
1F
100
AcDbEntity
  8
0
  6
Continuous
 62
     7
370
    25
100
AcDbLine
 10
150.4
 20
-36.88
 30
0.0
 11
150.4
 21
-37.600027
 31
0.0
  0
LINE
  5
495
330
1F
100
AcDbEntity
  8
0
  6
Continuous
 62
     7
370
    25
100
AcDbLine
 10
150.43
 20
-36.88
 30
0.0
 11
150.4
 21
-36.88
 31
0.0
  0
LINE
  5
496
330
1F
100
AcDbEntity
  8
0
  6
Continuous
 62
     7
370
    25
100
AcDbLine
 10
153.55
 20
-36.88
 30
0.0
 11
153.55
 21
-37.600027
 31
0.0
  0
LINE
  5
497
330
1F
100
AcDbEntity
  8
0
  6
Continuous
 62
     7
370
    25
100
AcDbLine
 10
153.55
 20
-36.88
 30
0.0
 11
153.58
 21
-36.88
 31
0.0
  0
LINE
  5
498
330
1F
100
AcDbEntity
  8
0
  6
Continuous
 62
     7
370
    25
100
AcDbLine
 10
151.25
 20
-36.88
 30
0.0
 11
151.22
 21
-36.88
 31
0.0
  0
LINE
  5
499
330
1F
100
AcDbEntity
  8
0
  6
Continuous
 62
     7
370
    25
100
AcDbLine
 10
151.05
 20
-36.68
 30
0.0
 11
151.05
 21
-36.71
 31
0.0
  0
LINE
  5
49A
330
1F
100
AcDbEntity
  8
0
  6
Continuous
 62
     7
370
    25
100
AcDbLine
 10
150.6
 20
-36.71
 30
0.0
 11
150.6
 21
-36.68
 31
0.0
  0
LINE
  5
49B
330
1F
100
AcDbEntity
  8
0
  6
Continuous
 62
     7
370
    25
100
AcDbLine
 10
151.25
 20
-37.600027
 30
0.0
 11
151.25
 21
-36.88
 31
0.0
  0
LINE
  5
49C
330
1F
100
AcDbEntity
  8
0
  6
Continuous
 62
     7
370
    25
100
AcDbLine
 10
151.05
 20
-36.71
 30
0.0
 11
150.6
 21
-36.71
 31
0.0
  0
LINE
  5
49D
330
1F
100
AcDbEntity
  8
0
  6
Continuous
 62
     7
370
    25
100
AcDbLine
 10
151.05
 20
-36.68
 30
0.0
 11
150.6
 21
-36.68
 31
0.0
  0
LINE
  5
49E
330
1F
100
AcDbEntity
  8
0
  6
Continuous
 62
     7
370
    25
100
AcDbLine
 10
149.93
 20
-37.600027
 30
0.0
 11
149.93
 21
-37.23
 31
0.0
  0
LINE
  5
49F
330
1F
100
AcDbEntity
  8
0
  6
Continuous
 62
     7
370
    25
100
AcDbLine
 10
149.23
 20
-36.4816685226
 30
0.0
 11
149.23
 21
-35.33
 31
0.0
  0
LINE
  5
4A0
330
1F
100
AcDbEntity
  8
0
  6
Continuous
 62
     7
370
    25
100
AcDbLine
 10
152.38
 20
-35.33
 30
0.0
 11
152.38
 21
-35.9875128869
 31
0.0
  0
LINE
  5
4A1
330
1F
100
AcDbEntity
  8
0
  6
Continuous
 62
     7
370
    25
100
AcDbLine
 10
152.74
 20
-36.1953589838
 30
0.0
 11
152.92
 21
-36.0914359354
 31
0.0
  0
LINE
  5
4A2
330
1F
100
AcDbEntity
  8
0
  6
Continuous
 62
     7
370
    25
100
AcDbLine
 10
153.16
 20
-36.23
 30
0.0
 11
153.16
 21
-37.43
 31
0.0
  0
LINE
  5
4A3
330
1F
100
AcDbEntity
  8
0
  6
Continuous
 62
     7
370
    25
100
AcDbLine
 10
152.92
 20
-37.5685640646
 30
0.0
 11
152.32
 21
-37.2221539031
 31
0.0
  0
LINE
  5
4A4
330
1F
100
AcDbEntity
  8
0
  6
Continuous
 62
     7
370
    25
100
AcDbLine
 10
151.96
 20
-37.43
 30
0.0
 11
151.96
 21
-37.600027
 31
0.0
  0
LINE
  5
4A5
330
1F
100
AcDbEntity
  8
0
  6
Continuous
 62
     7
370
    25
100
AcDbLine
 10
149.18
 20
-36.48
 30
0.0
 11
147.93
 21
-36.48
 31
0.0
  0
LINE
  5
4A6
330
1F
100
AcDbEntity
  8
0
  6
Continuous
 62
     7
370
    25
100
AcDbLine
 10
147.93
 20
-37.600027
 30
0.0
 11
147.93
 21
-35.33
 31
0.0
  0
LINE
  5
4A7
330
1F
100
AcDbEntity
  8
0
  6
Continuous
 62
     7
370
    25
100
AcDbLine
 10
155.57
 20
-36.4816685226
 30
0.0
 11
155.57
 21
-35.33
 31
0.0
  0
LINE
  5
4A8
330
1F
100
AcDbEntity
  8
0
  6
Continuous
 62
     7
370
    25
100
AcDbLine
 10
156.87
 20
-36.48
 30
0.0
 11
155.62
 21
-36.48
 31
0.0
  0
LINE
  5
4A9
330
1F
100
AcDbEntity
  8
0
  6
Continuous
 62
     7
370
    25
100
AcDbLine
 10
147.93
 20
-35.33
 30
0.0
 11
156.87
 21
-35.33
 31
0.0
  0
LINE
  5
4AA
330
1F
100
AcDbEntity
  8
0
  6
Continuous
 62
     7
370
    25
100
AcDbLine
 10
156.87
 20
-37.600027
 30
0.0
 11
156.87
 21
-35.33
 31
0.0
  0
LINE
  5
4AB
330
1F
100
AcDbEntity
  8
0
  6
Continuous
 62
     7
370
    25
100
AcDbLine
 10
152.42
 20
-35.9875128869
 30
0.0
 11
152.42
 21
-35.33
 31
0.0
  0
LINE
  5
4AC
330
1F
100
AcDbEntity
  8
0
  6
Continuous
 62
     7
370
    25
100
AcDbLine
 10
152.0
 20
-37.600027
 30
0.0
 11
152.0
 21
-37.43
 31
0.0
  0
LINE
  5
4AD
330
1F
100
AcDbEntity
  8
0
  6
Continuous
 62
     7
370
    25
100
AcDbLine
 10
153.2
 20
-37.43
 30
0.0
 11
153.2
 21
-36.23
 31
0.0
  0
LINE
  5
4AE
330
1F
100
AcDbEntity
  8
0
  6
Continuous
 62
     7
370
    25
100
AcDbLine
 10
154.87
 20
-37.23
 30
0.0
 11
154.87
 21
-37.600027
 31
0.0
  0
LINE
  5
4AF
330
1F
100
AcDbEntity
  8
0
  6
Continuous
 62
     7
370
    25
100
AcDbLine
 10
152.3
 20
-37.2567949192
 30
0.0
 11
152.8944954027
 21
-37.600027
 31
0.0
  0
LINE
  5
4B0
330
1F
100
AcDbEntity
  8
0
  6
Continuous
 62
     7
370
    25
100
AcDbLine
 10
152.9
 20
-36.0567949192
 30
0.0
 11
152.72
 21
-36.1607179677
 31
0.0
  0
LINE
  5
4B1
330
1F
100
AcDbEntity
  8
0
  6
Continuous
 62
     7
370
    25
100
AcDbLine
 10
149.425
 20
-41.6592401284
 30
0.0
 11
149.625
 21
-41.6592401284
 31
0.0
  0
LINE
  5
4B2
330
1F
100
AcDbEntity
  8
0
  6
Continuous
 62
     7
370
    25
100
AcDbLine
 10
149.625
 20
-41.98
 30
0.0
 11
149.625
 21
-41.6060263169
 31
0.0
  0
LINE
  5
4B3
330
1F
100
AcDbEntity
  8
0
  6
Continuous
 62
     7
370
    25
100
AcDbLine
 10
149.625
 20
-41.98
 30
0.0
 11
149.425
 21
-41.98
 31
0.0
  0
LINE
  5
4B4
330
1F
100
AcDbEntity
  8
0
  6
Continuous
 62
     7
370
    25
100
AcDbLine
 10
149.425
 20
-41.5963122572
 30
0.0
 11
149.425
 21
-41.98
 31
0.0
  0
LINE
  5
4B5
330
1F
100
AcDbEntity
  8
0
  6
Continuous
 62
     7
370
    25
100
AcDbLine
 10
155.125
 20
-41.98
 30
0.0
 11
155.125
 21
-41.63
 31
0.0
  0
LINE
  5
4B6
330
1F
100
AcDbEntity
  8
0
  6
Continuous
 62
     7
370
    25
100
AcDbLine
 10
155.125
 20
-41.98
 30
0.0
 11
154.9726279785
 21
-41.98
 31
0.0
  0
LINE
  5
4B7
330
1F
100
AcDbEntity
  8
0
  6
Continuous
 62
     7
370
    25
100
AcDbLine
 10
156.56
 20
-41.7221836003
 30
0.0
 11
156.56
 21
-43.0978163997
 31
0.0
  0
LINE
  5
4B8
330
1F
100
AcDbEntity
  8
0
  6
Continuous
 62
     7
370
    25
100
AcDbLine
 10
155.575
 20
-42.0662049935
 30
0.0
 11
155.575
 21
-41.7537950065
 31
0.0
  0
LINE
  5
4B9
330
1F
100
AcDbEntity
  8
0
  6
Continuous
 62
     7
370
    25
100
AcDbLine
 10
149.225
 20
-41.7537950065
 30
0.0
 11
149.225
 21
-42.0662049935
 31
0.0
  0
LINE
  5
4BA
330
1F
100
AcDbEntity
  8
0
  6
Continuous
 62
     7
370
    25
100
AcDbLine
 10
148.24
 20
-41.7221836003
 30
0.0
 11
148.24
 21
-43.0978163997
 31
0.0
  0
LINE
  5
4BB
330
1F
100
AcDbEntity
  8
0
  6
Continuous
 62
     7
370
    25
100
AcDbLine
 10
156.56
 20
-42.18
 30
0.0
 11
156.57
 21
-42.18
 31
0.0
  0
LINE
  5
4BC
330
1F
100
AcDbEntity
  8
0
  6
Continuous
 62
     7
370
    25
100
AcDbLine
 10
156.56
 20
-42.08
 30
0.0
 11
156.57
 21
-42.08
 31
0.0
  0
LINE
  5
4BD
330
1F
100
AcDbEntity
  8
0
  6
Continuous
 62
     7
370
    25
100
AcDbLine
 10
148.24
 20
-42.18
 30
0.0
 11
148.23
 21
-42.18
 31
0.0
  0
LINE
  5
4BE
330
1F
100
AcDbEntity
  8
0
  6
Continuous
 62
     7
370
    25
100
AcDbLine
 10
148.24
 20
-42.08
 30
0.0
 11
148.23
 21
-42.08
 31
0.0
  0
LINE
  5
4BF
330
1F
100
AcDbEntity
  8
0
  6
Continuous
 62
     7
370
    25
100
AcDbLine
 10
152.775
 20
-37.5310362971
 30
0.0
 11
152.775
 21
-37.4848482756
 31
0.0
  0
LINE
  5
4C0
330
1F
100
AcDbEntity
  8
0
  6
Continuous
 62
     7
370
    25
100
AcDbLine
 10
152.525
 20
-37.3405107083
 30
0.0
 11
152.525
 21
-37.3866987298
 31
0.0
  0
LINE
  5
4C1
330
1F
100
AcDbEntity
  8
0
  6
Continuous
 62
     7
370
    25
100
AcDbLine
 10
152.025
 20
-37.2657593229
 30
0.0
 11
152.025
 21
-37.3331754163
 31
0.0
  0
LINE
  5
4C2
330
1F
100
AcDbEntity
  8
0
  6
Continuous
 62
     7
370
    25
100
AcDbLine
 10
152.275
 20
-37.2445950378
 30
0.0
 11
152.275
 21
-37.2020197377
 31
0.0
  0
LINE
  5
4C3
330
1F
100
AcDbEntity
  8
0
  6
Continuous
 62
     7
370
    25
100
AcDbLine
 10
153.2
 20
-36.5305551469
 30
0.0
 11
153.16
 21
-36.5305551469
 31
0.0
  0
LINE
  5
4C4
330
1F
100
AcDbEntity
  8
0
  6
Continuous
 62
     7
370
    25
100
AcDbLine
 10
153.025
 20
-37.5880348063
 30
0.0
 11
153.025
 21
-37.600027
 31
0.0
  0
LINE
  5
4C5
330
1F
100
AcDbEntity
  8
0
  6
Continuous
 62
     7
370
    25
100
AcDbLine
 10
149.775
 20
-37.600027
 30
0.0
 11
149.775
 21
-36.7734093737
 31
0.0
  0
LINE
  5
4C6
330
1F
100
AcDbEntity
  8
0
  6
Continuous
 62
     7
370
    25
100
AcDbLine
 10
149.525
 20
-36.5640608136
 30
0.0
 11
149.525
 21
-37.600027
 31
0.0
  0
LINE
  5
4C7
330
1F
100
AcDbEntity
  8
0
  6
Continuous
 62
     7
370
    25
100
AcDbLine
 10
155.275
 20
-37.600027
 30
0.0
 11
155.275
 21
-36.5640608136
 31
0.0
  0
LINE
  5
4C8
330
1F
100
AcDbEntity
  8
0
  6
Continuous
 62
     7
370
    25
100
AcDbLine
 10
155.025
 20
-36.7734093737
 30
0.0
 11
155.025
 21
-37.600027
 31
0.0
  0
LINE
  5
4C9
330
1F
100
AcDbEntity
  8
0
  6
Continuous
 62
     7
370
    25
100
AcDbLine
 10
149.355
 20
-37.08
 30
0.0
 11
149.355
 21
-37.600027
 31
0.0
  0
LINE
  5
4CA
330
1F
100
AcDbEntity
  8
0
  6
Continuous
 62
     7
370
    25
100
AcDbLine
 10
149.105
 20
-36.48
 30
0.0
 11
149.105
 21
-36.7841960108
 31
0.0
  0
LINE
  5
4CB
330
1F
100
AcDbEntity
  8
0
  6
Continuous
 62
     7
370
    25
100
AcDbLine
 10
152.42
 20
-35.68
 30
0.0
 11
152.38
 21
-35.68
 31
0.0
  0
LINE
  5
4CC
330
1F
100
AcDbEntity
  8
0
  6
Continuous
 62
     7
370
    25
100
AcDbLine
 10
155.695
 20
-36.48
 30
0.0
 11
155.695
 21
-36.7841960108
 31
0.0
  0
LINE
  5
4CD
330
1F
100
AcDbEntity
  8
0
  6
Continuous
 62
     7
370
    25
100
AcDbLine
 10
155.445
 20
-37.600027
 30
0.0
 11
155.445
 21
-37.08
 31
0.0
  0
LINE
  5
4CE
330
1F
100
AcDbEntity
  8
0
  6
Continuous
 62
     7
370
    25
100
AcDbLine
 10
152.38
 20
-35.58
 30
0.0
 11
152.42
 21
-35.58
 31
0.0
  0
LINE
  5
4CF
330
1F
100
AcDbEntity
  8
0
  6
Continuous
 62
     7
370
    25
100
AcDbLine
 10
156.57
 20
-38.63
 30
0.0
 11
156.87
 21
-38.63
 31
0.0
  0
LINE
  5
4D0
330
1F
100
AcDbEntity
  8
0
  6
Continuous
 62
     7
370
    25
100
AcDbLine
 10
156.87
 20
-37.7763458815
 30
0.0
 11
156.87
 21
-38.6836541185
 31
0.0
  0
LINE
  5
4D1
330
1F
100
AcDbEntity
  8
0
  6
Continuous
 62
     7
370
    25
100
AcDbLine
 10
156.57
 20
-38.6761504525
 30
0.0
 11
156.57
 21
-37.7838495475
 31
0.0
  0
LINE
  5
4D2
330
1F
100
AcDbEntity
  8
0
  6
Continuous
 62
     7
370
    25
100
AcDbLine
 10
156.87
 20
-38.53
 30
0.0
 11
156.57
 21
-38.53
 31
0.0
  0
LINE
  5
4D3
330
1F
100
AcDbEntity
  8
0
  6
Continuous
 62
     7
370
    25
100
AcDbLine
 10
156.57
 20
-36.73
 30
0.0
 11
156.87
 21
-36.73
 31
0.0
  0
LINE
  5
4D4
330
1F
100
AcDbEntity
  8
0
  6
Continuous
 62
     7
370
    25
100
AcDbLine
 10
147.93
 20
-38.63
 30
0.0
 11
148.23
 21
-38.63
 31
0.0
  0
LINE
  5
4D5
330
1F
100
AcDbEntity
  8
0
  6
Continuous
 62
     7
370
    25
100
AcDbLine
 10
147.93
 20
-38.6836541185
 30
0.0
 11
147.93
 21
-37.7763458815
 31
0.0
  0
LINE
  5
4D6
330
1F
100
AcDbEntity
  8
0
  6
Continuous
 62
     7
370
    25
100
AcDbLine
 10
148.23
 20
-37.7838495475
 30
0.0
 11
148.23
 21
-38.6761504525
 31
0.0
  0
LINE
  5
4D7
330
1F
100
AcDbEntity
  8
0
  6
Continuous
 62
     7
370
    25
100
AcDbLine
 10
147.93
 20
-36.73
 30
0.0
 11
148.23
 21
-36.73
 31
0.0
  0
LINE
  5
4D8
330
1F
100
AcDbEntity
  8
0
  6
Continuous
 62
     7
370
    25
100
AcDbLine
 10
148.23
 20
-36.63
 30
0.0
 11
147.93
 21
-36.63
 31
0.0
  0
LINE
  5
4D9
330
1F
100
AcDbEntity
  8
0
  6
Continuous
 62
     7
370
    25
100
AcDbLine
 10
148.23
 20
-37.600027
 30
0.0
 11
148.23
 21
-36.48
 31
0.0
  0
LINE
  5
4DA
330
1F
100
AcDbEntity
  8
0
  6
Continuous
 62
     7
370
    25
100
AcDbLine
 10
156.87
 20
-36.63
 30
0.0
 11
156.57
 21
-36.63
 31
0.0
  0
LINE
  5
4DB
330
1F
100
AcDbEntity
  8
0
  6
Continuous
 62
     7
370
    25
100
AcDbLine
 10
156.57
 20
-36.48
 30
0.0
 11
156.57
 21
-37.600027
 31
0.0
  0
LINE
  5
4DC
330
1F
100
AcDbEntity
  8
0
  6
Continuous
 62
     7
370
    25
100
AcDbLine
 10
148.23
 20
-38.53
 30
0.0
 11
147.93
 21
-38.53
 31
0.0
  0
LINE
  5
4DD
330
1F
100
AcDbEntity
  8
0
  6
Continuous
 62
     7
370
    25
100
AcDbLine
 10
149.305
 20
-37.08
 30
0.0
 11
149.305
 21
-37.600027
 31
0.0
  0
LINE
  5
4DE
330
1F
100
AcDbEntity
  8
0
  6
Continuous
 62
     7
370
    25
100
AcDbLine
 10
149.055
 20
-36.83
 30
0.0
 11
149.055
 21
-36.48
 31
0.0
  0
LINE
  5
4DF
330
1F
100
AcDbEntity
  8
0
  6
Continuous
 62
     7
370
    25
100
AcDbLine
 10
155.745
 20
-36.48
 30
0.0
 11
155.745
 21
-36.83
 31
0.0
  0
LINE
  5
4E0
330
1F
100
AcDbEntity
  8
0
  6
Continuous
 62
     7
370
    25
100
AcDbLine
 10
155.495
 20
-37.600027
 30
0.0
 11
155.495
 21
-37.08
 31
0.0
  0
LINE
  5
4E1
330
1F
100
AcDbEntity
  8
0
  6
Continuous
 62
     7
370
    25
100
AcDbLine
 10
155.456
 20
-39.444
 30
0.0
 11
155.456
 21
-39.944
 31
0.0
  0
LINE
  5
4E2
330
1F
100
AcDbEntity
  8
0
  6
Continuous
 62
     7
370
    25
100
AcDbLine
 10
156.456
 20
-39.944
 30
0.0
 11
156.456
 21
-39.444
 31
0.0
  0
LINE
  5
4E3
330
1F
100
AcDbEntity
  8
0
  6
Continuous
 62
     7
370
    25
100
AcDbLine
 10
148.344
 20
-39.444
 30
0.0
 11
148.344
 21
-39.944
 31
0.0
  0
LINE
  5
4E4
330
1F
100
AcDbEntity
  8
0
  6
Continuous
 62
     7
370
    25
100
AcDbLine
 10
149.344
 20
-39.944
 30
0.0
 11
149.344
 21
-39.444
 31
0.0
  0
LINE
  5
4E5
330
1F
100
AcDbEntity
  8
0
  6
Continuous
 62
     7
370
    25
100
AcDbLine
 10
156.475
 20
-37.98
 30
0.0
 11
156.475
 21
-38.48
 31
0.0
  0
LINE
  5
4E6
330
1F
100
AcDbEntity
  8
0
  6
Continuous
 62
     7
370
    25
100
AcDbLine
 10
156.975
 20
-38.48
 30
0.0
 11
156.975
 21
-37.98
 31
0.0
  0
LINE
  5
4E7
330
1F
100
AcDbEntity
  8
0
  6
Continuous
 62
     7
370
    25
100
AcDbLine
 10
147.825
 20
-37.98
 30
0.0
 11
147.825
 21
-38.48
 31
0.0
  0
LINE
  5
4E8
330
1F
100
AcDbEntity
  8
0
  6
Continuous
 62
     7
370
    25
100
AcDbLine
 10
148.325
 20
-38.48
 30
0.0
 11
148.325
 21
-37.98
 31
0.0
  0
LINE
  5
4E9
330
1F
100
AcDbEntity
  8
0
  6
Continuous
 62
     7
370
    25
100
AcDbLine
 10
258.9903831028
 20
-80.6113257376
 30
0.0
 11
258.9529746929
 21
-81.1600520909
 31
0.0
  0
LINE
  5
4EA
330
1F
100
AcDbEntity
  8
0
  6
Continuous
 62
     7
370
    25
100
AcDbLine
 10
260.3996168972
 20
-81.2586742624
 30
0.0
 11
260.4370253071
 21
-80.709947909
 31
0.0
  0
LINE
  5
4EB
330
1F
100
AcDbEntity
  8
0
  6
Continuous
 62
     7
370
    25
100
AcDbLine
 10
260.3996168972
 20
-100.3086742624
 30
0.0
 11
260.4370253071
 21
-99.759947909
 31
0.0
  0
LINE
  5
4EC
330
1F
100
AcDbEntity
  8
0
  6
Continuous
 62
     7
370
    25
100
AcDbLine
 10
258.9903831028
 20
-99.6613257376
 30
0.0
 11
258.9529746929
 21
-100.2100520909
 31
0.0
  0
LINE
  5
4ED
330
1F
100
AcDbEntity
  8
0
  6
Continuous
 62
     7
370
    25
100
AcDbLine
 10
254.2278831028
 20
-61.5613257376
 30
0.0
 11
254.1904746929
 21
-62.1100520909
 31
0.0
  0
LINE
  5
4EE
330
1F
100
AcDbEntity
  8
0
  6
Continuous
 62
     7
370
    25
100
AcDbLine
 10
255.6371168972
 20
-62.2086742624
 30
0.0
 11
255.6745253071
 21
-61.6599479091
 31
0.0
  0
LINE
  5
4EF
330
1F
100
AcDbEntity
  8
0
  6
Continuous
 62
     7
370
    25
100
AcDbLine
 10
258.9903831028
 20
-61.5613257376
 30
0.0
 11
258.9529746929
 21
-62.1100520909
 31
0.0
  0
LINE
  5
4F0
330
1F
100
AcDbEntity
  8
0
  6
Continuous
 62
     7
370
    25
100
AcDbLine
 10
260.3996168972
 20
-62.2086742624
 30
0.0
 11
260.4370253071
 21
-61.6599479091
 31
0.0
  0
LINE
  5
4F1
330
1F
100
AcDbEntity
  8
0
  6
Continuous
 62
     7
370
    25
100
AcDbLine
 10
258.9903831028
 20
-42.5113257376
 30
0.0
 11
258.9529746929
 21
-43.0600520909
 31
0.0
  0
LINE
  5
4F2
330
1F
100
AcDbEntity
  8
0
  6
Continuous
 62
     7
370
    25
100
AcDbLine
 10
260.3996168972
 20
-43.1586742624
 30
0.0
 11
260.4370253071
 21
-42.609947909
 31
0.0
  0
LINE
  5
4F3
330
1F
100
AcDbEntity
  8
0
  6
Continuous
 62
     7
370
    25
100
AcDbLine
 10
50.8496168972
 20
-81.2586742624
 30
0.0
 11
50.8870253071
 21
-80.709947909
 31
0.0
  0
LINE
  5
4F4
330
1F
100
AcDbEntity
  8
0
  6
Continuous
 62
     7
370
    25
100
AcDbLine
 10
49.4403831028
 20
-80.6113257376
 30
0.0
 11
49.4029746929
 21
-81.1600520909
 31
0.0
  0
LINE
  5
4F5
330
1F
100
AcDbEntity
  8
0
  6
Continuous
 62
     7
370
    25
100
AcDbLine
 10
49.4403831028
 20
-99.6613257376
 30
0.0
 11
49.4029746929
 21
-100.2100520909
 31
0.0
  0
LINE
  5
4F6
330
1F
100
AcDbEntity
  8
0
  6
Continuous
 62
     7
370
    25
100
AcDbLine
 10
50.8496168972
 20
-100.3086742624
 30
0.0
 11
50.8870253071
 21
-99.759947909
 31
0.0
  0
LINE
  5
4F7
330
1F
100
AcDbEntity
  8
0
  6
Continuous
 62
     7
370
    25
100
AcDbLine
 10
50.8496168972
 20
-62.2086742624
 30
0.0
 11
50.8870253071
 21
-61.6599479091
 31
0.0
  0
LINE
  5
4F8
330
1F
100
AcDbEntity
  8
0
  6
Continuous
 62
     7
370
    25
100
AcDbLine
 10
49.4403831028
 20
-61.5613257376
 30
0.0
 11
49.4029746929
 21
-62.1100520909
 31
0.0
  0
LINE
  5
4F9
330
1F
100
AcDbEntity
  8
0
  6
Continuous
 62
     7
370
    25
100
AcDbLine
 10
69.8996168972
 20
-43.1586742624
 30
0.0
 11
69.9370253071
 21
-42.609947909
 31
0.0
  0
LINE
  5
4FA
330
1F
100
AcDbEntity
  8
0
  6
Continuous
 62
     7
370
    25
100
AcDbLine
 10
68.4903831028
 20
-42.5113257376
 30
0.0
 11
68.4529746929
 21
-43.0600520909
 31
0.0
  0
LINE
  5
4FB
330
1F
100
AcDbEntity
  8
0
  6
Continuous
 62
     7
370
    25
100
AcDbLine
 10
107.9996168972
 20
-43.1586742624
 30
0.0
 11
108.0370253071
 21
-42.609947909
 31
0.0
  0
LINE
  5
4FC
330
1F
100
AcDbEntity
  8
0
  6
Continuous
 62
     7
370
    25
100
AcDbLine
 10
106.5903831028
 20
-42.5113257376
 30
0.0
 11
106.5529746929
 21
-43.0600520909
 31
0.0
  0
LINE
  5
4FD
330
1F
100
AcDbEntity
  8
0
  6
Continuous
 62
     7
370
    25
100
AcDbLine
 10
88.9496168972
 20
-43.1586742624
 30
0.0
 11
88.9870253071
 21
-42.609947909
 31
0.0
  0
LINE
  5
4FE
330
1F
100
AcDbEntity
  8
0
  6
Continuous
 62
     7
370
    25
100
AcDbLine
 10
87.5403831028
 20
-42.5113257376
 30
0.0
 11
87.5029746929
 21
-43.0600520909
 31
0.0
  0
LINE
  5
4FF
330
1F
100
AcDbEntity
  8
0
  6
Continuous
 62
     7
370
    25
100
AcDbLine
 10
127.0496168972
 20
-43.1586742624
 30
0.0
 11
127.0870253071
 21
-42.609947909
 31
0.0
  0
LINE
  5
500
330
1F
100
AcDbEntity
  8
0
  6
Continuous
 62
     7
370
    25
100
AcDbLine
 10
125.6403831028
 20
-42.5113257376
 30
0.0
 11
125.6029746929
 21
-43.0600520909
 31
0.0
  0
LINE
  5
501
330
1F
100
AcDbEntity
  8
0
  6
Continuous
 62
     7
370
    25
100
AcDbLine
 10
116.1153831028
 20
-61.5613257376
 30
0.0
 11
116.0779746929
 21
-62.1100520909
 31
0.0
  0
LINE
  5
502
330
1F
100
AcDbEntity
  8
0
  6
Continuous
 62
     7
370
    25
100
AcDbLine
 10
117.5246168972
 20
-62.2086742624
 30
0.0
 11
117.5620253071
 21
-61.6599479091
 31
0.0
  0
LINE
  5
503
330
1F
100
AcDbEntity
  8
0
  6
Continuous
 62
     7
370
    25
100
AcDbLine
 10
154.2153831028
 20
-61.5613257376
 30
0.0
 11
154.1779746929
 21
-62.1100520909
 31
0.0
  0
LINE
  5
504
330
1F
100
AcDbEntity
  8
0
  6
Continuous
 62
     7
370
    25
100
AcDbLine
 10
155.6246168972
 20
-62.2086742624
 30
0.0
 11
155.6620253071
 21
-61.6599479091
 31
0.0
  0
LINE
  5
505
330
1F
100
AcDbEntity
  8
0
  6
Continuous
 62
     7
370
    25
100
AcDbLine
 10
156.975
 20
-42.91
 30
0.0
 11
156.975
 21
-41.91
 31
0.0
  0
LINE
  5
506
330
1F
100
AcDbEntity
  8
0
  6
Continuous
 62
     7
370
    25
100
AcDbLine
 10
156.475
 20
-41.91
 30
0.0
 11
156.475
 21
-42.91
 31
0.0
  0
LINE
  5
507
330
1F
100
AcDbEntity
  8
0
  6
Continuous
 62
     7
370
    25
100
AcDbLine
 10
165.1496168972
 20
-62.2086742624
 30
0.0
 11
165.1870253071
 21
-61.6599479091
 31
0.0
  0
LINE
  5
508
330
1F
100
AcDbEntity
  8
0
  6
Continuous
 62
     7
370
    25
100
AcDbLine
 10
163.7403831028
 20
-61.5613257376
 30
0.0
 11
163.7029746929
 21
-62.1100520909
 31
0.0
  0
LINE
  5
509
330
1F
100
AcDbEntity
  8
0
  6
Continuous
 62
     7
370
    25
100
AcDbLine
 10
163.7403831028
 20
-42.5113257376
 30
0.0
 11
163.7029746929
 21
-43.0600520909
 31
0.0
  0
LINE
  5
50A
330
1F
100
AcDbEntity
  8
0
  6
Continuous
 62
     7
370
    25
100
AcDbLine
 10
165.1496168972
 20
-43.1586742624
 30
0.0
 11
165.1870253071
 21
-42.609947909
 31
0.0
  0
LINE
  5
50B
330
1F
100
AcDbEntity
  8
0
  6
Continuous
 62
     7
370
    25
100
AcDbLine
 10
163.7403831028
 20
-80.6113257376
 30
0.0
 11
163.7029746929
 21
-81.1600520909
 31
0.0
  0
LINE
  5
50C
330
1F
100
AcDbEntity
  8
0
  6
Continuous
 62
     7
370
    25
100
AcDbLine
 10
165.1496168972
 20
-81.2586742624
 30
0.0
 11
165.1870253071
 21
-80.709947909
 31
0.0
  0
LINE
  5
50D
330
1F
100
AcDbEntity
  8
0
  6
Continuous
 62
     7
370
    25
100
AcDbLine
 10
201.8403831028
 20
-42.5113257376
 30
0.0
 11
201.8029746929
 21
-43.0600520909
 31
0.0
  0
LINE
  5
50E
330
1F
100
AcDbEntity
  8
0
  6
Continuous
 62
     7
370
    25
100
AcDbLine
 10
203.2496168972
 20
-43.1586742624
 30
0.0
 11
203.2870253071
 21
-42.609947909
 31
0.0
  0
LINE
  5
50F
330
1F
100
AcDbEntity
  8
0
  6
Continuous
 62
     7
370
    25
100
AcDbLine
 10
201.8403831028
 20
-80.6113257376
 30
0.0
 11
201.8029746929
 21
-81.1600520909
 31
0.0
  0
LINE
  5
510
330
1F
100
AcDbEntity
  8
0
  6
Continuous
 62
     7
370
    25
100
AcDbLine
 10
203.2496168972
 20
-81.2586742624
 30
0.0
 11
203.2870253071
 21
-80.709947909
 31
0.0
  0
LINE
  5
511
330
1F
100
AcDbEntity
  8
0
  6
Continuous
 62
     7
370
    25
100
AcDbLine
 10
239.9403831028
 20
-99.6613257376
 30
0.0
 11
239.9029746929
 21
-100.2100520909
 31
0.0
  0
LINE
  5
512
330
1F
100
AcDbEntity
  8
0
  6
Continuous
 62
     7
370
    25
100
AcDbLine
 10
241.3496168972
 20
-100.3086742624
 30
0.0
 11
241.3870253071
 21
-99.759947909
 31
0.0
  0
LINE
  5
513
330
1F
100
AcDbEntity
  8
0
  6
Continuous
 62
     7
370
    25
100
AcDbLine
 10
241.3496168972
 20
-62.2086742624
 30
0.0
 11
241.3870253071
 21
-61.6599479091
 31
0.0
  0
LINE
  5
514
330
1F
100
AcDbEntity
  8
0
  6
Continuous
 62
     7
370
    25
100
AcDbLine
 10
239.9403831028
 20
-61.5613257376
 30
0.0
 11
239.9029746929
 21
-62.1100520909
 31
0.0
  0
LINE
  5
515
330
1F
100
AcDbEntity
  8
0
  6
Continuous
 62
     7
370
    25
100
AcDbLine
 10
231.8246168972
 20
-62.2086742624
 30
0.0
 11
231.8620253071
 21
-61.6599479091
 31
0.0
  0
LINE
  5
516
330
1F
100
AcDbEntity
  8
0
  6
Continuous
 62
     7
370
    25
100
AcDbLine
 10
230.4153831028
 20
-61.5613257376
 30
0.0
 11
230.3779746929
 21
-62.1100520909
 31
0.0
  0
LINE
  5
517
330
1F
100
AcDbEntity
  8
0
  6
Continuous
 62
     7
370
    25
100
AcDbLine
 10
241.3496168972
 20
-81.2586742624
 30
0.0
 11
241.3870253071
 21
-80.709947909
 31
0.0
  0
LINE
  5
518
330
1F
100
AcDbEntity
  8
0
  6
Continuous
 62
     7
370
    25
100
AcDbLine
 10
239.9403831028
 20
-80.6113257376
 30
0.0
 11
239.9029746929
 21
-81.1600520909
 31
0.0
  0
LINE
  5
519
330
1F
100
AcDbEntity
  8
0
  6
Continuous
 62
     7
370
    25
100
AcDbLine
 10
220.8903831028
 20
-61.5613257376
 30
0.0
 11
220.8529746929
 21
-62.1100520909
 31
0.0
  0
LINE
  5
51A
330
1F
100
AcDbEntity
  8
0
  6
Continuous
 62
     7
370
    25
100
AcDbLine
 10
222.2996168972
 20
-62.2086742624
 30
0.0
 11
222.3370253071
 21
-61.6599479091
 31
0.0
  0
LINE
  5
51B
330
1F
100
AcDbEntity
  8
0
  6
Continuous
 62
     7
370
    25
100
AcDbLine
 10
220.8903831028
 20
-80.6113257376
 30
0.0
 11
220.8529746929
 21
-81.1600520909
 31
0.0
  0
LINE
  5
51C
330
1F
100
AcDbEntity
  8
0
  6
Continuous
 62
     7
370
    25
100
AcDbLine
 10
222.2996168972
 20
-81.2586742624
 30
0.0
 11
222.3370253071
 21
-80.709947909
 31
0.0
  0
LINE
  5
51D
330
1F
100
AcDbEntity
  8
0
  6
Continuous
 62
     7
370
    25
100
AcDbLine
 10
222.2996168972
 20
-43.1586742624
 30
0.0
 11
222.3370253071
 21
-42.609947909
 31
0.0
  0
LINE
  5
51E
330
1F
100
AcDbEntity
  8
0
  6
Continuous
 62
     7
370
    25
100
AcDbLine
 10
220.8903831028
 20
-42.5113257376
 30
0.0
 11
220.8529746929
 21
-43.0600520909
 31
0.0
  0
LINE
  5
51F
330
1F
100
AcDbEntity
  8
0
  6
Continuous
 62
     7
370
    25
100
AcDbLine
 10
241.3496168972
 20
-43.1586742624
 30
0.0
 11
241.3870253071
 21
-42.609947909
 31
0.0
  0
LINE
  5
520
330
1F
100
AcDbEntity
  8
0
  6
Continuous
 62
     7
370
    25
100
AcDbLine
 10
239.9403831028
 20
-42.5113257376
 30
0.0
 11
239.9029746929
 21
-43.0600520909
 31
0.0
  0
LINE
  5
521
330
1F
100
AcDbEntity
  8
0
  6
Continuous
 62
     7
370
    25
100
AcDbLine
 10
184.1996168972
 20
-43.1586742624
 30
0.0
 11
184.2370253071
 21
-42.609947909
 31
0.0
  0
LINE
  5
522
330
1F
100
AcDbEntity
  8
0
  6
Continuous
 62
     7
370
    25
100
AcDbLine
 10
182.7903831028
 20
-42.5113257376
 30
0.0
 11
182.7529746929
 21
-43.0600520909
 31
0.0
  0
LINE
  5
523
330
1F
100
AcDbEntity
  8
0
  6
Continuous
 62
     7
370
    25
100
AcDbLine
 10
174.6746168972
 20
-62.2086742624
 30
0.0
 11
174.7120253071
 21
-61.6599479091
 31
0.0
  0
LINE
  5
524
330
1F
100
AcDbEntity
  8
0
  6
Continuous
 62
     7
370
    25
100
AcDbLine
 10
173.2653831028
 20
-61.5613257376
 30
0.0
 11
173.2279746929
 21
-62.1100520909
 31
0.0
  0
LINE
  5
525
330
1F
100
AcDbEntity
  8
0
  6
Continuous
 62
     7
370
    25
100
AcDbLine
 10
184.1996168972
 20
-62.2086742624
 30
0.0
 11
184.2370253071
 21
-61.6599479091
 31
0.0
  0
LINE
  5
526
330
1F
100
AcDbEntity
  8
0
  6
Continuous
 62
     7
370
    25
100
AcDbLine
 10
182.7903831028
 20
-61.5613257376
 30
0.0
 11
182.7529746929
 21
-62.1100520909
 31
0.0
  0
LINE
  5
527
330
1F
100
AcDbEntity
  8
0
  6
Continuous
 62
     7
370
    25
100
AcDbLine
 10
192.3153831028
 20
-61.5613257376
 30
0.0
 11
192.2779746929
 21
-62.1100520909
 31
0.0
  0
LINE
  5
528
330
1F
100
AcDbEntity
  8
0
  6
Continuous
 62
     7
370
    25
100
AcDbLine
 10
193.7246168972
 20
-62.2086742624
 30
0.0
 11
193.7620253071
 21
-61.6599479091
 31
0.0
  0
LINE
  5
529
330
1F
100
AcDbEntity
  8
0
  6
Continuous
 62
     7
370
    25
100
AcDbLine
 10
203.2496168972
 20
-62.2086742624
 30
0.0
 11
203.2870253071
 21
-61.6599479091
 31
0.0
  0
LINE
  5
52A
330
1F
100
AcDbEntity
  8
0
  6
Continuous
 62
     7
370
    25
100
AcDbLine
 10
201.8403831028
 20
-61.5613257376
 30
0.0
 11
201.8029746929
 21
-62.1100520909
 31
0.0
  0
LINE
  5
52B
330
1F
100
AcDbEntity
  8
0
  6
Continuous
 62
     7
370
    25
100
AcDbLine
 10
211.3653831028
 20
-61.5613257376
 30
0.0
 11
211.3279746929
 21
-62.1100520909
 31
0.0
  0
LINE
  5
52C
330
1F
100
AcDbEntity
  8
0
  6
Continuous
 62
     7
370
    25
100
AcDbLine
 10
212.7746168972
 20
-62.2086742624
 30
0.0
 11
212.8120253071
 21
-61.6599479091
 31
0.0
  0
LINE
  5
52D
330
1F
100
AcDbEntity
  8
0
  6
Continuous
 62
     7
370
    25
100
AcDbLine
 10
182.7903831028
 20
-80.6113257376
 30
0.0
 11
182.7529746929
 21
-81.1600520909
 31
0.0
  0
LINE
  5
52E
330
1F
100
AcDbEntity
  8
0
  6
Continuous
 62
     7
370
    25
100
AcDbLine
 10
184.1996168972
 20
-81.2586742624
 30
0.0
 11
184.2370253071
 21
-80.709947909
 31
0.0
  0
LINE
  5
52F
330
1F
100
AcDbEntity
  8
0
  6
Continuous
 62
     7
370
    25
100
AcDbLine
 10
39.299988
 20
-114.8002
 30
0.0
 11
265.499988
 21
-114.8002
 31
0.0
  0
LINE
  5
530
330
1F
100
AcDbEntity
  8
0
  6
Continuous
 62
     7
370
    25
100
AcDbLine
 10
37.599988
 20
-39.300027
 30
0.0
 11
37.599988
 21
-113.1002
 31
0.0
  0
LINE
  5
531
330
1F
100
AcDbEntity
  8
0
  6
Continuous
 62
     7
370
    25
100
AcDbLine
 10
265.499988
 20
-37.600027
 30
0.0
 11
39.299988
 21
-37.600027
 31
0.0
  0
LINE
  5
532
330
1F
100
AcDbEntity
  8
0
  6
Continuous
 62
     7
370
    25
100
AcDbLine
 10
267.199988
 20
-113.1002
 30
0.0
 11
267.199988
 21
-39.300027
 31
0.0
  0
LINE
  5
533
330
1F
100
AcDbEntity
  8
0
  6
Continuous
 62
     7
370
    25
100
AcDbLine
 10
203.2496168972
 20
-100.3086742624
 30
0.0
 11
203.2870253071
 21
-99.759947909
 31
0.0
  0
LINE
  5
534
330
1F
100
AcDbEntity
  8
0
  6
Continuous
 62
     7
370
    25
100
AcDbLine
 10
201.8403831028
 20
-99.6613257376
 30
0.0
 11
201.8029746929
 21
-100.2100520909
 31
0.0
  0
LINE
  5
535
330
1F
100
AcDbEntity
  8
0
  6
Continuous
 62
     7
370
    25
100
AcDbLine
 10
200.8683668972
 20
-100.3086742624
 30
0.0
 11
200.9057753071
 21
-99.759947909
 31
0.0
  0
LINE
  5
536
330
1F
100
AcDbEntity
  8
0
  6
Continuous
 62
     7
370
    25
100
AcDbLine
 10
199.4591331028
 20
-99.6613257376
 30
0.0
 11
199.4217246929
 21
-100.2100520909
 31
0.0
  0
LINE
  5
537
330
1F
100
AcDbEntity
  8
0
  6
Continuous
 62
     7
370
    25
100
AcDbLine
 10
222.2996168972
 20
-100.3086742624
 30
0.0
 11
222.3370253071
 21
-99.759947909
 31
0.0
  0
LINE
  5
538
330
1F
100
AcDbEntity
  8
0
  6
Continuous
 62
     7
370
    25
100
AcDbLine
 10
220.8903831028
 20
-99.6613257376
 30
0.0
 11
220.8529746929
 21
-100.2100520909
 31
0.0
  0
LINE
  5
539
330
1F
100
AcDbEntity
  8
0
  6
Continuous
 62
     7
370
    25
100
AcDbLine
 10
172.2933668972
 20
-100.3086742624
 30
0.0
 11
172.3307753071
 21
-99.759947909
 31
0.0
  0
LINE
  5
53A
330
1F
100
AcDbEntity
  8
0
  6
Continuous
 62
     7
370
    25
100
AcDbLine
 10
170.8841331028
 20
-99.6613257376
 30
0.0
 11
170.8467246929
 21
-100.2100520909
 31
0.0
  0
LINE
  5
53B
330
1F
100
AcDbEntity
  8
0
  6
Continuous
 62
     7
370
    25
100
AcDbLine
 10
173.2653831028
 20
-99.6613257376
 30
0.0
 11
173.2279746929
 21
-100.2100520909
 31
0.0
  0
LINE
  5
53C
330
1F
100
AcDbEntity
  8
0
  6
Continuous
 62
     7
370
    25
100
AcDbLine
 10
174.6746168972
 20
-100.3086742624
 30
0.0
 11
174.7120253071
 21
-99.759947909
 31
0.0
  0
LINE
  5
53D
330
1F
100
AcDbEntity
  8
0
  6
Continuous
 62
     7
370
    25
100
AcDbLine
 10
88.9496168972
 20
-100.3086742624
 30
0.0
 11
88.9870253071
 21
-99.759947909
 31
0.0
  0
LINE
  5
53E
330
1F
100
AcDbEntity
  8
0
  6
Continuous
 62
     7
370
    25
100
AcDbLine
 10
87.5403831028
 20
-99.6613257376
 30
0.0
 11
87.5029746929
 21
-100.2100520909
 31
0.0
  0
LINE
  5
53F
330
1F
100
AcDbEntity
  8
0
  6
Continuous
 62
     7
370
    25
100
AcDbLine
 10
69.8996168972
 20
-100.3086742624
 30
0.0
 11
69.9370253071
 21
-99.759947909
 31
0.0
  0
LINE
  5
540
330
1F
100
AcDbEntity
  8
0
  6
Continuous
 62
     7
370
    25
100
AcDbLine
 10
68.4903831028
 20
-99.6613257376
 30
0.0
 11
68.4529746929
 21
-100.2100520909
 31
0.0
  0
LINE
  5
541
330
1F
100
AcDbEntity
  8
0
  6
Continuous
 62
     7
370
    25
100
AcDbLine
 10
135.1653831028
 20
-99.6613257376
 30
0.0
 11
135.1279746929
 21
-100.2100520909
 31
0.0
  0
LINE
  5
542
330
1F
100
AcDbEntity
  8
0
  6
Continuous
 62
     7
370
    25
100
AcDbLine
 10
136.5746168972
 20
-100.3086742624
 30
0.0
 11
136.6120253071
 21
-99.759947909
 31
0.0
  0
LINE
  5
543
330
1F
100
AcDbEntity
  8
0
  6
Continuous
 62
     7
370
    25
100
AcDbLine
 10
137.5466331028
 20
-99.6613257376
 30
0.0
 11
137.5092246929
 21
-100.2100520909
 31
0.0
  0
LINE
  5
544
330
1F
100
AcDbEntity
  8
0
  6
Continuous
 62
     7
370
    25
100
AcDbLine
 10
138.9558668972
 20
-100.3086742624
 30
0.0
 11
138.9932753071
 21
-99.759947909
 31
0.0
  0
LINE
  5
545
330
1F
100
AcDbEntity
  8
0
  6
Continuous
 62
     7
370
    25
100
AcDbLine
 10
110.3808668972
 20
-100.3086742624
 30
0.0
 11
110.4182753071
 21
-99.759947909
 31
0.0
  0
LINE
  5
546
330
1F
100
AcDbEntity
  8
0
  6
Continuous
 62
     7
370
    25
100
AcDbLine
 10
108.9716331028
 20
-99.6613257376
 30
0.0
 11
108.9342246929
 21
-100.2100520909
 31
0.0
  0
LINE
  5
547
330
1F
100
AcDbEntity
  8
0
  6
Continuous
 62
     7
370
    25
100
AcDbLine
 10
106.5903831028
 20
-99.6613257376
 30
0.0
 11
106.5529746929
 21
-100.2100520909
 31
0.0
  0
LINE
  5
548
330
1F
100
AcDbEntity
  8
0
  6
Continuous
 62
     7
370
    25
100
AcDbLine
 10
107.9996168972
 20
-100.3086742624
 30
0.0
 11
108.0370253071
 21
-99.759947909
 31
0.0
  0
LINE
  5
549
330
1F
100
AcDbEntity
  8
0
  6
Continuous
 62
     7
370
    25
100
AcDbLine
 10
49.4403831028
 20
-42.5113257376
 30
0.0
 11
49.4029746929
 21
-43.0600520909
 31
0.0
  0
LINE
  5
54A
330
1F
100
AcDbEntity
  8
0
  6
Continuous
 62
     7
370
    25
100
AcDbLine
 10
50.8496168972
 20
-43.1586742624
 30
0.0
 11
50.8870253071
 21
-42.609947909
 31
0.0
  0
LINE
  5
54B
330
1F
100
AcDbEntity
  8
0
  6
Continuous
 62
     7
370
    25
100
AcDbLine
 10
54.2028831028
 20
-61.5613257376
 30
0.0
 11
54.1654746929
 21
-62.1100520909
 31
0.0
  0
LINE
  5
54C
330
1F
100
AcDbEntity
  8
0
  6
Continuous
 62
     7
370
    25
100
AcDbLine
 10
55.6121168972
 20
-62.2086742624
 30
0.0
 11
55.6495253071
 21
-61.6599479091
 31
0.0
  0
LINE
  5
54D
330
1F
100
AcDbEntity
  8
0
  6
Continuous
 62
     7
370
    25
100
AcDbLine
 10
148.325
 20
-42.91
 30
0.0
 11
148.325
 21
-41.91
 31
0.0
  0
LINE
  5
54E
330
1F
100
AcDbEntity
  8
0
  6
Continuous
 62
     7
370
    25
100
AcDbLine
 10
147.825
 20
-41.91
 30
0.0
 11
147.825
 21
-42.91
 31
0.0
  0
LINE
  5
54F
330
1F
100
AcDbEntity
  8
0
  6
Continuous
 62
     7
370
    25
100
AcDbLine
 10
144.6903831028
 20
-80.6113257376
 30
0.0
 11
144.6529746929
 21
-81.1600520909
 31
0.0
  0
LINE
  5
550
330
1F
100
AcDbEntity
  8
0
  6
Continuous
 62
     7
370
    25
100
AcDbLine
 10
146.0996168972
 20
-81.2586742624
 30
0.0
 11
146.1370253071
 21
-80.709947909
 31
0.0
  0
LINE
  5
551
330
1F
100
AcDbEntity
  8
0
  6
Continuous
 62
     7
370
    25
100
AcDbLine
 10
107.9996168972
 20
-81.2586742624
 30
0.0
 11
108.0370253071
 21
-80.709947909
 31
0.0
  0
LINE
  5
552
330
1F
100
AcDbEntity
  8
0
  6
Continuous
 62
     7
370
    25
100
AcDbLine
 10
106.5903831028
 20
-80.6113257376
 30
0.0
 11
106.5529746929
 21
-81.1600520909
 31
0.0
  0
LINE
  5
553
330
1F
100
AcDbEntity
  8
0
  6
Continuous
 62
     7
370
    25
100
AcDbLine
 10
127.0496168972
 20
-81.2586742624
 30
0.0
 11
127.0870253071
 21
-80.709947909
 31
0.0
  0
LINE
  5
554
330
1F
100
AcDbEntity
  8
0
  6
Continuous
 62
     7
370
    25
100
AcDbLine
 10
125.6403831028
 20
-80.6113257376
 30
0.0
 11
125.6029746929
 21
-81.1600520909
 31
0.0
  0
LINE
  5
555
330
1F
100
AcDbEntity
  8
0
  6
Continuous
 62
     7
370
    25
100
AcDbLine
 10
68.4903831028
 20
-80.6113257376
 30
0.0
 11
68.4529746929
 21
-81.1600520909
 31
0.0
  0
LINE
  5
556
330
1F
100
AcDbEntity
  8
0
  6
Continuous
 62
     7
370
    25
100
AcDbLine
 10
69.8996168972
 20
-81.2586742624
 30
0.0
 11
69.9370253071
 21
-80.709947909
 31
0.0
  0
LINE
  5
557
330
1F
100
AcDbEntity
  8
0
  6
Continuous
 62
     7
370
    25
100
AcDbLine
 10
88.9496168972
 20
-81.2586742624
 30
0.0
 11
88.9870253071
 21
-80.709947909
 31
0.0
  0
LINE
  5
558
330
1F
100
AcDbEntity
  8
0
  6
Continuous
 62
     7
370
    25
100
AcDbLine
 10
87.5403831028
 20
-80.6113257376
 30
0.0
 11
87.5029746929
 21
-81.1600520909
 31
0.0
  0
LINE
  5
559
330
1F
100
AcDbEntity
  8
0
  6
Continuous
 62
     7
370
    25
100
AcDbLine
 10
144.6903831028
 20
-42.5113257376
 30
0.0
 11
144.6529746929
 21
-43.0600520909
 31
0.0
  0
LINE
  5
55A
330
1F
100
AcDbEntity
  8
0
  6
Continuous
 62
     7
370
    25
100
AcDbLine
 10
146.0996168972
 20
-43.1586742624
 30
0.0
 11
146.1370253071
 21
-42.609947909
 31
0.0
  0
LINE
  5
55B
330
1F
100
AcDbEntity
  8
0
  6
Continuous
 62
     7
370
    25
100
AcDbLine
 10
68.4903831028
 20
-61.5613257376
 30
0.0
 11
68.4529746929
 21
-62.1100520909
 31
0.0
  0
LINE
  5
55C
330
1F
100
AcDbEntity
  8
0
  6
Continuous
 62
     7
370
    25
100
AcDbLine
 10
69.8996168972
 20
-62.2086742624
 30
0.0
 11
69.9370253071
 21
-61.6599479091
 31
0.0
  0
LINE
  5
55D
330
1F
100
AcDbEntity
  8
0
  6
Continuous
 62
     7
370
    25
100
AcDbLine
 10
107.9996168972
 20
-62.2086742624
 30
0.0
 11
108.0370253071
 21
-61.6599479091
 31
0.0
  0
LINE
  5
55E
330
1F
100
AcDbEntity
  8
0
  6
Continuous
 62
     7
370
    25
100
AcDbLine
 10
106.5903831028
 20
-61.5613257376
 30
0.0
 11
106.5529746929
 21
-62.1100520909
 31
0.0
  0
LINE
  5
55F
330
1F
100
AcDbEntity
  8
0
  6
Continuous
 62
     7
370
    25
100
AcDbLine
 10
88.9496168972
 20
-62.2086742624
 30
0.0
 11
88.9870253071
 21
-61.6599479091
 31
0.0
  0
LINE
  5
560
330
1F
100
AcDbEntity
  8
0
  6
Continuous
 62
     7
370
    25
100
AcDbLine
 10
87.5403831028
 20
-61.5613257376
 30
0.0
 11
87.5029746929
 21
-62.1100520909
 31
0.0
  0
LINE
  5
561
330
1F
100
AcDbEntity
  8
0
  6
Continuous
 62
     7
370
    25
100
AcDbLine
 10
97.0653831028
 20
-61.5613257376
 30
0.0
 11
97.0279746929
 21
-62.1100520909
 31
0.0
  0
LINE
  5
562
330
1F
100
AcDbEntity
  8
0
  6
Continuous
 62
     7
370
    25
100
AcDbLine
 10
98.4746168972
 20
-62.2086742624
 30
0.0
 11
98.5120253071
 21
-61.6599479091
 31
0.0
  0
LINE
  5
563
330
1F
100
AcDbEntity
  8
0
  6
Continuous
 62
     7
370
    25
100
AcDbLine
 10
79.4246168972
 20
-62.2086742624
 30
0.0
 11
79.4620253071
 21
-61.6599479091
 31
0.0
  0
LINE
  5
564
330
1F
100
AcDbEntity
  8
0
  6
Continuous
 62
     7
370
    25
100
AcDbLine
 10
78.0153831028
 20
-61.5613257376
 30
0.0
 11
77.9779746929
 21
-62.1100520909
 31
0.0
  0
LINE
  5
565
330
1F
100
AcDbEntity
  8
0
  6
Continuous
 62
     7
370
    25
100
AcDbLine
 10
125.6403831028
 20
-61.5613257376
 30
0.0
 11
125.6029746929
 21
-62.1100520909
 31
0.0
  0
LINE
  5
566
330
1F
100
AcDbEntity
  8
0
  6
Continuous
 62
     7
370
    25
100
AcDbLine
 10
127.0496168972
 20
-62.2086742624
 30
0.0
 11
127.0870253071
 21
-61.6599479091
 31
0.0
  0
LINE
  5
567
330
1F
100
AcDbEntity
  8
0
  6
Continuous
 62
     7
370
    25
100
AcDbLine
 10
136.5746168972
 20
-62.2086742624
 30
0.0
 11
136.6120253071
 21
-61.6599479091
 31
0.0
  0
LINE
  5
568
330
1F
100
AcDbEntity
  8
0
  6
Continuous
 62
     7
370
    25
100
AcDbLine
 10
135.1653831028
 20
-61.5613257376
 30
0.0
 11
135.1279746929
 21
-62.1100520909
 31
0.0
  0
LINE
  5
569
330
1F
100
AcDbEntity
  8
0
  6
Continuous
 62
     7
370
    25
100
AcDbLine
 10
146.0996168972
 20
-62.2086742624
 30
0.0
 11
146.1370253071
 21
-61.6599479091
 31
0.0
  0
LINE
  5
56A
330
1F
100
AcDbEntity
  8
0
  6
Continuous
 62
     7
370
    25
100
AcDbLine
 10
144.6903831028
 20
-61.5613257376
 30
0.0
 11
144.6529746929
 21
-62.1100520909
 31
0.0
  0
LINE
  5
56B
330
1F
100
AcDbEntity
  8
0
  6
Continuous
 62
     8
370
    25
100
AcDbLine
 10
154.37
 20
-37.600027
 30
0.0
 11
154.37
 21
-36.88
 31
0.0
  0
LINE
  5
56C
330
1F
100
AcDbEntity
  8
0
  6
Continuous
 62
     8
370
    25
100
AcDbLine
 10
150.43
 20
-36.88
 30
0.0
 11
150.43
 21
-37.600027
 31
0.0
  0
LINE
  5
56D
330
1F
100
AcDbEntity
  8
0
  6
Continuous
 62
     8
370
    25
100
AcDbLine
 10
153.58
 20
-36.88
 30
0.0
 11
153.58
 21
-37.600027
 31
0.0
  0
LINE
  5
56E
330
1F
100
AcDbEntity
  8
0
  6
Continuous
 62
     8
370
    25
100
AcDbLine
 10
151.22
 20
-37.600027
 30
0.0
 11
151.22
 21
-36.88
 31
0.0
  0
LINE
  5
56F
330
1F
100
AcDbEntity
  8
0
  6
Continuous
 62
     8
370
    25
100
AcDbLine
 10
155.57
 20
-40.2618112647
 30
0.0
 11
155.57
 21
-39.1261887353
 31
0.0
  0
LINE
  5
570
330
1F
100
AcDbEntity
  8
0
  6
Continuous
 62
     8
370
    25
100
AcDbLine
 10
149.23
 20
-40.2618112647
 30
0.0
 11
149.23
 21
-39.1261887353
 31
0.0
  0
LINE
  5
571
330
1F
100
AcDbEntity
  8
0
  6
Continuous
 62
     8
370
    25
100
AcDbLine
 10
155.0832526015
 20
-41.6592401284
 30
0.0
 11
155.125
 21
-41.6592401284
 31
0.0
  0
LINE
  5
572
330
1F
100
AcDbEntity
  8
0
  6
Continuous
 62
     8
370
    25
100
AcDbLine
 10
155.36
 20
-42.2273720215
 30
0.0
 11
155.36
 21
-41.5926279785
 31
0.0
  0
LINE
  5
573
330
1F
100
AcDbEntity
  8
0
  6
Continuous
 62
     8
370
    25
100
AcDbLine
 10
149.44
 20
-42.2273720215
 30
0.0
 11
149.44
 21
-41.98
 31
0.0
  0
LINE
  5
574
330
1F
100
AcDbEntity
  8
0
  6
Continuous
 62
     8
370
    25
100
AcDbLine
 10
153.2
 20
-36.6628427125
 30
0.0
 11
153.16
 21
-36.6628427125
 31
0.0
  0
LINE
  5
575
330
1F
100
AcDbEntity
  8
0
  6
Continuous
 62
     8
370
    25
100
AcDbLine
 10
149.23
 20
-37.600027
 30
0.0
 11
149.23
 21
-36.9014642893
 31
0.0
  0
LINE
  5
576
330
1F
100
AcDbEntity
  8
0
  6
Continuous
 62
     8
370
    25
100
AcDbLine
 10
155.57
 20
-37.600027
 30
0.0
 11
155.57
 21
-36.9014642893
 31
0.0
  0
ARC
  5
577
330
1F
100
AcDbEntity
  8
0
  6
Continuous
 62
     7
370
    25
100
AcDbCircle
 10
154.2
 20
-36.88
 30
0.0
 40
0.1700000000000159
100
AcDbArc
 50
0.0
 51
90.0
  0
ARC
  5
578
330
1F
100
AcDbEntity
  8
0
  6
Continuous
 62
     7
370
    25
100
AcDbCircle
 10
154.2
 20
-36.88
 30
0.0
 40
0.1999999999999673
100
AcDbArc
 50
360.0
 51
90.0
  0
ARC
  5
579
330
1F
100
AcDbEntity
  8
0
  6
Continuous
 62
     7
370
    25
100
AcDbCircle
 10
151.05
 20
-36.88
 30
0.0
 40
0.2000000000000455
100
AcDbArc
 50
0.0
 51
90.0
  0
ARC
  5
57A
330
1F
100
AcDbEntity
  8
0
  6
Continuous
 62
     7
370
    25
100
AcDbCircle
 10
151.05
 20
-36.88
 30
0.0
 40
0.1700000000000017
100
AcDbArc
 50
0.0
 51
90.0
  0
ARC
  5
57B
330
1F
100
AcDbEntity
  8
0
  6
Continuous
 62
     7
370
    25
100
AcDbCircle
 10
150.6
 20
-36.88
 30
0.0
 40
0.1700000000000443
100
AcDbArc
 50
90.0
 51
180.0
  0
ARC
  5
57C
330
1F
100
AcDbEntity
  8
0
  6
Continuous
 62
     7
370
    25
100
AcDbCircle
 10
150.6
 20
-36.88
 30
0.0
 40
0.2000000000000455
100
AcDbArc
 50
90.0
 51
180.0
  0
ARC
  5
57D
330
1F
100
AcDbEntity
  8
0
  6
Continuous
 62
     7
370
    25
100
AcDbCircle
 10
153.75
 20
-36.88
 30
0.0
 40
0.1700000000000301
100
AcDbArc
 50
90.0
 51
180.0
  0
ARC
  5
57E
330
1F
100
AcDbEntity
  8
0
  6
Continuous
 62
     7
370
    25
100
AcDbCircle
 10
153.75
 20
-36.88
 30
0.0
 40
0.1999999999999744
100
AcDbArc
 50
90.0
 51
180.0
  0
ARC
  5
57F
330
1F
100
AcDbEntity
  8
0
  6
Continuous
 62
     7
370
    25
100
AcDbCircle
 10
152.62
 20
-35.9875128869
 30
0.0
 40
0.2400000000007196
100
AcDbArc
 50
180.0000000001
 51
299.9999999997
  0
ARC
  5
580
330
1F
100
AcDbEntity
  8
0
  6
Continuous
 62
     7
370
    25
100
AcDbCircle
 10
153.0
 20
-36.23
 30
0.0
 40
0.1599999999999966
100
AcDbArc
 50
359.9999999998
 51
120.0
  0
ARC
  5
581
330
1F
100
AcDbEntity
  8
0
  6
Continuous
 62
     7
370
    25
100
AcDbCircle
 10
153.0
 20
-37.43
 30
0.0
 40
0.1600000000004871
100
AcDbArc
 50
240.0000000003
 51
359.9999999999
  0
ARC
  5
582
330
1F
100
AcDbEntity
  8
0
  6
Continuous
 62
     7
370
    25
100
AcDbCircle
 10
152.2
 20
-37.43
 30
0.0
 40
0.2400000000000375
100
AcDbArc
 50
60.0
 51
179.9999999999
  0
ARC
  5
583
330
1F
100
AcDbEntity
  8
0
  6
Continuous
 62
     7
370
    25
100
AcDbCircle
 10
149.18
 20
-37.23
 30
0.0
 40
0.7499999999997182
100
AcDbArc
 50
360.0
 51
86.1774462707
  0
ARC
  5
584
330
1F
100
AcDbEntity
  8
0
  6
Continuous
 62
     7
370
    25
100
AcDbCircle
 10
152.2
 20
-37.43
 30
0.0
 40
0.2000000000001218
100
AcDbArc
 50
60.0
 51
180.0
  0
ARC
  5
585
330
1F
100
AcDbEntity
  8
0
  6
Continuous
 62
     7
370
    25
100
AcDbCircle
 10
153.0
 20
-36.23
 30
0.0
 40
0.2000000000001023
100
AcDbArc
 50
0.0
 51
120.0
  0
ARC
  5
586
330
1F
100
AcDbEntity
  8
0
  6
Continuous
 62
     7
370
    25
100
AcDbCircle
 10
152.62
 20
-35.9875128869
 30
0.0
 40
0.200000000000021
100
AcDbArc
 50
180.0
 51
300.0
  0
ARC
  5
587
330
1F
100
AcDbEntity
  8
0
  6
Continuous
 62
     7
370
    25
100
AcDbCircle
 10
155.62
 20
-37.23
 30
0.0
 40
0.7500000000004552
100
AcDbArc
 50
93.8225537293
 51
180.0
  0
ARC
  5
588
330
1F
100
AcDbEntity
  8
0
  6
Continuous
 62
     7
370
    25
100
AcDbCircle
 10
153.0
 20
-37.43
 30
0.0
 40
0.1999999999992212
100
AcDbArc
 50
301.7736442379
 51
0.0000000001
  0
ARC
  5
589
330
1F
100
AcDbEntity
  8
0
  6
Continuous
 62
     7
370
    25
100
AcDbCircle
 10
149.055
 20
-37.08
 30
0.0
 40
0.3000000000000134
100
AcDbArc
 50
360.0
 51
80.4059317731
  0
ARC
  5
58A
330
1F
100
AcDbEntity
  8
0
  6
Continuous
 62
     7
370
    25
100
AcDbCircle
 10
155.745
 20
-37.08
 30
0.0
 40
0.3000000000000966
100
AcDbArc
 50
99.5940682269
 51
180.0
  0
ARC
  5
58B
330
1F
100
AcDbEntity
  8
0
  6
Continuous
 62
     7
370
    25
100
AcDbCircle
 10
149.055
 20
-37.08
 30
0.0
 40
0.2499999999999716
100
AcDbArc
 50
360.0
 51
90.0
  0
ARC
  5
58C
330
1F
100
AcDbEntity
  8
0
  6
Continuous
 62
     7
370
    25
100
AcDbCircle
 10
155.745
 20
-37.08
 30
0.0
 40
0.2499999999999787
100
AcDbArc
 50
90.0
 51
180.0
  0
ARC
  5
58D
330
1F
100
AcDbEntity
  8
0
  6
Continuous
 62
     7
370
    25
100
AcDbCircle
 10
155.956
 20
-39.944
 30
0.0
 40
0.5
100
AcDbArc
 50
180.0
 51
0.0
  0
ARC
  5
58E
330
1F
100
AcDbEntity
  8
0
  6
Continuous
 62
     7
370
    25
100
AcDbCircle
 10
155.956
 20
-39.444
 30
0.0
 40
0.5
100
AcDbArc
 50
0.0
 51
180.0
  0
ARC
  5
58F
330
1F
100
AcDbEntity
  8
0
  6
Continuous
 62
     7
370
    25
100
AcDbCircle
 10
148.844
 20
-39.944
 30
0.0
 40
0.5
100
AcDbArc
 50
180.0
 51
0.0
  0
ARC
  5
590
330
1F
100
AcDbEntity
  8
0
  6
Continuous
 62
     7
370
    25
100
AcDbCircle
 10
148.844
 20
-39.444
 30
0.0
 40
0.5
100
AcDbArc
 50
0.0
 51
180.0
  0
ARC
  5
591
330
1F
100
AcDbEntity
  8
0
  6
Continuous
 62
     7
370
    25
100
AcDbCircle
 10
156.725
 20
-37.98
 30
0.0
 40
0.25
100
AcDbArc
 50
0.0
 51
180.0
  0
ARC
  5
592
330
1F
100
AcDbEntity
  8
0
  6
Continuous
 62
     7
370
    25
100
AcDbCircle
 10
156.725
 20
-38.48
 30
0.0
 40
0.25
100
AcDbArc
 50
180.0
 51
0.0
  0
ARC
  5
593
330
1F
100
AcDbEntity
  8
0
  6
Continuous
 62
     7
370
    25
100
AcDbCircle
 10
148.075
 20
-37.98
 30
0.0
 40
0.25
100
AcDbArc
 50
0.0
 51
180.0
  0
ARC
  5
594
330
1F
100
AcDbEntity
  8
0
  6
Continuous
 62
     7
370
    25
100
AcDbCircle
 10
148.075
 20
-38.48
 30
0.0
 40
0.25
100
AcDbArc
 50
180.0
 51
0.0
  0
ARC
  5
595
330
1F
100
AcDbEntity
  8
0
  6
Continuous
 62
     7
370
    25
100
AcDbCircle
 10
259.7137042049
 20
-80.6606368233
 30
0.0
 40
0.7249999999993961
100
AcDbArc
 50
356.1000000007
 51
176.0999999989
  0
ARC
  5
596
330
1F
100
AcDbEntity
  8
0
  6
Continuous
 62
     7
370
    25
100
AcDbCircle
 10
259.6762957951
 20
-81.2093631767
 30
0.0
 40
0.7249999999994228
100
AcDbArc
 50
176.0999999998
 51
356.0999999997
  0
ARC
  5
597
330
1F
100
AcDbEntity
  8
0
  6
Continuous
 62
     7
370
    25
100
AcDbCircle
 10
259.7137042049
 20
-99.7106368233
 30
0.0
 40
0.7249999999993961
100
AcDbArc
 50
356.1000000007
 51
176.0999999989
  0
ARC
  5
598
330
1F
100
AcDbEntity
  8
0
  6
Continuous
 62
     7
370
    25
100
AcDbCircle
 10
259.6762957951
 20
-100.2593631766
 30
0.0
 40
0.7250000000004091
100
AcDbArc
 50
176.1000000034
 51
356.0999999938
  0
ARC
  5
599
330
1F
100
AcDbEntity
  8
0
  6
Continuous
 62
     7
370
    25
100
AcDbCircle
 10
254.9137957987
 20
-62.1593631769
 30
0.0
 40
0.725000003670076
100
AcDbArc
 50
176.1000000025
 51
178.223179843
  0
ARC
  5
59A
330
1F
100
AcDbEntity
  8
0
  6
Continuous
 62
     7
370
    25
100
AcDbCircle
 10
254.675
 20
-62.675
 30
0.0
 40
0.7250000000039039
100
AcDbArc
 50
132.0783091257
 51
358.2231798516
  0
ARC
  5
59B
330
1F
100
AcDbEntity
  8
0
  6
Continuous
 62
     7
370
    25
100
AcDbCircle
 10
254.913795795
 20
-62.1593631767
 30
0.0
 40
0.7250000000340773
100
AcDbArc
 50
312.0783091275
 51
356.0999999988
  0
ARC
  5
59C
330
1F
100
AcDbEntity
  8
0
  6
Continuous
 62
     7
370
    25
100
AcDbCircle
 10
254.9512042049
 20
-61.6106368233
 30
0.0
 40
0.724999999999397
100
AcDbArc
 50
356.1000000007
 51
176.0999999989
  0
ARC
  5
59D
330
1F
100
AcDbEntity
  8
0
  6
Continuous
 62
     7
370
    25
100
AcDbCircle
 10
253.375
 20
-64.135
 30
0.0
 40
0.7250000000016394
100
AcDbArc
 50
256.8827737482
 51
241.6101217685
  0
ARC
  5
59E
330
1F
100
AcDbEntity
  8
0
  6
Continuous
 62
     7
370
    25
100
AcDbCircle
 10
252.4125
 20
-66.675
 30
0.0
 40
2.000000000003775
100
AcDbArc
 50
72.0074964072
 51
66.4853991107
  0
ARC
  5
59F
330
1F
100
AcDbEntity
  8
0
  6
Continuous
 62
     7
370
    25
100
AcDbCircle
 10
259.7137042049
 20
-61.6106368233
 30
0.0
 40
0.7249999999993678
100
AcDbArc
 50
356.1000000007
 51
176.0999999989
  0
ARC
  5
5A0
330
1F
100
AcDbEntity
  8
0
  6
Continuous
 62
     7
370
    25
100
AcDbCircle
 10
259.6762957951
 20
-62.1593631767
 30
0.0
 40
0.7249999999994228
100
AcDbArc
 50
176.0999999998
 51
356.0999999997
  0
ARC
  5
5A1
330
1F
100
AcDbEntity
  8
0
  6
Continuous
 62
     7
370
    25
100
AcDbCircle
 10
259.7137042049
 20
-42.5606368233
 30
0.0
 40
0.7249999999993683
100
AcDbArc
 50
356.1000000007
 51
176.0999999989
  0
ARC
  5
5A2
330
1F
100
AcDbEntity
  8
0
  6
Continuous
 62
     7
370
    25
100
AcDbCircle
 10
259.6762957951
 20
-43.1093631767
 30
0.0
 40
0.7249999999994223
100
AcDbArc
 50
176.0999999998
 51
356.0999999997
  0
ARC
  5
5A3
330
1F
100
AcDbEntity
  8
0
  6
Continuous
 62
     7
370
    25
100
AcDbCircle
 10
50.1637042049
 20
-80.6606368233
 30
0.0
 40
0.7250000000003689
100
AcDbArc
 50
356.1000000002
 51
176.0999999994
  0
ARC
  5
5A4
330
1F
100
AcDbEntity
  8
0
  6
Continuous
 62
     7
370
    25
100
AcDbCircle
 10
50.1262957951
 20
-81.2093631767
 30
0.0
 40
0.7250000000003752
100
AcDbArc
 50
176.0999999994
 51
356.1000000002
  0
ARC
  5
5A5
330
1F
100
AcDbEntity
  8
0
  6
Continuous
 62
     7
370
    25
100
AcDbCircle
 10
50.1262957951
 20
-100.2593631766
 30
0.0
 40
0.7250000000013959
100
AcDbArc
 50
176.1000000029
 51
356.0999999943
  0
ARC
  5
5A6
330
1F
100
AcDbEntity
  8
0
  6
Continuous
 62
     7
370
    25
100
AcDbCircle
 10
50.1637042049
 20
-99.7106368233
 30
0.0
 40
0.7250000000003689
100
AcDbArc
 50
356.1000000002
 51
176.0999999994
  0
ARC
  5
5A7
330
1F
100
AcDbEntity
  8
0
  6
Continuous
 62
     7
370
    25
100
AcDbCircle
 10
50.1262957951
 20
-62.1593631767
 30
0.0
 40
0.7250000000113905
100
AcDbArc
 50
312.078309127
 51
356.0999999996
  0
ARC
  5
5A8
330
1F
100
AcDbEntity
  8
0
  6
Continuous
 62
     7
370
    25
100
AcDbCircle
 10
50.1637042049
 20
-61.6106368233
 30
0.0
 40
0.7250000000003693
100
AcDbArc
 50
356.1000000002
 51
176.0999999994
  0
ARC
  5
5A9
330
1F
100
AcDbEntity
  8
0
  6
Continuous
 62
     7
370
    25
100
AcDbCircle
 10
50.1262957916
 20
-62.1593631765
 30
0.0
 40
0.7249999965154491
100
AcDbArc
 50
176.0999999964
 51
178.2231798578
  0
ARC
  5
5AA
330
1F
100
AcDbEntity
  8
0
  6
Continuous
 62
     7
370
    25
100
AcDbCircle
 10
49.8875
 20
-62.675
 30
0.0
 40
0.7250000000038666
100
AcDbArc
 50
132.0783091259
 51
358.2231798515
  0
ARC
  5
5AB
330
1F
100
AcDbEntity
  8
0
  6
Continuous
 62
     7
370
    25
100
AcDbCircle
 10
47.625
 20
-66.675
 30
0.0
 40
2.000000000007625
100
AcDbArc
 50
72.0074964076
 51
66.4853991097
  0
ARC
  5
5AC
330
1F
100
AcDbEntity
  8
0
  6
Continuous
 62
     7
370
    25
100
AcDbCircle
 10
48.5875
 20
-64.135
 30
0.0
 40
0.7249999999998813
100
AcDbArc
 50
256.8827737503
 51
241.610121767
  0
ARC
  5
5AD
330
1F
100
AcDbEntity
  8
0
  6
Continuous
 62
     7
370
    25
100
AcDbCircle
 10
134.6199999999
 20
-109.855
 30
0.0
 40
0.500000000087709
100
AcDbArc
 50
260.8656507996
 51
99.1343491925
  0
ARC
  5
5AE
330
1F
100
AcDbEntity
  8
0
  6
Continuous
 62
     7
370
    25
100
AcDbCircle
 10
134.4612499999
 20
-109.8549999999
 30
0.0
 40
0.5000000000128179
100
AcDbArc
 50
80.8656507896
 51
279.1343492104
  0
ARC
  5
5AF
330
1F
100
AcDbEntity
  8
0
  6
Continuous
 62
     7
370
    25
100
AcDbCircle
 10
106.0449999999
 20
-109.855
 30
0.0
 40
0.5000000000877487
100
AcDbArc
 50
260.8656507996
 51
99.1343491925
  0
ARC
  5
5B0
330
1F
100
AcDbEntity
  8
0
  6
Continuous
 62
     7
370
    25
100
AcDbCircle
 10
105.8862499999
 20
-109.8549999999
 30
0.0
 40
0.5000000000128133
100
AcDbArc
 50
80.8656507896
 51
279.1343492104
  0
ARC
  5
5B1
330
1F
100
AcDbEntity
  8
0
  6
Continuous
 62
     7
370
    25
100
AcDbCircle
 10
69.2137042049
 20
-42.5606368233
 30
0.0
 40
0.7250000000003618
100
AcDbArc
 50
356.1000000002
 51
176.0999999994
  0
ARC
  5
5B2
330
1F
100
AcDbEntity
  8
0
  6
Continuous
 62
     7
370
    25
100
AcDbCircle
 10
69.1762957951
 20
-43.1093631767
 30
0.0
 40
0.7250000000003626
100
AcDbArc
 50
176.0999999994
 51
356.1000000002
  0
ARC
  5
5B3
330
1F
100
AcDbEntity
  8
0
  6
Continuous
 62
     7
370
    25
100
AcDbCircle
 10
107.2762957951
 20
-43.1093631767
 30
0.0
 40
0.72499999999937
100
AcDbArc
 50
176.0999999998
 51
356.0999999997
  0
ARC
  5
5B4
330
1F
100
AcDbEntity
  8
0
  6
Continuous
 62
     7
370
    25
100
AcDbCircle
 10
107.3137042049
 20
-42.5606368233
 30
0.0
 40
0.7249999999994005
100
AcDbArc
 50
356.1000000007
 51
176.0999999989
  0
ARC
  5
5B5
330
1F
100
AcDbEntity
  8
0
  6
Continuous
 62
     7
370
    25
100
AcDbCircle
 10
88.2262957951
 20
-43.1093631767
 30
0.0
 40
0.7250000000003612
100
AcDbArc
 50
176.0999999994
 51
356.1000000002
  0
ARC
  5
5B6
330
1F
100
AcDbEntity
  8
0
  6
Continuous
 62
     7
370
    25
100
AcDbCircle
 10
88.2637042049
 20
-42.5606368233
 30
0.0
 40
0.725000000000376
100
AcDbArc
 50
356.1000000002
 51
176.0999999994
  0
ARC
  5
5B7
330
1F
100
AcDbEntity
  8
0
  6
Continuous
 62
     7
370
    25
100
AcDbCircle
 10
126.3637042049
 20
-42.5606368233
 30
0.0
 40
0.7249999999993844
100
AcDbArc
 50
356.1000000007
 51
176.0999999989
  0
ARC
  5
5B8
330
1F
100
AcDbEntity
  8
0
  6
Continuous
 62
     7
370
    25
100
AcDbCircle
 10
126.3262957951
 20
-43.1093631767
 30
0.0
 40
0.7249999999993695
100
AcDbArc
 50
176.0999999998
 51
356.0999999997
  0
ARC
  5
5B9
330
1F
100
AcDbEntity
  8
0
  6
Continuous
 62
     7
370
    25
100
AcDbCircle
 10
99.695
 20
-66.675
 30
0.0
 40
0.8499999999946534
100
AcDbArc
 50
68.0665493668
 51
291.9334506332
  0
ARC
  5
5BA
330
1F
100
AcDbEntity
  8
0
  6
Continuous
 62
     7
370
    25
100
AcDbCircle
 10
100.33
 20
-66.675
 30
0.0
 40
0.8500000000062568
100
AcDbArc
 50
248.0665493659
 51
111.9334506336
  0
ARC
  5
5BB
330
1F
100
AcDbEntity
  8
0
  6
Continuous
 62
     7
370
    25
100
AcDbCircle
 10
116.8012957951
 20
-62.1593631767
 30
0.0
 40
0.7249999999993861
100
AcDbArc
 50
176.0999999998
 51
356.0999999997
  0
ARC
  5
5BC
330
1F
100
AcDbEntity
  8
0
  6
Continuous
 62
     7
370
    25
100
AcDbCircle
 10
116.8387042049
 20
-61.6106368233
 30
0.0
 40
0.7249999999993981
100
AcDbArc
 50
356.1000000007
 51
176.0999999989
  0
ARC
  5
5BD
330
1F
100
AcDbEntity
  8
0
  6
Continuous
 62
     7
370
    25
100
AcDbCircle
 10
80.645
 20
-66.675
 30
0.0
 40
0.8499999999987672
100
AcDbArc
 50
68.0665493661
 51
291.9334506339
  0
ARC
  5
5BE
330
1F
100
AcDbEntity
  8
0
  6
Continuous
 62
     7
370
    25
100
AcDbCircle
 10
81.28
 20
-66.675
 30
0.0
 40
0.8500000000024661
100
AcDbArc
 50
248.0665493669
 51
111.9334506333
  0
ARC
  5
5BF
330
1F
100
AcDbEntity
  8
0
  6
Continuous
 62
     7
370
    25
100
AcDbCircle
 10
90.805
 20
-66.675
 30
0.0
 40
0.8500000000022528
100
AcDbArc
 50
248.0665493667
 51
111.9334506333
  0
ARC
  5
5C0
330
1F
100
AcDbEntity
  8
0
  6
Continuous
 62
     7
370
    25
100
AcDbCircle
 10
90.17
 20
-66.675
 30
0.0
 40
0.8499999999980187
100
AcDbArc
 50
68.0665493662
 51
291.9334506338
  0
ARC
  5
5C1
330
1F
100
AcDbEntity
  8
0
  6
Continuous
 62
     7
370
    25
100
AcDbCircle
 10
71.755
 20
-66.675
 30
0.0
 40
0.8500000000022396
100
AcDbArc
 50
248.0665493667
 51
111.9334506333
  0
ARC
  5
5C2
330
1F
100
AcDbEntity
  8
0
  6
Continuous
 62
     7
370
    25
100
AcDbCircle
 10
71.12
 20
-66.675
 30
0.0
 40
0.8499999999980187
100
AcDbArc
 50
68.0665493662
 51
291.9334506338
  0
ARC
  5
5C3
330
1F
100
AcDbEntity
  8
0
  6
Continuous
 62
     7
370
    25
100
AcDbCircle
 10
156.845
 20
-66.675
 30
0.0
 40
0.8499999999984061
100
AcDbArc
 50
68.0665493661
 51
291.9334506339
  0
ARC
  5
5C4
330
1F
100
AcDbEntity
  8
0
  6
Continuous
 62
     7
370
    25
100
AcDbCircle
 10
157.48
 20
-66.675
 30
0.0
 40
0.8500000000023529
100
AcDbArc
 50
248.0665493668
 51
111.9334506333
  0
ARC
  5
5C5
330
1F
100
AcDbEntity
  8
0
  6
Continuous
 62
     7
370
    25
100
AcDbCircle
 10
154.9012957951
 20
-62.1593631767
 30
0.0
 40
0.7249999999993988
100
AcDbArc
 50
176.0999999998
 51
356.0999999997
  0
ARC
  5
5C6
330
1F
100
AcDbEntity
  8
0
  6
Continuous
 62
     7
370
    25
100
AcDbCircle
 10
154.9387042049
 20
-61.6106368233
 30
0.0
 40
0.724999999999372
100
AcDbArc
 50
356.1000000007
 51
176.0999999989
  0
ARC
  5
5C7
330
1F
100
AcDbEntity
  8
0
  6
Continuous
 62
     7
370
    25
100
AcDbCircle
 10
156.725
 20
-41.91
 30
0.0
 40
0.25
100
AcDbArc
 50
0.0
 51
180.0
  0
ARC
  5
5C8
330
1F
100
AcDbEntity
  8
0
  6
Continuous
 62
     7
370
    25
100
AcDbCircle
 10
156.725
 20
-42.91
 30
0.0
 40
0.25
100
AcDbArc
 50
180.0
 51
0.0
  0
ARC
  5
5C9
330
1F
100
AcDbEntity
  8
0
  6
Continuous
 62
     7
370
    25
100
AcDbCircle
 10
164.4262957951
 20
-62.1593631767
 30
0.0
 40
0.7249999999994271
100
AcDbArc
 50
176.0999999998
 51
356.0999999997
  0
ARC
  5
5CA
330
1F
100
AcDbEntity
  8
0
  6
Continuous
 62
     7
370
    25
100
AcDbCircle
 10
164.4637042049
 20
-61.6106368233
 30
0.0
 40
0.7249999999994005
100
AcDbArc
 50
356.1000000007
 51
176.0999999989
  0
ARC
  5
5CB
330
1F
100
AcDbEntity
  8
0
  6
Continuous
 62
     7
370
    25
100
AcDbCircle
 10
164.4637042049
 20
-42.5606368233
 30
0.0
 40
0.7249999999994005
100
AcDbArc
 50
356.1000000007
 51
176.0999999989
  0
ARC
  5
5CC
330
1F
100
AcDbEntity
  8
0
  6
Continuous
 62
     7
370
    25
100
AcDbCircle
 10
164.4262957951
 20
-43.1093631767
 30
0.0
 40
0.7249999999993978
100
AcDbArc
 50
176.0999999998
 51
356.0999999997
  0
ARC
  5
5CD
330
1F
100
AcDbEntity
  8
0
  6
Continuous
 62
     7
370
    25
100
AcDbCircle
 10
164.4637042049
 20
-80.6606368233
 30
0.0
 40
0.7249999999994
100
AcDbArc
 50
356.1000000007
 51
176.0999999989
  0
ARC
  5
5CE
330
1F
100
AcDbEntity
  8
0
  6
Continuous
 62
     7
370
    25
100
AcDbCircle
 10
164.4262957951
 20
-81.2093631767
 30
0.0
 40
0.7249999999993982
100
AcDbArc
 50
176.0999999998
 51
356.0999999997
  0
ARC
  5
5CF
330
1F
100
AcDbEntity
  8
0
  6
Continuous
 62
     7
370
    25
100
AcDbCircle
 10
202.5637042049
 20
-42.5606368233
 30
0.0
 40
0.724999999999373
100
AcDbArc
 50
356.1000000007
 51
176.0999999989
  0
ARC
  5
5D0
330
1F
100
AcDbEntity
  8
0
  6
Continuous
 62
     7
370
    25
100
AcDbCircle
 10
202.5262957951
 20
-43.1093631767
 30
0.0
 40
0.7249999999993978
100
AcDbArc
 50
176.0999999998
 51
356.0999999997
  0
ARC
  5
5D1
330
1F
100
AcDbEntity
  8
0
  6
Continuous
 62
     7
370
    25
100
AcDbCircle
 10
202.5637042049
 20
-80.6606368233
 30
0.0
 40
0.7249999999993716
100
AcDbArc
 50
356.1000000007
 51
176.0999999989
  0
ARC
  5
5D2
330
1F
100
AcDbEntity
  8
0
  6
Continuous
 62
     7
370
    25
100
AcDbCircle
 10
202.5262957951
 20
-81.2093631767
 30
0.0
 40
0.7249999999993982
100
AcDbArc
 50
176.0999999998
 51
356.0999999997
  0
ARC
  5
5D3
330
1F
100
AcDbEntity
  8
0
  6
Continuous
 62
     7
370
    25
100
AcDbCircle
 10
198.7549999999
 20
-109.8549999999
 30
0.0
 40
0.5000000000112341
100
AcDbArc
 50
80.8656507907
 51
279.1343492093
  0
ARC
  5
5D4
330
1F
100
AcDbEntity
  8
0
  6
Continuous
 62
     7
370
    25
100
AcDbCircle
 10
198.9137499999
 20
-109.8550000001
 30
0.0
 40
0.5000000000903317
100
AcDbArc
 50
260.8656507983
 51
99.1343491933
  0
ARC
  5
5D5
330
1F
100
AcDbEntity
  8
0
  6
Continuous
 62
     7
370
    25
100
AcDbCircle
 10
205.105
 20
-66.675
 30
0.0
 40
0.8500000000230421
100
AcDbArc
 50
248.0665493648
 51
111.9334506326
  0
ARC
  5
5D6
330
1F
100
AcDbEntity
  8
0
  6
Continuous
 62
     7
370
    25
100
AcDbCircle
 10
204.47
 20
-66.675
 30
0.0
 40
0.8500000000001914
100
AcDbArc
 50
68.0665493676
 51
291.9334506324
  0
ARC
  5
5D7
330
1F
100
AcDbEntity
  8
0
  6
Continuous
 62
     7
370
    25
100
AcDbCircle
 10
240.6262957951
 20
-100.2593631766
 30
0.0
 40
0.725000000000426
100
AcDbArc
 50
176.1000000034
 51
356.0999999938
  0
ARC
  5
5D8
330
1F
100
AcDbEntity
  8
0
  6
Continuous
 62
     7
370
    25
100
AcDbCircle
 10
240.6637042049
 20
-99.7106368233
 30
0.0
 40
0.7249999999993716
100
AcDbArc
 50
356.1000000007
 51
176.0999999989
  0
ARC
  5
5D9
330
1F
100
AcDbEntity
  8
0
  6
Continuous
 62
     7
370
    25
100
AcDbCircle
 10
240.6637042049
 20
-61.6106368233
 30
0.0
 40
0.724999999999373
100
AcDbArc
 50
356.1000000007
 51
176.0999999989
  0
ARC
  5
5DA
330
1F
100
AcDbEntity
  8
0
  6
Continuous
 62
     7
370
    25
100
AcDbCircle
 10
240.6262957951
 20
-62.1593631767
 30
0.0
 40
0.724999999999369
100
AcDbArc
 50
176.0999999998
 51
356.0999999997
  0
ARC
  5
5DB
330
1F
100
AcDbEntity
  8
0
  6
Continuous
 62
     7
370
    25
100
AcDbCircle
 10
233.045
 20
-66.675
 30
0.0
 40
0.8500000000113997
100
AcDbArc
 50
68.0665493658
 51
291.9334506342
  0
ARC
  5
5DC
330
1F
100
AcDbEntity
  8
0
  6
Continuous
 62
     7
370
    25
100
AcDbCircle
 10
233.68
 20
-66.675
 30
0.0
 40
0.8500000000086138
100
AcDbArc
 50
248.0665493673
 51
111.9334506319
  0
ARC
  5
5DD
330
1F
100
AcDbEntity
  8
0
  6
Continuous
 62
     7
370
    25
100
AcDbCircle
 10
231.1387042049
 20
-61.6106368233
 30
0.0
 40
0.7249999999993735
100
AcDbArc
 50
356.1000000007
 51
176.0999999989
  0
ARC
  5
5DE
330
1F
100
AcDbEntity
  8
0
  6
Continuous
 62
     7
370
    25
100
AcDbCircle
 10
231.1012957951
 20
-62.1593631767
 30
0.0
 40
0.724999999999369
100
AcDbArc
 50
176.0999999998
 51
356.0999999997
  0
ARC
  5
5DF
330
1F
100
AcDbEntity
  8
0
  6
Continuous
 62
     7
370
    25
100
AcDbCircle
 10
240.6262957951
 20
-81.2093631767
 30
0.0
 40
0.724999999999369
100
AcDbArc
 50
176.0999999998
 51
356.0999999997
  0
ARC
  5
5E0
330
1F
100
AcDbEntity
  8
0
  6
Continuous
 62
     7
370
    25
100
AcDbCircle
 10
240.6637042049
 20
-80.6606368233
 30
0.0
 40
0.7249999999993706
100
AcDbArc
 50
356.1000000007
 51
176.0999999989
  0
ARC
  5
5E1
330
1F
100
AcDbEntity
  8
0
  6
Continuous
 62
     7
370
    25
100
AcDbCircle
 10
213.995
 20
-66.675
 30
0.0
 40
0.8500000000113891
100
AcDbArc
 50
68.0665493658
 51
291.9334506342
  0
ARC
  5
5E2
330
1F
100
AcDbEntity
  8
0
  6
Continuous
 62
     7
370
    25
100
AcDbCircle
 10
214.63
 20
-66.675
 30
0.0
 40
0.8500000000086401
100
AcDbArc
 50
248.0665493673
 51
111.9334506319
  0
ARC
  5
5E3
330
1F
100
AcDbEntity
  8
0
  6
Continuous
 62
     7
370
    25
100
AcDbCircle
 10
221.6137042049
 20
-61.6106368233
 30
0.0
 40
0.7249999999994015
100
AcDbArc
 50
356.1000000007
 51
176.0999999989
  0
ARC
  5
5E4
330
1F
100
AcDbEntity
  8
0
  6
Continuous
 62
     7
370
    25
100
AcDbCircle
 10
221.5762957951
 20
-62.1593631767
 30
0.0
 40
0.7249999999993978
100
AcDbArc
 50
176.0999999998
 51
356.0999999997
  0
ARC
  5
5E5
330
1F
100
AcDbEntity
  8
0
  6
Continuous
 62
     7
370
    25
100
AcDbCircle
 10
224.155
 20
-66.675
 30
0.0
 40
0.8500000000230131
100
AcDbArc
 50
248.0665493648
 51
111.9334506326
  0
ARC
  5
5E6
330
1F
100
AcDbEntity
  8
0
  6
Continuous
 62
     7
370
    25
100
AcDbCircle
 10
223.52
 20
-66.675
 30
0.0
 40
0.850000000000202
100
AcDbArc
 50
68.0665493676
 51
291.9334506324
  0
ARC
  5
5E7
330
1F
100
AcDbEntity
  8
0
  6
Continuous
 62
     7
370
    25
100
AcDbCircle
 10
221.6137042049
 20
-80.6606368233
 30
0.0
 40
0.7249999999994
100
AcDbArc
 50
356.1000000007
 51
176.0999999989
  0
ARC
  5
5E8
330
1F
100
AcDbEntity
  8
0
  6
Continuous
 62
     7
370
    25
100
AcDbCircle
 10
221.5762957951
 20
-81.2093631767
 30
0.0
 40
0.7249999999993973
100
AcDbArc
 50
176.0999999998
 51
356.0999999997
  0
ARC
  5
5E9
330
1F
100
AcDbEntity
  8
0
  6
Continuous
 62
     7
370
    25
100
AcDbCircle
 10
221.6137042049
 20
-42.5606368233
 30
0.0
 40
0.724999999999401
100
AcDbArc
 50
356.1000000007
 51
176.0999999989
  0
ARC
  5
5EA
330
1F
100
AcDbEntity
  8
0
  6
Continuous
 62
     7
370
    25
100
AcDbCircle
 10
221.5762957951
 20
-43.1093631767
 30
0.0
 40
0.7249999999993978
100
AcDbArc
 50
176.0999999998
 51
356.0999999997
  0
ARC
  5
5EB
330
1F
100
AcDbEntity
  8
0
  6
Continuous
 62
     7
370
    25
100
AcDbCircle
 10
240.6262957951
 20
-43.1093631767
 30
0.0
 40
0.7249999999993695
100
AcDbArc
 50
176.0999999998
 51
356.0999999997
  0
ARC
  5
5EC
330
1F
100
AcDbEntity
  8
0
  6
Continuous
 62
     7
370
    25
100
AcDbCircle
 10
240.6637042049
 20
-42.5606368233
 30
0.0
 40
0.7249999999993726
100
AcDbArc
 50
356.1000000007
 51
176.0999999989
  0
ARC
  5
5ED
330
1F
100
AcDbEntity
  8
0
  6
Continuous
 62
     7
370
    25
100
AcDbCircle
 10
183.4762957951
 20
-43.1093631767
 30
0.0
 40
0.7249999999993695
100
AcDbArc
 50
176.0999999998
 51
356.0999999997
  0
ARC
  5
5EE
330
1F
100
AcDbEntity
  8
0
  6
Continuous
 62
     7
370
    25
100
AcDbCircle
 10
183.5137042049
 20
-42.5606368233
 30
0.0
 40
0.724999999999374
100
AcDbArc
 50
356.1000000007
 51
176.0999999989
  0
ARC
  5
5EF
330
1F
100
AcDbEntity
  8
0
  6
Continuous
 62
     7
370
    25
100
AcDbCircle
 10
173.9887042049
 20
-61.6106368233
 30
0.0
 40
0.7249999999993711
100
AcDbArc
 50
356.1000000007
 51
176.0999999989
  0
ARC
  5
5F0
330
1F
100
AcDbEntity
  8
0
  6
Continuous
 62
     7
370
    25
100
AcDbCircle
 10
173.9512957951
 20
-62.1593631767
 30
0.0
 40
0.7249999999993978
100
AcDbArc
 50
176.0999999998
 51
356.0999999997
  0
ARC
  5
5F1
330
1F
100
AcDbEntity
  8
0
  6
Continuous
 62
     7
370
    25
100
AcDbCircle
 10
183.4762957951
 20
-62.1593631767
 30
0.0
 40
0.724999999999369
100
AcDbArc
 50
176.0999999998
 51
356.0999999997
  0
ARC
  5
5F2
330
1F
100
AcDbEntity
  8
0
  6
Continuous
 62
     7
370
    25
100
AcDbCircle
 10
183.5137042049
 20
-61.6106368233
 30
0.0
 40
0.724999999999374
100
AcDbArc
 50
356.1000000007
 51
176.0999999989
  0
ARC
  5
5F3
330
1F
100
AcDbEntity
  8
0
  6
Continuous
 62
     7
370
    25
100
AcDbCircle
 10
186.055
 20
-66.675
 30
0.0
 40
0.8500000000062832
100
AcDbArc
 50
248.0665493659
 51
111.9334506336
  0
ARC
  5
5F4
330
1F
100
AcDbEntity
  8
0
  6
Continuous
 62
     7
370
    25
100
AcDbCircle
 10
185.42
 20
-66.675
 30
0.0
 40
0.8499999999946587
100
AcDbArc
 50
68.0665493668
 51
291.9334506332
  0
ARC
  5
5F5
330
1F
100
AcDbEntity
  8
0
  6
Continuous
 62
     7
370
    25
100
AcDbCircle
 10
193.0387042049
 20
-61.6106368233
 30
0.0
 40
0.724999999999373
100
AcDbArc
 50
356.1000000007
 51
176.0999999989
  0
ARC
  5
5F6
330
1F
100
AcDbEntity
  8
0
  6
Continuous
 62
     7
370
    25
100
AcDbCircle
 10
193.0012957951
 20
-62.1593631767
 30
0.0
 40
0.7249999999993705
100
AcDbArc
 50
176.0999999998
 51
356.0999999997
  0
ARC
  5
5F7
330
1F
100
AcDbEntity
  8
0
  6
Continuous
 62
     7
370
    25
100
AcDbCircle
 10
202.5637042049
 20
-61.6106368233
 30
0.0
 40
0.7249999999993735
100
AcDbArc
 50
356.1000000007
 51
176.0999999989
  0
ARC
  5
5F8
330
1F
100
AcDbEntity
  8
0
  6
Continuous
 62
     7
370
    25
100
AcDbCircle
 10
202.5262957951
 20
-62.1593631767
 30
0.0
 40
0.7249999999993978
100
AcDbArc
 50
176.0999999998
 51
356.0999999997
  0
ARC
  5
5F9
330
1F
100
AcDbEntity
  8
0
  6
Continuous
 62
     7
370
    25
100
AcDbCircle
 10
212.0512957951
 20
-62.1593631767
 30
0.0
 40
0.7249999999994545
100
AcDbArc
 50
176.0999999998
 51
356.0999999997
  0
ARC
  5
5FA
330
1F
100
AcDbEntity
  8
0
  6
Continuous
 62
     7
370
    25
100
AcDbCircle
 10
212.0887042049
 20
-61.6106368233
 30
0.0
 40
0.7249999999994015
100
AcDbArc
 50
356.1000000007
 51
176.0999999989
  0
ARC
  5
5FB
330
1F
100
AcDbEntity
  8
0
  6
Continuous
 62
     7
370
    25
100
AcDbCircle
 10
183.4762957951
 20
-81.2093631767
 30
0.0
 40
0.724999999999369
100
AcDbArc
 50
176.0999999998
 51
356.0999999997
  0
ARC
  5
5FC
330
1F
100
AcDbEntity
  8
0
  6
Continuous
 62
     7
370
    25
100
AcDbCircle
 10
183.5137042049
 20
-80.6606368233
 30
0.0
 40
0.7249999999993726
100
AcDbArc
 50
356.1000000007
 51
176.0999999989
  0
ARC
  5
5FD
330
1F
100
AcDbEntity
  8
0
  6
Continuous
 62
     7
370
    25
100
AcDbCircle
 10
175.895
 20
-66.675
 30
0.0
 40
0.8499999999984061
100
AcDbArc
 50
68.0665493661
 51
291.9334506339
  0
ARC
  5
5FE
330
1F
100
AcDbEntity
  8
0
  6
Continuous
 62
     7
370
    25
100
AcDbCircle
 10
176.53
 20
-66.675
 30
0.0
 40
0.8500000000024082
100
AcDbArc
 50
248.0665493668
 51
111.9334506333
  0
ARC
  5
5FF
330
1F
100
AcDbEntity
  8
0
  6
Continuous
 62
     7
370
    25
100
AcDbCircle
 10
197.64375
 20
-104.775
 30
0.0
 40
1.999999999998237
100
AcDbArc
 50
53.465087278
 51
168.0421489265
  0
ARC
  5
600
330
1F
100
AcDbEntity
  8
0
  6
Continuous
 62
     7
370
    25
100
AcDbCircle
 10
194.945
 20
-104.775
 30
0.0
 40
0.8500000000146138
100
AcDbArc
 50
29.1771018726
 51
330.8228981274
  0
ARC
  5
601
330
1F
100
AcDbEntity
  8
0
  6
Continuous
 62
     7
370
    25
100
AcDbCircle
 10
197.64375
 20
-104.775
 30
0.0
 40
1.99999999994879
100
AcDbArc
 50
191.9578510713
 51
306.5349127242
  0
ARC
  5
602
330
1F
100
AcDbEntity
  8
0
  6
Continuous
 62
     7
370
    25
100
AcDbCircle
 10
200.025
 20
-104.775
 30
0.0
 40
1.999999999991311
100
AcDbArc
 50
233.4650872777
 51
348.0421489268
  0
ARC
  5
603
330
1F
100
AcDbEntity
  8
0
  6
Continuous
 62
     7
370
    25
100
AcDbCircle
 10
202.72375
 20
-104.775
 30
0.0
 40
0.8500000000140523
100
AcDbArc
 50
209.1771018717
 51
150.8228981225
  0
ARC
  5
604
330
1F
100
AcDbEntity
  8
0
  6
Continuous
 62
     7
370
    25
100
AcDbCircle
 10
194.945
 20
-66.675
 30
0.0
 40
0.8500000000113785
100
AcDbArc
 50
68.0665493658
 51
291.9334506342
  0
ARC
  5
605
330
1F
100
AcDbEntity
  8
0
  6
Continuous
 62
     7
370
    25
100
AcDbCircle
 10
195.58
 20
-66.675
 30
0.0
 40
0.8500000000086031
100
AcDbArc
 50
248.0665493673
 51
111.9334506319
  0
ARC
  5
606
330
1F
100
AcDbEntity
  8
0
  6
Continuous
 62
     7
370
    25
100
AcDbCircle
 10
167.005
 20
-66.675
 30
0.0
 40
0.85000000000627
100
AcDbArc
 50
248.0665493659
 51
111.9334506336
  0
ARC
  5
607
330
1F
100
AcDbEntity
  8
0
  6
Continuous
 62
     7
370
    25
100
AcDbCircle
 10
166.37
 20
-66.675
 30
0.0
 40
0.8499999999946587
100
AcDbArc
 50
68.0665493668
 51
291.9334506332
  0
ARC
  5
608
330
1F
100
AcDbEntity
  8
0
  6
Continuous
 62
     7
370
    25
100
AcDbCircle
 10
170.1799999999
 20
-109.8549999999
 30
0.0
 40
0.5000000000112296
100
AcDbArc
 50
80.8656507907
 51
279.1343492093
  0
ARC
  5
609
330
1F
100
AcDbEntity
  8
0
  6
Continuous
 62
     7
370
    25
100
AcDbCircle
 10
170.3387499999
 20
-109.8550000001
 30
0.0
 40
0.5000000000903272
100
AcDbArc
 50
260.8656507983
 51
99.1343491933
  0
ARC
  5
60A
330
1F
100
AcDbEntity
  8
0
  6
Continuous
 62
     7
370
    25
100
AcDbCircle
 10
265.499988
 20
-113.1002
 30
0.0
 40
1.699999999999989
100
AcDbArc
 50
270.0
 51
0.0
  0
ARC
  5
60B
330
1F
100
AcDbEntity
  8
0
  6
Continuous
 62
     7
370
    25
100
AcDbCircle
 10
39.299988
 20
-113.1002
 30
0.0
 40
1.699999999999989
100
AcDbArc
 50
180.0
 51
270.0
  0
ARC
  5
60C
330
1F
100
AcDbEntity
  8
0
  6
Continuous
 62
     7
370
    25
100
AcDbCircle
 10
39.299988
 20
-39.300027
 30
0.0
 40
1.699999999999989
100
AcDbArc
 50
90.0
 51
180.0
  0
ARC
  5
60D
330
1F
100
AcDbEntity
  8
0
  6
Continuous
 62
     7
370
    25
100
AcDbCircle
 10
200.025
 20
-104.775
 30
0.0
 40
2.000000000042938
100
AcDbArc
 50
11.9578510755
 51
126.53491272
  0
ARC
  5
60E
330
1F
100
AcDbEntity
  8
0
  6
Continuous
 62
     7
370
    25
100
AcDbCircle
 10
265.499988
 20
-39.300027
 30
0.0
 40
1.700000000000159
100
AcDbArc
 50
0.0
 51
90.0
  0
ARC
  5
60F
330
1F
100
AcDbEntity
  8
0
  6
Continuous
 62
     7
370
    25
100
AcDbCircle
 10
202.5262957951
 20
-100.2593631766
 30
0.0
 40
0.7250000000004241
100
AcDbArc
 50
176.1000000034
 51
356.0999999938
  0
ARC
  5
610
330
1F
100
AcDbEntity
  8
0
  6
Continuous
 62
     7
370
    25
100
AcDbCircle
 10
202.5637042049
 20
-99.7106368233
 30
0.0
 40
0.7249999999993716
100
AcDbArc
 50
356.1000000007
 51
176.0999999989
  0
ARC
  5
611
330
1F
100
AcDbEntity
  8
0
  6
Continuous
 62
     7
370
    25
100
AcDbCircle
 10
200.1824542049
 20
-99.7106368233
 30
0.0
 40
0.7249999999994
100
AcDbArc
 50
356.1000000007
 51
176.0999999989
  0
ARC
  5
612
330
1F
100
AcDbEntity
  8
0
  6
Continuous
 62
     7
370
    25
100
AcDbCircle
 10
200.1450457951
 20
-100.2593631766
 30
0.0
 40
0.7250000000004091
100
AcDbArc
 50
176.1000000034
 51
356.0999999938
  0
ARC
  5
613
330
1F
100
AcDbEntity
  8
0
  6
Continuous
 62
     7
370
    25
100
AcDbCircle
 10
221.6137042049
 20
-99.7106368233
 30
0.0
 40
0.7249999999994
100
AcDbArc
 50
356.1000000007
 51
176.0999999989
  0
ARC
  5
614
330
1F
100
AcDbEntity
  8
0
  6
Continuous
 62
     7
370
    25
100
AcDbCircle
 10
221.5762957951
 20
-100.2593631766
 30
0.0
 40
0.7250000000004081
100
AcDbArc
 50
176.1000000034
 51
356.0999999938
  0
ARC
  5
615
330
1F
100
AcDbEntity
  8
0
  6
Continuous
 62
     7
370
    25
100
AcDbCircle
 10
171.5700457951
 20
-100.2593631766
 30
0.0
 40
0.7250000000003798
100
AcDbArc
 50
176.1000000034
 51
356.0999999938
  0
ARC
  5
616
330
1F
100
AcDbEntity
  8
0
  6
Continuous
 62
     7
370
    25
100
AcDbCircle
 10
171.6074542049
 20
-99.7106368233
 30
0.0
 40
0.7249999999993706
100
AcDbArc
 50
356.1000000007
 51
176.0999999989
  0
ARC
  5
617
330
1F
100
AcDbEntity
  8
0
  6
Continuous
 62
     7
370
    25
100
AcDbCircle
 10
173.9887042049
 20
-99.7106368233
 30
0.0
 40
0.7249999999993706
100
AcDbArc
 50
356.1000000007
 51
176.0999999989
  0
ARC
  5
618
330
1F
100
AcDbEntity
  8
0
  6
Continuous
 62
     7
370
    25
100
AcDbCircle
 10
173.9512957951
 20
-100.2593631766
 30
0.0
 40
0.7250000000004081
100
AcDbArc
 50
176.1000000034
 51
356.0999999938
  0
ARC
  5
619
330
1F
100
AcDbEntity
  8
0
  6
Continuous
 62
     7
370
    25
100
AcDbCircle
 10
171.45
 20
-104.775
 30
0.0
 40
1.999999999991348
100
AcDbArc
 50
233.4650872777
 51
348.0421489268
  0
ARC
  5
61A
330
1F
100
AcDbEntity
  8
0
  6
Continuous
 62
     7
370
    25
100
AcDbCircle
 10
174.14875
 20
-104.775
 30
0.0
 40
0.8500000000140245
100
AcDbArc
 50
209.1771018717
 51
150.8228981225
  0
ARC
  5
61B
330
1F
100
AcDbEntity
  8
0
  6
Continuous
 62
     7
370
    25
100
AcDbCircle
 10
169.06875
 20
-104.775
 30
0.0
 40
1.99999999994655
100
AcDbArc
 50
191.957851071
 51
306.5349127246
  0
ARC
  5
61C
330
1F
100
AcDbEntity
  8
0
  6
Continuous
 62
     7
370
    25
100
AcDbCircle
 10
166.37
 20
-104.775
 30
0.0
 40
0.8500000000059036
100
AcDbArc
 50
29.1771018729
 51
330.8228981271
  0
ARC
  5
61D
330
1F
100
AcDbEntity
  8
0
  6
Continuous
 62
     7
370
    25
100
AcDbCircle
 10
171.45
 20
-104.775
 30
0.0
 40
2.000000000042932
100
AcDbArc
 50
11.9578510755
 51
126.53491272
  0
ARC
  5
61E
330
1F
100
AcDbEntity
  8
0
  6
Continuous
 62
     7
370
    25
100
AcDbCircle
 10
169.06875
 20
-104.775
 30
0.0
 40
2.00000000001029
100
AcDbArc
 50
53.4650872783
 51
168.0421489261
  0
ARC
  5
61F
330
1F
100
AcDbEntity
  8
0
  6
Continuous
 62
     7
370
    25
100
AcDbCircle
 10
88.2262957951
 20
-100.2593631766
 30
0.0
 40
0.7250000000013896
100
AcDbArc
 50
176.1000000029
 51
356.0999999943
  0
ARC
  5
620
330
1F
100
AcDbEntity
  8
0
  6
Continuous
 62
     7
370
    25
100
AcDbCircle
 10
88.2637042049
 20
-99.7106368233
 30
0.0
 40
0.725000000000376
100
AcDbArc
 50
356.1000000002
 51
176.0999999994
  0
ARC
  5
621
330
1F
100
AcDbEntity
  8
0
  6
Continuous
 62
     7
370
    25
100
AcDbCircle
 10
69.2137042049
 20
-99.7106368233
 30
0.0
 40
0.7250000000003618
100
AcDbArc
 50
356.1000000002
 51
176.0999999994
  0
ARC
  5
622
330
1F
100
AcDbEntity
  8
0
  6
Continuous
 62
     7
370
    25
100
AcDbCircle
 10
69.1762957951
 20
-100.2593631766
 30
0.0
 40
0.7250000000013896
100
AcDbArc
 50
176.1000000029
 51
356.0999999943
  0
ARC
  5
623
330
1F
100
AcDbEntity
  8
0
  6
Continuous
 62
     7
370
    25
100
AcDbCircle
 10
135.8512957951
 20
-100.2593631766
 30
0.0
 40
0.7250000000004091
100
AcDbArc
 50
176.1000000034
 51
356.0999999938
  0
ARC
  5
624
330
1F
100
AcDbEntity
  8
0
  6
Continuous
 62
     7
370
    25
100
AcDbCircle
 10
135.8887042049
 20
-99.7106368233
 30
0.0
 40
0.7249999999993726
100
AcDbArc
 50
356.1000000007
 51
176.0999999989
  0
ARC
  5
625
330
1F
100
AcDbEntity
  8
0
  6
Continuous
 62
     7
370
    25
100
AcDbCircle
 10
138.2325457951
 20
-100.2593631766
 30
0.0
 40
0.7250000000003957
100
AcDbArc
 50
176.1000000034
 51
356.0999999938
  0
ARC
  5
626
330
1F
100
AcDbEntity
  8
0
  6
Continuous
 62
     7
370
    25
100
AcDbCircle
 10
138.2699542049
 20
-99.7106368233
 30
0.0
 40
0.7249999999994
100
AcDbArc
 50
356.1000000007
 51
176.0999999989
  0
ARC
  5
627
330
1F
100
AcDbEntity
  8
0
  6
Continuous
 62
     7
370
    25
100
AcDbCircle
 10
109.6575457951
 20
-100.2593631766
 30
0.0
 40
0.7250000000003985
100
AcDbArc
 50
176.1000000034
 51
356.0999999938
  0
ARC
  5
628
330
1F
100
AcDbEntity
  8
0
  6
Continuous
 62
     7
370
    25
100
AcDbCircle
 10
109.6949542049
 20
-99.7106368233
 30
0.0
 40
0.7249999999993716
100
AcDbArc
 50
356.1000000007
 51
176.0999999989
  0
ARC
  5
629
330
1F
100
AcDbEntity
  8
0
  6
Continuous
 62
     7
370
    25
100
AcDbCircle
 10
107.3137042049
 20
-99.7106368233
 30
0.0
 40
0.724999999999399
100
AcDbArc
 50
356.1000000007
 51
176.0999999989
  0
ARC
  5
62A
330
1F
100
AcDbEntity
  8
0
  6
Continuous
 62
     7
370
    25
100
AcDbCircle
 10
107.2762957951
 20
-100.2593631766
 30
0.0
 40
0.7250000000003995
100
AcDbArc
 50
176.1000000034
 51
356.0999999938
  0
ARC
  5
62B
330
1F
100
AcDbEntity
  8
0
  6
Continuous
 62
     7
370
    25
100
AcDbCircle
 10
138.43
 20
-104.775
 30
0.0
 40
0.8500000000140949
100
AcDbArc
 50
209.1771018717
 51
150.8228981225
  0
ARC
  5
62C
330
1F
100
AcDbEntity
  8
0
  6
Continuous
 62
     7
370
    25
100
AcDbCircle
 10
135.73125
 20
-104.775
 30
0.0
 40
1.999999999991262
100
AcDbArc
 50
233.4650872777
 51
348.0421489268
  0
ARC
  5
62D
330
1F
100
AcDbEntity
  8
0
  6
Continuous
 62
     7
370
    25
100
AcDbCircle
 10
135.73125
 20
-104.775
 30
0.0
 40
2.000000000042873
100
AcDbArc
 50
11.9578510755
 51
126.53491272
  0
ARC
  5
62E
330
1F
100
AcDbEntity
  8
0
  6
Continuous
 62
     7
370
    25
100
AcDbCircle
 10
133.35
 20
-104.775
 30
0.0
 40
1.999999999946566
100
AcDbArc
 50
191.957851071
 51
306.5349127246
  0
ARC
  5
62F
330
1F
100
AcDbEntity
  8
0
  6
Continuous
 62
     7
370
    25
100
AcDbCircle
 10
133.35
 20
-104.775
 30
0.0
 40
2.000000000010295
100
AcDbArc
 50
53.4650872782
 51
168.0421489261
  0
ARC
  5
630
330
1F
100
AcDbEntity
  8
0
  6
Continuous
 62
     7
370
    25
100
AcDbCircle
 10
130.65125
 20
-104.775
 30
0.0
 40
0.8500000000059036
100
AcDbArc
 50
29.1771018729
 51
330.8228981271
  0
ARC
  5
631
330
1F
100
AcDbEntity
  8
0
  6
Continuous
 62
     7
370
    25
100
AcDbCircle
 10
104.775
 20
-104.775
 30
0.0
 40
1.999999999939231
100
AcDbArc
 50
191.9578510709
 51
306.5349127246
  0
ARC
  5
632
330
1F
100
AcDbEntity
  8
0
  6
Continuous
 62
     7
370
    25
100
AcDbCircle
 10
107.15625
 20
-104.775
 30
0.0
 40
1.99999999998991
100
AcDbArc
 50
233.4650872773
 51
348.042148927
  0
ARC
  5
633
330
1F
100
AcDbEntity
  8
0
  6
Continuous
 62
     7
370
    25
100
AcDbCircle
 10
102.07625
 20
-104.775
 30
0.0
 40
0.8500000000058912
100
AcDbArc
 50
29.1771018729
 51
330.8228981271
  0
ARC
  5
634
330
1F
100
AcDbEntity
  8
0
  6
Continuous
 62
     7
370
    25
100
AcDbCircle
 10
109.855
 20
-104.775
 30
0.0
 40
0.850000000014077
100
AcDbArc
 50
209.1771018717
 51
150.8228981225
  0
ARC
  5
635
330
1F
100
AcDbEntity
  8
0
  6
Continuous
 62
     7
370
    25
100
AcDbCircle
 10
104.775
 20
-104.775
 30
0.0
 40
2.000000000011648
100
AcDbArc
 50
53.4650872786
 51
168.0421489259
  0
ARC
  5
636
330
1F
100
AcDbEntity
  8
0
  6
Continuous
 62
     7
370
    25
100
AcDbCircle
 10
107.15625
 20
-104.775
 30
0.0
 40
2.000000000050206
100
AcDbArc
 50
11.9578510756
 51
126.53491272
  0
ARC
  5
637
330
1F
100
AcDbEntity
  8
0
  6
Continuous
 62
     7
370
    25
100
AcDbCircle
 10
50.1637042049
 20
-42.5606368233
 30
0.0
 40
0.7250000000003689
100
AcDbArc
 50
356.1000000002
 51
176.0999999994
  0
ARC
  5
638
330
1F
100
AcDbEntity
  8
0
  6
Continuous
 62
     7
370
    25
100
AcDbCircle
 10
50.1262957951
 20
-43.1093631767
 30
0.0
 40
0.7250000000003755
100
AcDbArc
 50
176.0999999994
 51
356.1000000002
  0
ARC
  5
639
330
1F
100
AcDbEntity
  8
0
  6
Continuous
 62
     7
370
    25
100
AcDbCircle
 10
54.8887957951
 20
-62.1593631767
 30
0.0
 40
0.7250000000003757
100
AcDbArc
 50
176.0999999994
 51
356.1000000002
  0
ARC
  5
63A
330
1F
100
AcDbEntity
  8
0
  6
Continuous
 62
     7
370
    25
100
AcDbCircle
 10
54.9262042049
 20
-61.6106368233
 30
0.0
 40
0.7250000000003765
100
AcDbArc
 50
356.1000000002
 51
176.0999999994
  0
ARC
  5
63B
330
1F
100
AcDbEntity
  8
0
  6
Continuous
 62
     7
370
    25
100
AcDbCircle
 10
148.075
 20
-42.91
 30
0.0
 40
0.25
100
AcDbArc
 50
180.0
 51
0.0
  0
ARC
  5
63C
330
1F
100
AcDbEntity
  8
0
  6
Continuous
 62
     7
370
    25
100
AcDbCircle
 10
148.075
 20
-41.91
 30
0.0
 40
0.25
100
AcDbArc
 50
0.0
 51
180.0
  0
ARC
  5
63D
330
1F
100
AcDbEntity
  8
0
  6
Continuous
 62
     7
370
    25
100
AcDbCircle
 10
147.955
 20
-66.675
 30
0.0
 40
0.8500000000182387
100
AcDbArc
 50
248.0665493657
 51
111.9334506324
  0
ARC
  5
63E
330
1F
100
AcDbEntity
  8
0
  6
Continuous
 62
     7
370
    25
100
AcDbCircle
 10
147.32
 20
-66.675
 30
0.0
 40
0.8500000000039152
100
AcDbArc
 50
68.066549367
 51
291.933450633
  0
ARC
  5
63F
330
1F
100
AcDbEntity
  8
0
  6
Continuous
 62
     7
370
    25
100
AcDbCircle
 10
145.4137042049
 20
-80.6606368233
 30
0.0
 40
0.7249999999993706
100
AcDbArc
 50
356.1000000007
 51
176.0999999989
  0
ARC
  5
640
330
1F
100
AcDbEntity
  8
0
  6
Continuous
 62
     7
370
    25
100
AcDbCircle
 10
145.3762957951
 20
-81.2093631767
 30
0.0
 40
0.7249999999993699
100
AcDbArc
 50
176.0999999998
 51
356.0999999997
  0
ARC
  5
641
330
1F
100
AcDbEntity
  8
0
  6
Continuous
 62
     7
370
    25
100
AcDbCircle
 10
107.2762957951
 20
-81.2093631767
 30
0.0
 40
0.72499999999937
100
AcDbArc
 50
176.0999999998
 51
356.0999999997
  0
ARC
  5
642
330
1F
100
AcDbEntity
  8
0
  6
Continuous
 62
     7
370
    25
100
AcDbCircle
 10
107.3137042049
 20
-80.6606368233
 30
0.0
 40
0.724999999999399
100
AcDbArc
 50
356.1000000007
 51
176.0999999989
  0
ARC
  5
643
330
1F
100
AcDbEntity
  8
0
  6
Continuous
 62
     7
370
    25
100
AcDbCircle
 10
126.3262957951
 20
-81.2093631767
 30
0.0
 40
0.7249999999993973
100
AcDbArc
 50
176.0999999998
 51
356.0999999997
  0
ARC
  5
644
330
1F
100
AcDbEntity
  8
0
  6
Continuous
 62
     7
370
    25
100
AcDbCircle
 10
126.3637042049
 20
-80.6606368233
 30
0.0
 40
0.7249999999993829
100
AcDbArc
 50
356.1000000007
 51
176.0999999989
  0
ARC
  5
645
330
1F
100
AcDbEntity
  8
0
  6
Continuous
 62
     7
370
    25
100
AcDbCircle
 10
69.2137042049
 20
-80.6606368233
 30
0.0
 40
0.7250000000003621
100
AcDbArc
 50
356.1000000002
 51
176.0999999994
  0
ARC
  5
646
330
1F
100
AcDbEntity
  8
0
  6
Continuous
 62
     7
370
    25
100
AcDbCircle
 10
69.1762957951
 20
-81.2093631767
 30
0.0
 40
0.7250000000003621
100
AcDbArc
 50
176.0999999994
 51
356.1000000002
  0
ARC
  5
647
330
1F
100
AcDbEntity
  8
0
  6
Continuous
 62
     7
370
    25
100
AcDbCircle
 10
88.2637042049
 20
-80.6606368233
 30
0.0
 40
0.7250000000003762
100
AcDbArc
 50
356.1000000002
 51
176.0999999994
  0
ARC
  5
648
330
1F
100
AcDbEntity
  8
0
  6
Continuous
 62
     7
370
    25
100
AcDbCircle
 10
88.2262957951
 20
-81.2093631767
 30
0.0
 40
0.7250000000003611
100
AcDbArc
 50
176.0999999994
 51
356.1000000002
  0
ARC
  5
649
330
1F
100
AcDbEntity
  8
0
  6
Continuous
 62
     7
370
    25
100
AcDbCircle
 10
145.4137042049
 20
-42.5606368233
 30
0.0
 40
0.7249999999994005
100
AcDbArc
 50
356.1000000007
 51
176.0999999989
  0
ARC
  5
64A
330
1F
100
AcDbEntity
  8
0
  6
Continuous
 62
     7
370
    25
100
AcDbCircle
 10
145.3762957951
 20
-43.1093631767
 30
0.0
 40
0.7249999999993699
100
AcDbArc
 50
176.0999999998
 51
356.0999999997
  0
ARC
  5
64B
330
1F
100
AcDbEntity
  8
0
  6
Continuous
 62
     7
370
    25
100
AcDbCircle
 10
69.2137042049
 20
-61.6106368233
 30
0.0
 40
0.7250000000003612
100
AcDbArc
 50
356.1000000002
 51
176.0999999994
  0
ARC
  5
64C
330
1F
100
AcDbEntity
  8
0
  6
Continuous
 62
     7
370
    25
100
AcDbCircle
 10
69.1762957951
 20
-62.1593631767
 30
0.0
 40
0.725000000000363
100
AcDbArc
 50
176.0999999994
 51
356.1000000002
  0
ARC
  5
64D
330
1F
100
AcDbEntity
  8
0
  6
Continuous
 62
     7
370
    25
100
AcDbCircle
 10
107.2762957951
 20
-62.1593631767
 30
0.0
 40
0.72499999999937
100
AcDbArc
 50
176.0999999998
 51
356.0999999997
  0
ARC
  5
64E
330
1F
100
AcDbEntity
  8
0
  6
Continuous
 62
     7
370
    25
100
AcDbCircle
 10
107.3137042049
 20
-61.6106368233
 30
0.0
 40
0.7249999999994
100
AcDbArc
 50
356.1000000007
 51
176.0999999989
  0
ARC
  5
64F
330
1F
100
AcDbEntity
  8
0
  6
Continuous
 62
     7
370
    25
100
AcDbCircle
 10
88.2637042049
 20
-61.6106368233
 30
0.0
 40
0.7250000000003765
100
AcDbArc
 50
356.1000000002
 51
176.0999999994
  0
ARC
  5
650
330
1F
100
AcDbEntity
  8
0
  6
Continuous
 62
     7
370
    25
100
AcDbCircle
 10
88.2262957951
 20
-62.1593631767
 30
0.0
 40
0.7250000000003616
100
AcDbArc
 50
176.0999999994
 51
356.1000000002
  0
ARC
  5
651
330
1F
100
AcDbEntity
  8
0
  6
Continuous
 62
     7
370
    25
100
AcDbCircle
 10
97.7887042049
 20
-61.6106368233
 30
0.0
 40
0.7250000000003622
100
AcDbArc
 50
356.1000000002
 51
176.0999999994
  0
ARC
  5
652
330
1F
100
AcDbEntity
  8
0
  6
Continuous
 62
     7
370
    25
100
AcDbCircle
 10
97.7512957951
 20
-62.1593631767
 30
0.0
 40
0.725000000000374
100
AcDbArc
 50
176.0999999994
 51
356.1000000002
  0
ARC
  5
653
330
1F
100
AcDbEntity
  8
0
  6
Continuous
 62
     7
370
    25
100
AcDbCircle
 10
78.7012957951
 20
-62.1593631767
 30
0.0
 40
0.725000000000363
100
AcDbArc
 50
176.0999999994
 51
356.1000000002
  0
ARC
  5
654
330
1F
100
AcDbEntity
  8
0
  6
Continuous
 62
     7
370
    25
100
AcDbCircle
 10
78.7387042049
 20
-61.6106368233
 30
0.0
 40
0.7250000000003627
100
AcDbArc
 50
356.1000000002
 51
176.0999999994
  0
ARC
  5
655
330
1F
100
AcDbEntity
  8
0
  6
Continuous
 62
     7
370
    25
100
AcDbCircle
 10
126.3637042049
 20
-61.6106368233
 30
0.0
 40
0.7249999999993839
100
AcDbArc
 50
356.1000000007
 51
176.0999999989
  0
ARC
  5
656
330
1F
100
AcDbEntity
  8
0
  6
Continuous
 62
     7
370
    25
100
AcDbCircle
 10
126.3262957951
 20
-62.1593631767
 30
0.0
 40
0.724999999999369
100
AcDbArc
 50
176.0999999998
 51
356.0999999997
  0
ARC
  5
657
330
1F
100
AcDbEntity
  8
0
  6
Continuous
 62
     7
370
    25
100
AcDbCircle
 10
135.8512957951
 20
-62.1593631767
 30
0.0
 40
0.724999999999369
100
AcDbArc
 50
176.0999999998
 51
356.0999999997
  0
ARC
  5
658
330
1F
100
AcDbEntity
  8
0
  6
Continuous
 62
     7
370
    25
100
AcDbCircle
 10
135.8887042049
 20
-61.6106368233
 30
0.0
 40
0.7249999999993735
100
AcDbArc
 50
356.1000000007
 51
176.0999999989
  0
ARC
  5
659
330
1F
100
AcDbEntity
  8
0
  6
Continuous
 62
     7
370
    25
100
AcDbCircle
 10
145.3762957951
 20
-62.1593631767
 30
0.0
 40
0.7249999999993705
100
AcDbArc
 50
176.0999999998
 51
356.0999999997
  0
ARC
  5
65A
330
1F
100
AcDbEntity
  8
0
  6
Continuous
 62
     7
370
    25
100
AcDbCircle
 10
145.4137042049
 20
-61.6106368233
 30
0.0
 40
0.724999999999372
100
AcDbArc
 50
356.1000000007
 51
176.0999999989
  0
ARC
  5
65B
330
1F
100
AcDbEntity
  8
0
  6
Continuous
 62
     7
370
    25
100
AcDbCircle
 10
109.855
 20
-66.675
 30
0.0
 40
0.8500000000023474
100
AcDbArc
 50
248.0665493668
 51
111.9334506333
  0
ARC
  5
65C
330
1F
100
AcDbEntity
  8
0
  6
Continuous
 62
     7
370
    25
100
AcDbCircle
 10
109.22
 20
-66.675
 30
0.0
 40
0.8499999999983849
100
AcDbArc
 50
68.0665493661
 51
291.9334506339
  0
ARC
  5
65D
330
1F
100
AcDbEntity
  8
0
  6
Continuous
 62
     7
370
    25
100
AcDbCircle
 10
128.905
 20
-66.675
 30
0.0
 40
0.8500000000062279
100
AcDbArc
 50
248.0665493659
 51
111.9334506336
  0
ARC
  5
65E
330
1F
100
AcDbEntity
  8
0
  6
Continuous
 62
     7
370
    25
100
AcDbCircle
 10
128.27
 20
-66.675
 30
0.0
 40
0.8499999999946587
100
AcDbArc
 50
68.0665493668
 51
291.9334506332
  0
ARC
  5
65F
330
1F
100
AcDbEntity
  8
0
  6
Continuous
 62
     7
370
    25
100
AcDbCircle
 10
118.745
 20
-66.675
 30
0.0
 40
0.8499999999983849
100
AcDbArc
 50
68.0665493661
 51
291.9334506339
  0
ARC
  5
660
330
1F
100
AcDbEntity
  8
0
  6
Continuous
 62
     7
370
    25
100
AcDbCircle
 10
119.38
 20
-66.675
 30
0.0
 40
0.8500000000023474
100
AcDbArc
 50
248.0665493668
 51
111.9334506333
  0
ARC
  5
661
330
1F
100
AcDbEntity
  8
0
  6
Continuous
 62
     7
370
    25
100
AcDbCircle
 10
137.795
 20
-66.675
 30
0.0
 40
0.8499999999984168
100
AcDbArc
 50
68.0665493661
 51
291.9334506339
  0
ARC
  5
662
330
1F
100
AcDbEntity
  8
0
  6
Continuous
 62
     7
370
    25
100
AcDbCircle
 10
138.43
 20
-66.675
 30
0.0
 40
0.8500000000023529
100
AcDbArc
 50
248.0665493668
 51
111.9334506333
  0
ENDSEC
  0
SECTION
  2
OBJECTS
  0
DICTIONARY
  5
C
330
0
100
AcDbDictionary
281
     1
  3
ACAD_GROUP
350
D
  3
ACAD_LAYOUT
350
1A
  3
ACAD_MLINESTYLE
350
17
  3
ACAD_PLOTSETTINGS
350
19
  3
ACAD_PLOTSTYLENAME
350
E
  3
ACAD_SCALELIST
350
47
  0
DICTIONARY
  5
D
102
{ACAD_REACTORS
330
C
102
}
330
C
100
AcDbDictionary
281
     1
  0
DICTIONARY
  5
1A
102
{ACAD_REACTORS
330
C
102
}
330
C
100
AcDbDictionary
281
     1
  3
Layout1
350
1E
  3
Layout2
350
26
  3
Model
350
22
  0
DICTIONARY
  5
17
102
{ACAD_REACTORS
330
C
102
}
330
C
100
AcDbDictionary
281
     1
  3
Standard
350
18
  0
DICTIONARY
  5
19
102
{ACAD_REACTORS
330
C
102
}
330
C
100
AcDbDictionary
281
     1
  0
ACDBDICTIONARYWDFLT
  5
E
102
{ACAD_REACTORS
330
C
102
}
330
C
100
AcDbDictionary
281
     1
  3
Normal
350
F
100
AcDbDictionaryWithDefault
340
F
  0
DICTIONARY
  5
47
102
{ACAD_REACTORS
330
C
102
}
330
C
100
AcDbDictionary
281
     1
  3
A0
350
48
  3
A1
350
49
  3
A2
350
4A
  3
A3
350
4B
  3
A4
350
4C
  3
A5
350
4D
  3
A6
350
4E
  3
A7
350
4F
  3
A8
350
50
  3
A9
350
51
  3
B0
350
52
  3
B1
350
53
  3
B2
350
54
  3
B3
350
55
  3
B4
350
56
  3
B5
350
57
  3
B6
350
58
  3
B7
350
59
  3
B8
350
5A
  3
B9
350
5B
  3
C0
350
5C
  3
C1
350
5D
  3
C2
350
5E
  3
C3
350
5F
  3
C4
350
60
  3
C5
350
61
  3
C6
350
62
  3
C7
350
63
  3
C8
350
64
  3
C9
350
65
  3
D0
350
66
  3
D1
350
67
  3
D2
350
68
  0
LAYOUT
  5
1E
102
{ACAD_REACTORS
330
1A
102
}
330
1A
100
AcDbPlotSettings
  1

  2
none_device
  4

  6

 40
0.0
 41
0.0
 42
0.0
 43
0.0
 44
0.0
 45
0.0
 46
0.0
 47
0.0
 48
0.0
 49
0.0
140
0.0
141
0.0
142
1.0
143
1.0
 70
   688
 72
     1
 73
     0
 74
     5
  7

 75
    16
147
1.0
148
0.0
149
0.0
100
AcDbLayout
  1
Layout1
 70
     1
 71
     1
 10
0.0
 20
0.0
 11
420.0
 21
297.0
 12
0.0
 22
0.0
 32
0.0
 14
1.0000000000E+20
 24
1.0000000000E+20
 34
1.0000000000E+20
 15
-1.0000000000E+20
 25
-1.0000000000E+20
 35
-1.0000000000E+20
146
0.0
 13
0.0
 23
0.0
 33
0.0
 16
1.0
 26
0.0
 36
0.0
 17
0.0
 27
1.0
 37
0.0
 76
     0
330
1B
  0
LAYOUT
  5
26
102
{ACAD_REACTORS
330
1A
102
}
330
1A
100
AcDbPlotSettings
  1

  2
none_device
  4

  6

 40
0.0
 41
0.0
 42
0.0
 43
0.0
 44
0.0
 45
0.0
 46
0.0
 47
0.0
 48
0.0
 49
0.0
140
0.0
141
0.0
142
1.0
143
1.0
 70
   688
 72
     1
 73
     0
 74
     5
  7

 75
    16
147
1.0
148
0.0
149
0.0
100
AcDbLayout
  1
Layout2
 70
     1
 71
     2
 10
0.0
 20
0.0
 11
0.0
 21
0.0
 12
0.0
 22
0.0
 32
0.0
 14
0.0
 24
0.0
 34
0.0
 15
0.0
 25
0.0
 35
0.0
146
0.0
 13
0.0
 23
0.0
 33
0.0
 16
1.0
 26
0.0
 36
0.0
 17
0.0
 27
1.0
 37
0.0
 76
     0
330
23
  0
LAYOUT
  5
22
102
{ACAD_REACTORS
330
1A
102
}
330
1A
100
AcDbPlotSettings
  1

  2
none_device
  4
ANSI_A_(11.00_x_8.50_Inches)
  6

 40
6.35
 41
19.05
 42
6.35000508
 43
19.05000254
 44
279.4
 45
215.9
 46
-50.2508347731
 47
179.3331740375
 48
0.0
 49
0.0
140
0.0
141
0.0
142
0.0474303136
143
1.0
 70
  1696
 72
     0
 73
     0
 74
     0
  7

 75
     0
147
0.0179189148
148
-1300.4909072572
149
0.0
100
AcDbLayout
  1
Model
 70
     1
 71
     0
 10
0.0
 20
0.0
 11
420.0
 21
297.0
 12
0.0
 22
0.0
 32
0.0
 14
37.599988
 24
-114.8002
 34
0.0
 15
267.199988
 25
-35.33
 35
0.0
146
0.0
 13
0.0
 23
0.0
 33
0.0
 16
1.0
 26
0.0
 36
0.0
 17
0.0
 27
1.0
 37
0.0
 76
     0
330
1F
331
29
  0
MLINESTYLE
  5
18
102
{ACAD_REACTORS
330
17
102
}
330
17
100
AcDbMlineStyle
  2
Standard
 70
     0
  3

 62
   256
 51
90.0
 52
90.0
 71
     2
 49
0.5
 62
   256
  6
BYLAYER
 49
-0.5
 62
   256
  6
BYLAYER
  0
ACDBPLACEHOLDER
  5
F
102
{ACAD_REACTORS
330
E
102
}
330
E
  0
SCALE
  5
48
102
{ACAD_REACTORS
330
47
102
}
330
47
100
AcDbScale
 70
     0
300
1:1
140
1.0
141
1.0
290
     1
  0
SCALE
  5
49
102
{ACAD_REACTORS
330
47
102
}
330
47
100
AcDbScale
 70
     0
300
1:2
140
1.0
141
2.0
290
     0
  0
SCALE
  5
4A
102
{ACAD_REACTORS
330
47
102
}
330
47
100
AcDbScale
 70
     0
300
1:4
140
1.0
141
4.0
290
     0
  0
SCALE
  5
4B
102
{ACAD_REACTORS
330
47
102
}
330
47
100
AcDbScale
 70
     0
300
1:5
140
1.0
141
5.0
290
     0
  0
SCALE
  5
4C
102
{ACAD_REACTORS
330
47
102
}
330
47
100
AcDbScale
 70
     0
300
1:8
140
1.0
141
8.0
290
     0
  0
SCALE
  5
4D
102
{ACAD_REACTORS
330
47
102
}
330
47
100
AcDbScale
 70
     0
300
1:10
140
1.0
141
10.0
290
     0
  0
SCALE
  5
4E
102
{ACAD_REACTORS
330
47
102
}
330
47
100
AcDbScale
 70
     0
300
1:16
140
1.0
141
16.0
290
     0
  0
SCALE
  5
4F
102
{ACAD_REACTORS
330
47
102
}
330
47
100
AcDbScale
 70
     0
300
1:20
140
1.0
141
20.0
290
     0
  0
SCALE
  5
50
102
{ACAD_REACTORS
330
47
102
}
330
47
100
AcDbScale
 70
     0
300
1:30
140
1.0
141
30.0
290
     0
  0
SCALE
  5
51
102
{ACAD_REACTORS
330
47
102
}
330
47
100
AcDbScale
 70
     0
300
1:40
140
1.0
141
40.0
290
     0
  0
SCALE
  5
52
102
{ACAD_REACTORS
330
47
102
}
330
47
100
AcDbScale
 70
     0
300
1:50
140
1.0
141
50.0
290
     0
  0
SCALE
  5
53
102
{ACAD_REACTORS
330
47
102
}
330
47
100
AcDbScale
 70
     0
300
1:100
140
1.0
141
100.0
290
     0
  0
SCALE
  5
54
102
{ACAD_REACTORS
330
47
102
}
330
47
100
AcDbScale
 70
     0
300
2:1
140
2.0
141
1.0
290
     0
  0
SCALE
  5
55
102
{ACAD_REACTORS
330
47
102
}
330
47
100
AcDbScale
 70
     0
300
4:1
140
4.0
141
1.0
290
     0
  0
SCALE
  5
56
102
{ACAD_REACTORS
330
47
102
}
330
47
100
AcDbScale
 70
     0
300
8:1
140
8.0
141
1.0
290
     0
  0
SCALE
  5
57
102
{ACAD_REACTORS
330
47
102
}
330
47
100
AcDbScale
 70
     0
300
10:1
140
10.0
141
1.0
290
     0
  0
SCALE
  5
58
102
{ACAD_REACTORS
330
47
102
}
330
47
100
AcDbScale
 70
     0
300
100:1
140
100.0
141
1.0
290
     0
  0
SCALE
  5
59
102
{ACAD_REACTORS
330
47
102
}
330
47
100
AcDbScale
 70
     0
300
1/128" = 1'-0"
140
0.0078125
141
12.0
290
     0
  0
SCALE
  5
5A
102
{ACAD_REACTORS
330
47
102
}
330
47
100
AcDbScale
 70
     0
300
1/64" = 1'-0"
140
0.015625
141
12.0
290
     0
  0
SCALE
  5
5B
102
{ACAD_REACTORS
330
47
102
}
330
47
100
AcDbScale
 70
     0
300
1/32" = 1'-0"
140
0.03125
141
12.0
290
     0
  0
SCALE
  5
5C
102
{ACAD_REACTORS
330
47
102
}
330
47
100
AcDbScale
 70
     0
300
1/16" = 1'-0"
140
0.0625
141
12.0
290
     0
  0
SCALE
  5
5D
102
{ACAD_REACTORS
330
47
102
}
330
47
100
AcDbScale
 70
     0
300
3/32" = 1'-0"
140
0.09375
141
12.0
290
     0
  0
SCALE
  5
5E
102
{ACAD_REACTORS
330
47
102
}
330
47
100
AcDbScale
 70
     0
300
1/8" = 1'-0"
140
0.125
141
12.0
290
     0
  0
SCALE
  5
5F
102
{ACAD_REACTORS
330
47
102
}
330
47
100
AcDbScale
 70
     0
300
3/16" = 1'-0"
140
0.1875
141
12.0
290
     0
  0
SCALE
  5
60
102
{ACAD_REACTORS
330
47
102
}
330
47
100
AcDbScale
 70
     0
300
1/4" = 1'-0"
140
0.25
141
12.0
290
     0
  0
SCALE
  5
61
102
{ACAD_REACTORS
330
47
102
}
330
47
100
AcDbScale
 70
     0
300
3/8" = 1'-0"
140
0.375
141
12.0
290
     0
  0
SCALE
  5
62
102
{ACAD_REACTORS
330
47
102
}
330
47
100
AcDbScale
 70
     0
300
1/2" = 1'-0"
140
0.5
141
12.0
290
     0
  0
SCALE
  5
63
102
{ACAD_REACTORS
330
47
102
}
330
47
100
AcDbScale
 70
     0
300
3/4" = 1'-0"
140
0.75
141
12.0
290
     0
  0
SCALE
  5
64
102
{ACAD_REACTORS
330
47
102
}
330
47
100
AcDbScale
 70
     0
300
1" = 1'-0"
140
1.0
141
12.0
290
     0
  0
SCALE
  5
65
102
{ACAD_REACTORS
330
47
102
}
330
47
100
AcDbScale
 70
     0
300
1-1/2" = 1'-0"
140
1.5
141
12.0
290
     0
  0
SCALE
  5
66
102
{ACAD_REACTORS
330
47
102
}
330
47
100
AcDbScale
 70
     0
300
3" = 1'-0"
140
3.0
141
12.0
290
     0
  0
SCALE
  5
67
102
{ACAD_REACTORS
330
47
102
}
330
47
100
AcDbScale
 70
     0
300
6" = 1'-0"
140
6.0
141
12.0
290
     0
  0
SCALE
  5
68
102
{ACAD_REACTORS
330
47
102
}
330
47
100
AcDbScale
 70
     0
300
1'-0" = 1'-0"
140
12.0
141
12.0
290
     0
  0
ENDSEC
  0
EOF
